<?xml version="1.0" standalone="no"?>
<!DOCTYPE svg PUBLIC "-//W3C//DTD SVG 1.1//EN" "http://www.w3.org/Graphics/SVG/1.1/DTD/svg11.dtd" >
<svg xmlns="http://www.w3.org/2000/svg">
<metadata>Generated by IcoMoon</metadata>
<defs>
<font id="ced-icon" horiz-adv-x="1024">
<font-face units-per-em="1024" ascent="960" descent="-64" />
<missing-glyph horiz-adv-x="1024" />
<glyph unicode="&#x20;" horiz-adv-x="512" d="" />
<glyph unicode="&#xe600;" glyph-name="search" horiz-adv-x="704" d="M432 767.968c-150.208 0-271.968-121.792-272-272 0-150.176 121.792-272 272-272 150.24 0 272 121.792 272 272s-121.76 272-272 272zM432.32 735.776c132.576 0 240-107.456 240-240s-107.424-240-240-240c-132.544 0-240 107.456-240 240s107.456 240 240 240zM43.776 84.672l-22.624 22.624 207.328 208.192c0 0 3.712-3.936 10.688-11.328s11.936-11.328 11.936-11.328l-207.328-208.16z" />
<glyph unicode="&#xe601;" glyph-name="drop-down" horiz-adv-x="384" d="M0 543.264h383.488l-191.744-190.528z" />
<glyph unicode="&#xe602;" glyph-name="function-point" d="M716.16 423.904c-1.024 1.472-2.112 2.208-3.296 2.208-3.136 0-4.128-2.048-3.072-6.112 0.96-3.904 0.768-8.64-0.544-14.144-2.496-10.4-12.544-24.448-30.080-42.016-10.336-10.432-30.144-28.256-59.392-53.472-4.32 42.976-7.2 68.288-8.64 75.936-0.96 5.696-3.168 8.544-6.592 8.544-1.472 0-5.152-1.28-11.040-3.904-8-3.552-20.448-10.72-37.248-21.472-3.328-2.304-5.216-4.512-5.6-6.624-0.352-1.952 0.704-2.912 3.168-2.912 1.664 0 3.552 0.672 5.76 1.984 5.376 3.392 9.28 5.12 11.744 5.12 2.432 0 4.864-2.048 7.296-6.112 5.184-9.44 9.312-34.24 12.352-74.464-34.976-28-65.248-55.328-90.752-82.016-27.936-28.992-43.264-50.144-45.952-63.488-1.824-9.28-1.696-16.928 0.352-22.944 1.248-4.096 4.736-10.24 10.464-18.56 1.568-2.272 3.264-3.424 5.056-3.424 4.416 0 5.28 2.944 2.528 8.8-2.208 5.024-2.368 12.032-0.448 20.992 7.36 31.392 47.68 79.424 120.96 144.064 1.856-25.568 4.608-47.36 8.288-65.44 2.496-11.872 8.416-17.248 17.824-16.128 8.384 1.12 21.248 9.856 38.56 26.112 1.408 1.472 2.208 2.944 2.496 4.384 0.512 2.944-0.768 4.416-3.904 4.416-1.824 0-3.648-0.672-5.504-1.952-7.040-4.576-11.776-6.848-14.24-6.848-3.936 0-6.848 3.488-8.704 10.496-3.936 26.688-6.464 48.512-7.552 65.44 3.648 3.904 18.176 15.936 43.552 36.128 26.336 20.992 43.328 35.328 50.88 43.008 7.328 7.168 11.616 14.144 12.832 20.992 1.376 7.936-2.464 19.104-11.552 33.408zM542.912 619.648h-90.176c0.032 7.936 0.672 15.616 2.016 23.008 4.928 27.68 16.768 50.56 35.552 68.64 18.816 18.080 40.16 27.104 64.16 27.104 13.792 0 28.192-2.72 43.232-8.192l32.128 57.504c-24.704 8.224-48.544 12.32-71.424 12.32-45.76 0-85.408-16.032-118.976-48.064-33.536-32.032-55.296-76.16-65.248-132.288h-64.576l-11.68-65.76h64.544l-66.464-374.336h78.592l66.432 374.304h90.176l11.712 65.76z" />
<glyph unicode="&#xe603;" glyph-name="home" d="M256 224h512v-32h-512v32zM256 544h32v-352h-32v352zM736 544h32v-352h-32v352zM480 352h64v-128h-64v128zM255.659 542.307l229.010 229.010 22.627-22.627-229.010-229.010-22.627 22.627zM539.002 771.316l229.010-229.010-22.627-22.627-229.010 229.010 22.627 22.627zM484.992 771.328h53.504v-32h-53.504v32z" />
<glyph unicode="&#xe604;" glyph-name="notes-fat" d="M688 432c0-17.673-14.327-32-32-32s-32 14.327-32 32c0 17.673 14.327 32 32 32s32-14.327 32-32zM592 432c0-17.673-14.327-32-32-32s-32 14.327-32 32c0 17.673 14.327 32 32 32s32-14.327 32-32zM496 432c0-17.673-14.327-32-32-32s-32 14.327-32 32c0 17.673 14.327 32 32 32s32-14.327 32-32zM341.44 319.904l-94.944-95.424v439.52h-31.008v-480h31.008v1.024l0.96-0.96 101.888 102.4h408.32v32.384h-415.136zM757.984 670.656v32.224h-512v-32.448h512v-351.776h29.056v352z" />
<glyph unicode="&#xe605;" glyph-name="tqi" d="M528 863.104c-238.56 0-432-193.408-432-431.968 0-238.624 193.44-432 432-432s432 193.376 432 432c0 238.56-193.44 431.968-432 431.968zM525.824 61.632c-203.264 0-368 164.768-368 368 0 203.264 164.736 368 368 368 203.2 0 368-164.736 368-368 0-203.232-164.832-368-368-368zM641.12 416h96v-32h-96v32zM593.76 266.976c0-47.008-38.208-85.056-85.376-85.056-47.136 0-85.344 38.048-85.344 85.056 0 35.328 21.376 65.728 52.16 78.56v329.6l66.368-66.368v-263.232c30.72-12.864 52.192-43.296 52.192-78.56zM641.12 512h96v-32h-96v32zM641.12 608h96v-32h-96v32z" />
<glyph unicode="&#xe606;" glyph-name="security" d="M528 863.104c-238.592 0-432-193.408-432-432s193.408-432 432-432c238.56 0 432 193.408 432 432s-193.44 432-432 432zM525.824 61.632c-203.232 0-368 164.768-368 368 0 203.264 164.736 368 368 368 203.2 0 368-164.736 368-368 0-203.232-164.832-368-368-368zM415.904 292.8c-5.728 0-10.688 3.552-12.704 8.992-1.344 3.584-1.248 7.392 0.256 10.752 1.536 3.328 4.416 5.888 8.064 7.328 20.096 7.808 34.944 17.376 46.624 29.92 14.976 16.032 23.456 35.2 25.28 56.928 0.992 12.064 1.024 24.032 1.056 36.096l0.064 11.872c0.16 13.44 3.52 24.256 10.272 33.12 8.48 11.136 21.408 17.472 35.552 17.472 4.16 0 8.352-0.576 12.448-1.632 17.888-4.8 31.968-20.736 33.6-37.856 1.6-17.024 1.92-34.4 2.176-52.224 0-3.584-1.344-7.072-3.904-9.696s-6.016-4.128-9.6-4.128v0c-8.32 0.256-13.888 6.528-14.016 15.2-0.256 13.504-0.736 27.008-1.248 40.512l-0.096 3.456c-0.352 9.696-7.328 16.992-17.408 18.208-0.096 0-0.256 0.032-0.384 0.032-9.92 0-16.448-5.312-18.816-13.408-0.608-2.208-0.96-4.672-0.96-7.168-0.096-4.704-0.032-24.256-0.032-24.256 0.672-18.656-1.248-35.68-5.664-50.816-10.688-36.832-33.888-63.424-70.816-81.664-4.704-2.208-9.536-4.256-14.432-6.016-1.792-0.672-3.552-1.024-5.312-1.024zM508.992 250.56c-3.040 0-5.952 1.12-8.448 3.232-6.304 5.088-6.88 13.504-1.472 20.448 19.488 24.832 33.408 52.736 41.344 82.976 1.92 7.072 6.592 11.264 12.864 11.456v0c6.944 0 11.84-3.616 13.728-9.664 0.32-0.96 0.416-1.92 0.672-3.072l-0.896-5.984c-0.64-2.624-1.408-5.504-2.144-8.192-8.992-30.752-23.872-59.328-44.128-85.056-3.136-4-7.232-6.144-11.52-6.144zM367.616 349.248c-6.016 0-11.232 4-12.992 9.984-2.24 7.52 1.632 14.784 9.184 17.28 3.648 1.248 21.28 6.688 21.28 6.688 2.816 0.896 5.568 2.144 8.288 3.392 11.552 5.312 17.664 14.944 18.272 28.704l0.064 3.328c0.064 2.432 0.096 4.864 0.48 7.168 1.024 6.784 6.656 11.872 13.184 11.872 8.576-0.736 13.856-6.496 13.984-14.144v-3.328c-0.512-12.672-2.4-28.832-12.928-42.144-7.456-9.344-17.888-16.192-32.8-21.472-7.296-2.56-14.752-4.704-22.208-6.752-1.344-0.384-2.592-0.576-3.808-0.576v0zM595.68 263.296c-2.944 0-5.92 1.088-8.512 3.136-5.184 4.064-6.592 11.168-3.392 17.728 9.344 19.264 16.256 37.888 21.024 56.928 7.808 31.2 10.848 58.56 10.464 94.592-0.192 3.616-0.288 7.2-0.384 10.816-0.224 7.936-0.448 16.192-1.76 24.224-5.888 36-26.912 59.84-62.496 70.816-7.776 2.368-15.712 3.584-23.584 3.584-12.672 0-25.536-3.104-38.24-9.248-9.472-4.672-17.856-10.912-24.96-18.624-13.6-14.624-21.568-31.584-23.936-50.432-0.896-7.264-6.624-12.704-13.344-12.704-10.176 1.408-14.944 8.256-13.824 17.024 2.944 22.016 11.552 41.888 25.632 59.008l2.56 2.912c11.712 12.48 28.864 25.024 42.72 31.2 10.144 4.224 21.216 7.072 31.072 8 4.256 0.448 8.48 0.64 12.64 0.64 24.96 0 47.648-7.52 67.424-22.368 30.272-22.752 46.080-53.536 46.88-91.488l0.288-10.912c0.288-10.528 0.576-20.928 0.352-31.328-1.216-52.576-12.512-101.056-33.664-144.256-2.784-5.856-7.616-9.248-12.96-9.248zM687.584 330.688c-7.296 0.224-12.8 5.248-13.44 12.48-0.192 2.816 0.352 5.824 0.896 8.96l0.448 2.56c4.672 27.328 6.592 56.16 5.536 85.792l-0.128 4.672c-0.32 10.56-0.672 21.216-1.856 31.744-3.616 32.128-16.832 60.864-39.2 85.408-24.064 26.336-53.76 42.496-88.16 47.968-8.704 1.376-17.28 2.080-25.6 2.080-35.776 0-68.736-12.672-97.92-37.696-6.784-5.824-12.8-12.64-18.624-19.264l-3.456-3.904c-10.656-13.792-17.728-25.632-22.368-37.312-7.52-20.64-10.88-42.304-10.336-66.368 0.128-6.4 0.064-12.768 0-19.232-0.096-7.712-5.984-13.568-13.6-13.568-7.2 0-13.088 5.12-13.376 11.648-1.28 28.224-1.056 65.088 12.416 99.264 6.080 14.528 18.272 32.672 23.232 39.712 13.856 17.696 30.752 33.888 46.4 44.224 25.28 16.864 52.416 26.784 80.576 29.44 6.4 0.64 12.672 0.896 18.88 0.896 40.608 0 77.824-13.088 110.592-38.944 34.112-26.976 56.128-62.528 65.504-105.824 3.424-15.84 3.904-32.256 4.256-48.16l0.192-10.080c0.8-32.608-1.472-63.52-6.912-93.888-1.472-7.712-6.72-12.672-13.792-12.672h-0.16z" />
<glyph unicode="&#xe607;" glyph-name="information-note" d="M544.832 895.936c-229.76-3.072-413.44-191.808-410.432-421.568 3.072-229.696 191.808-413.312 421.504-410.304 229.696 3.136 413.44 191.808 410.432 421.504-3.008 229.632-191.744 413.44-421.504 410.368zM579.648 787.968c56.896 0 73.728-33.024 73.728-70.72 0-47.168-37.76-90.752-102.208-90.752-53.824 0-79.488 27.136-78.016 71.936 0 37.696 31.68 89.536 106.496 89.536zM478.272 184c-33.152 0-57.408 20.096-34.24 108.48l38.080 156.8c6.592 25.152 7.68 35.2 0 35.2-9.92 0-52.992-17.344-78.4-34.432l-16.512 27.136c80.512 67.328 173.248 106.816 212.928 106.816 33.152 0 38.592-39.232 22.080-99.52l-43.52-164.736c-7.68-29.12-4.416-39.232 3.328-39.232 9.92 0 42.56 12.032 74.496 37.248l18.752-25.28c-78.336-78.208-163.84-108.48-196.992-108.48z" />
<glyph unicode="&#xe608;" glyph-name="next" d="M436.608 700.896h39.264l183.072-257.28-181.792-254.752h-38.528l180.608 254.208-182.624 257.824z" />
<glyph unicode="&#xe609;" glyph-name="dot-selection" d="M288 512c35.328 0 64-28.672 64-64s-28.672-64-64-64-64 28.672-64 64 28.672 64 64 64zM512 512c35.328 0 64-28.672 64-64s-28.672-64-64-64-64 28.672-64 64 28.672 64 64 64zM736 512c35.328 0 64-28.672 64-64s-28.672-64-64-64-64 28.672-64 64 28.672 64 64 64z" />
<glyph unicode="&#xe60a;" glyph-name="source-code" d="M384 736h96v-32h-96v32zM576 736h96v-32h-96v32zM384 192h96v-32h-96v32zM576 192h96v-32h-96v32zM320 480h96v-32h-96v32zM640 480h96v-32h-96v32zM384 736h32v-576h-32v576zM640 736h32v-576h-32v576z" />
<glyph unicode="&#xe60b;" glyph-name="documentation" d="M224 544h544v-32h-544v32zM224 608h544v-32h-544v32zM224 672h544v-32h-544v32zM288 192h416v-32h-416v32zM256 224h32v-32h-32v32zM704 224h32v-32h-32v32zM544 384h32v-32h-32v32zM256 704h32v-32h-32v32zM288 736h448v-32h-448v32zM224 672h32v-448h-32v448zM480 416h32v-96h-32v96zM736 704h32v-288h-32v288zM768 448h32v-160h-32v160zM736 288h32v-64h-32v64zM512 320h288v-32h-288v32zM512 448h288v-32h-288v32z" />
<glyph unicode="&#xe60c;" glyph-name="details" d="M352 608h416v-32h-416v32zM256 608h32v-32h-32v32zM352 512h416v-32h-416v32zM256 512h32v-32h-32v32zM352 416h416v-32h-416v32zM256 416h32v-32h-32v32zM352 320h416v-32h-416v32zM256 320h32v-32h-32v32z" />
<glyph unicode="&#xe60d;" glyph-name="findings" d="M683.296 869.376l22.624-22.624-113.12-113.12-22.624 22.624 113.12 113.12zM744.416 801.504l22.624-22.624-113.12-113.12-22.624 22.624 113.12 113.12zM380.416 565.888l22.624-22.624-113.12-113.152-22.624 22.624 113.12 113.152zM445.248 499.872l22.624-22.624-113.12-113.12-22.624 22.624 113.12 113.12zM652.128 861.248l22.624 22.624 113.12-113.12-22.624-22.624-113.12 113.12zM343.136 557.28l22.624 22.624 113.12-113.12-22.624-22.624-113.12 113.12zM261.888 447.872l22.624 22.624 87.808-88.8-22.688-21.568-87.744 87.744zM549.12 765.248l22.624 22.624 113.12-113.12-22.624-22.624-113.12 113.12zM565.536 795.712l22.624-22.624-230.368-230.368-22.624 22.624 230.368 230.368zM674.048 686.368l22.624-22.624-230.368-230.368-22.624 22.624 230.368 230.368zM576 544.032h32v-32h-32v32zM608 512.032h32v-32h-32v32zM640 480.032h32v-32h-32v32zM672 448.032h32v-32h-32v32zM704 416h32v-320h-32v320zM288 128h448v-32h-448v32zM288 288h32v-176h-32v176zM192 288h352v-32h-352v32z" />
<glyph unicode="&#xe60e;" glyph-name="object-violations" d="M224 544h256l-5.664-32h-250.336v32zM224 544l30.912-8.288-81.92-311.712h-36l87.008 320zM453.504 544h38.016l-119.456-222.56-37.056-1.44 118.496 224zM491.488 352h49.504l-342.976-402.496 11.68 63.488 281.792 339.008zM257.664 255.776h33.344l-92.96-306.272-19.52 10.496 79.136 295.776zM160 256h128l-10.496-32h-117.504v32zM356.992 352h155.008v-32h-176.992l21.984 32z" />
<glyph unicode="&#xe60f;" glyph-name="iceberg" horiz-adv-x="864" d="M438.4 908.8l-185.6-176 201.6-240h390.4zM0 492.8h348.8l-153.6 182.4zM617.6 121.6l236.8 323.2h-854.4l377.6-444.8 134.4 140.8-54.4 64-76.8-83.2-204.8 240h236.8l204.8-240zM707.2 364.8l-92.8-121.6-96 121.6h188.8z" />
<glyph unicode="&#xe610;" glyph-name="score" d="M905.792 774.144c-5.696 14.656-19.136 24.128-34.24 24.128h-107.968c-0.256 18.368-1.152 29.312-1.152 29.312h-502.912c0 0-0.896-10.88-1.152-29.312h-107.904c-15.104 0-28.544-9.472-34.24-24.128-14.592-37.888 22.208-187.456 88.768-248 24.384-22.208 53.952-35.968 87.168-40.896 9.088-3.2 16.192-10.24 15.488-15.68-1.216-9.216-18.368-10.816-11.2-28.736 8-20.032 52.032-9.92 58.752 21.952 23.232-25.984 51.968-47.552 87.488-61.824 45.952-18.496 13.632-213.888 13.632-234.112 0 0-73.344 0-86.272-19.392-7.936-11.968-6.4-25.856-6.4-25.856s-47.424-15.104-47.424-34.496c0-19.392 0-24 0-24h389.632c0 0 0 4.608 0 24s-47.488 34.496-47.488 34.496 1.536 13.824-6.464 25.856c-12.928 19.392-86.272 19.392-86.272 19.392 0 20.16-32.256 215.616 13.696 234.112 35.52 14.272 64.192 35.84 87.488 61.824 6.72-31.936 50.816-41.984 58.752-21.952 7.232 17.984-9.984 19.584-11.2 28.736-0.704 5.44 6.464 12.48 15.552 15.68 33.216 4.928 62.72 18.688 87.104 40.896 66.624 60.544 103.36 210.112 88.768 248zM150.464 764.544c11.328 0 75.136 0 108.224 0 1.984-64.064 13.184-165.376 58.56-247.616-35.136 0.576-65.216 11.968-89.536 34.112-63.040 57.408-92.672 213.504-77.248 213.504zM794.368 551.040c-24.384-22.208-54.4-33.536-89.6-34.112 45.376 82.24 56.576 183.552 58.56 247.616 33.088 0 96.896 0 108.224 0 15.424 0-14.208-156.096-77.184-213.504z" />
<glyph unicode="&#xe611;" glyph-name="variance" d="M876.416 574.144c-9.024 15.488-23.68 15.488-32.768 0l-181.312-310.656c-1.216 2.56-2.048 5.312-3.456 7.744l-301.952 517.12c-7.424 12.672-16 20.352-23.872 22.848-8.64 7.424-19.328 5.376-26.496-7.040l-192.96-330.496c-9.024-15.488-9.024-40.576 0-56.064s23.68-15.488 32.768 0l180.736 309.632 298.944-512.192c7.296-12.48 15.744-20.16 23.552-22.848 0.64-1.408 0.384-3.392 1.152-4.672 9.024-15.488 23.68-15.488 32.768 0l192.896 330.496c9.024 15.488 9.024 40.64 0 56.128z" />
<glyph unicode="&#xe612;" glyph-name="weight" d="M512 640.96v128.064h192v64h-448v-64h192v-128.064h-255.104v-575.36h574.208v575.36z" />
<glyph unicode="&#xe613;" glyph-name="order-down" d="M784.612 682.666l-272.612-341.333-266.012 341.333h-188.985l454.997-568.889 454.997 568.889z" />
<glyph unicode="&#xe614;" glyph-name="order-up" d="M239.388 113.778l272.612 341.333 266.012-341.333h188.985l-454.997 568.889-454.997-568.889z" />
<glyph unicode="&#xe615;" glyph-name="critical" d="M509.376 701.12c176.896 0 320.256-143.424 320.256-320.32s-143.424-320.256-320.256-320.256c-176.896 0-320.256 143.424-320.256 320.256 0 176.896 143.36 320.32 320.256 320.32z" />
<glyph unicode="&#xe616;" glyph-name="risk" d="M480 321.28c52.416 0 94.848 42.432 94.848 94.848v385.408c0 52.352-42.432 94.848-94.848 94.848-52.352 0-94.848-42.496-94.848-94.848v-385.408c0-52.416 42.496-94.848 94.848-94.848zM575.872 95.488c0-52.949-42.923-95.872-95.872-95.872s-95.872 42.923-95.872 95.872c0 52.949 42.923 95.872 95.872 95.872s95.872-42.923 95.872-95.872z" />
<glyph unicode="&#xe617;" glyph-name="compliance" d="M936.32 766.464c-12.608 12.672-34.752 11.136-49.344-3.456l-501.12-501.056-256.768 256.768c-7.936 7.936-24.64 4.032-37.312-8.64-12.736-12.736-16.576-29.44-8.704-37.312l281.152-281.152c1.856-1.856 4.288-3.008 6.976-3.584 12.672-6.080 29.312-3.328 41.216 8.576l520.448 520.384c14.72 14.656 16.192 36.8 3.456 49.472z" />
<glyph unicode="&#xe618;" glyph-name="violation" d="M329.152 829.952h365.824l-182.848-259.2h240.384l-468.992-515.456 91.328 364.544h-182.848l137.152 410.112z" />
<glyph unicode="&#xe619;" glyph-name="check" d="M511.68 560.768c-59.648 0.64-111.808-51.264-112.448-111.68-0.64-61.312 48.704-112.256 108.608-113.728 60.992-1.6 116.16 47.616 116.928 110.656 0.704 61.184-51.52 114.112-113.088 114.752zM812.032 690.624c-42.624 33.6-88.64 61.696-138.944 82.432-47.808 19.648-97.536 31.168-149.184 32.768-53.248 1.664-104.768-7.552-154.752-25.792-66.752-24.32-125.568-62.016-179.648-107.584-33.6-28.352-64.64-59.392-93.632-92.48-35.2-40.256-67.328-82.816-95.616-128.256-2.048-3.328-1.92-5.568 0.128-8.832 48.448-77.12 106.24-146.304 174.208-206.848 44.928-40 93.696-74.432 148.032-100.544 59.584-28.736 122.176-45.12 197.056-45.504 35.328 0.192 78.080 7.040 119.872 20.608 72.128 23.36 135.232 62.656 193.152 110.912 36.928 30.72 70.72 64.832 102.144 101.184 32.576 37.824 62.528 77.632 88.896 120.064 1.984 3.2 2.24 5.44 0.128 8.832-57.728 91.264-126.976 172.096-211.84 239.040zM508.288 193.536c-138.304 1.792-248.832 116.16-248 252.608-0.192 133.696 108.736 250.944 251.712 251.008 142.208 0.064 253.248-117.248 251.776-254.72-1.408-134.528-112.384-250.752-255.488-248.896z" />
<glyph unicode="&#xe61a;" glyph-name="status" d="M256 832h-64v-705.984h-64v-62.016h192v62.016h-64zM320 830.016h576v-382.016h-576v382.016z" />
<glyph unicode="&#xe61b;" glyph-name="risk2" d="M512 0.96c-182.4 0-330.24 147.776-330.24 330.048 0 121.792 66.24 228.032 161.728 285.44 3.52 3.008 6.016 4.992 8.256 6.784h-0.96c55.744 44.032 91.584 112.128 91.584 188.672 0 10.688-0.768 21.184-2.112 31.488h0.704c0 6.976 0 12.544 0 14.016 0 20.8 16.832 37.632 37.632 37.632 12.672 0 21.12-8.768 30.72-16 65.088-50.432 107.2-129.216 107.2-217.92 0-5.632-0.256-11.2-0.64-16.768 0.064 0 0.064 0 0.128 0-4.16-68.48-33.28-130.24-78.464-176.192-2.944-7.616-4.608-15.808-4.608-24.32 0-36.928 29.952-66.88 66.816-66.88 36.928 0 66.944 29.952 66.944 66.88 0 3.264-0.32 6.464-0.768 9.536-2.432 36.928-12.032 71.872-27.52 103.36l2.432 2.496c-4.672 6.336-7.68 14.016-7.68 22.528 0 20.8 12.736 38.144 33.472 37.632 11.456-0.256 22.784-10.048 37.12-19.84 83.776-59.904 138.432-157.76 138.432-268.48 0.064-182.4-147.776-330.112-330.176-330.112z" />
<glyph unicode="&#xe61c;" glyph-name="favorite-2" d="M719.968 497.088l-139.392 28.16-68.576 130.752-68.576-130.752-139.392-28.16 97.024-108.96-17.6-148.128 128.544 63.392 128.544-63.392-17.6 148.128z" />
<glyph unicode="&#xe61d;" glyph-name="favorite-spline" d="M719.968 497.088l-139.392 28.16-68.576 130.752-68.576-130.752-139.392-28.16 97.024-108.96-17.6-148.128 128.544 63.392 128.544-63.392-17.6 148.128 97.024 108.96zM512.256 346.080l-83.52-41.216 11.424 96.32-63.104 70.816 90.624 18.304 44.576 84.96 44.576-84.96 90.624-18.304-63.072-70.816 11.424-96.32-83.552 41.216z" />
<glyph unicode="&#xe61e;" glyph-name="help" d="M496 752c-167.904 0-304-136.096-304-304 0-167.872 136.096-304 304-304 167.872 0 304 136.128 304 304 0 167.904-136.128 304-304 304zM495.264 170.496c-153.312 0-277.568 124.256-277.568 277.568 0 153.28 124.256 277.568 277.568 277.568s277.568-124.288 277.568-277.568c-0.032-153.312-124.256-277.568-277.568-277.568zM492.48 580.48c-27.616 0-64.864-6.912-74.464-37.216-4.224-13.44-29.92-6.528-24.928 8.832 14.208 43.36 62.944 53.344 99.776 53.344 46.816 0 108.224-24.576 106.688-80.224-1.152-41.056-32.224-54.112-60.992-66.4-19.968-8.064-38.368-16.128-38.368-34.528v-9.216c0-15.712-27.648-16.512-27.648 0v9.632c0 32.96 27.264 44.512 53.344 55.616 22.272 9.216 44.896 19.2 45.696 45.664 0.704 38.752-46.496 54.496-79.104 54.496zM502.432 335.136c0-17.696-31.84-15.744-31.84 0v9.952c0 16.896 31.84 17.696 31.84 0v-9.952z" />
<glyph unicode="&#xe61f;" glyph-name="share" d="M684.256 377.248c-42.72 0-79.744-23.008-100.32-57.12l-176.768 78.368c11.296 18.048 18.080 39.2 18.080 62.048 0 13.92-2.848 27.040-7.296 39.424l167.104 73.76c20.8-32.96 57.312-55.008 99.2-55.008 64.864 0 117.504 52.608 117.504 117.472s-52.64 117.504-117.504 117.504c-64.896 0-117.504-52.608-117.504-117.504 0-14.048 2.88-27.36 7.392-39.872l-167.008-73.728c-20.768 33.184-57.344 55.392-99.36 55.392-64.896 0-117.504-52.608-117.504-117.504s52.608-117.472 117.504-117.472c32.704 0 62.272 13.408 83.552 35.008l182.112-80.736c-4-11.872-6.688-24.352-6.688-37.568 0-64.864 52.608-117.504 117.504-117.504 64.864 0 117.504 52.64 117.504 117.504s-52.64 117.536-117.504 117.536zM682.272 736.096c55.168 0 99.84-44.704 99.84-99.872s-44.672-99.872-99.84-99.872-99.84 44.704-99.84 99.872 44.704 99.872 99.84 99.872zM305.792 360.672c-55.168 0-99.872 44.704-99.872 99.872 0 55.136 44.704 99.872 99.872 99.872s99.872-44.704 99.872-99.872c0-55.136-44.704-99.872-99.872-99.872zM682.272 159.936c-55.168 0-99.84 44.672-99.84 99.808 0 55.2 44.672 99.872 99.84 99.872s99.84-44.672 99.84-99.872c0-55.104-44.672-99.808-99.84-99.808z" />
<glyph unicode="&#xe620;" glyph-name="user" d="M610.848 226.784c23.2 25.664 28.32 60.512 28.32 100.096v105.6c0 82.688-49.12 145.088-129.152 145.088s-128.128-62.368-128.128-145.088v-105.6c0-41.696 0.992-78.176 26.464-104.192-96.608-24.16-183.936-76.928-183.936-136.064l0.096-12.64 35.136 0.256v12.384c0 32.544 74.816 90.048 184.608 107.936 17.856-8.16 43.808-12.736 65.28-12.736 23.072 0 38.4 5.312 57.216 14.656 116.416-15.328 196.672-75.648 196.672-109.216l-0.032-13.248h37.44l0.032 13.248c-0.096 53.568-76.864 115.84-190.016 139.52zM606.784 326.88c0-61.824-36.096-108.416-94.784-108.416-58.72 0-97.76 46.592-97.76 108.416v105.632c0 61.792 38.048 108.384 96.768 108.384 58.688 0 95.776-46.592 95.776-108.384v-105.632z" />
<glyph unicode="&#xe621;" glyph-name="plus" d="M887.467 477.866h-341.333v341.333h-68.267v-341.333h-341.333v-68.267h341.333v-341.333h68.267v341.333h341.333z" />
<glyph unicode="&#xe622;" glyph-name="efficiency" d="M869.344 560.672c15.552-40.768 24.48-84.8 24.48-131.040 0-203.232-164.8-368-368-368-203.232 0-368 164.768-368 368 0 203.264 164.736 368 368 368 43.712 0 85.44-8 124.352-22.016l51.072 51.072c-53.056 23.296-111.552 36.416-173.216 36.416-238.624 0-432.032-193.408-432.032-432s193.408-432 432-432c238.56 0 432 193.408 432 432 0 64.48-14.496 125.44-39.84 180.384l-50.816-50.816zM810.624 605.888l-15.648 15.616 29.44 106.592-68.096-68-54.304 54.208 146.336 37.664-37.728-146.080zM485.088 389.28l38.688-38.624 271.2 270.816 15.648-15.616-152.288-152.128-26.848-241.792-323.168 322.528 240.224 26.528 153.408 153.312 54.368-54.208-271.232-270.816zM354.336 519.776l76.448-76.288 95.776 95.584-172.224-19.296zM445.344 323.232l-37.024 37.024-96.8-96.832-174.144-4.224 218.208-217.824-3.584 182.336z" />
<glyph unicode="&#xe623;" glyph-name="quality-investigation" d="M858.752 545.6l-188.192 190.4h-317.152l-188.16-190.4 344.96-379.2h3.616l18.816 20.672 0.704 0.672-0.064 0.032 325.472 357.824zM366.496 705.056h291.008l161.344-161.056h-614.048l161.696 161.056zM240 512h545.568l-273.568-300.864-272 300.864z" />
<glyph unicode="&#xe624;" glyph-name="application-investigation" d="M528 417.312l-304 141.568v50.752l304 142.368 304-140.928v-52.192l-304-141.568zM528 713.312l-273.696-129.504 273.696-127.84 275.2 130.080-275.2 127.264zM512.032 297.44l-287.648 135.136v39.616l287.648-135.136v-39.616zM543.968 370.816l287.648 134.592v-227.168l-159.808-75.904v39.712l127.84 60.32v148.992l-223.712-104.672v-189.888l-29.92-12.8-321.632 150.496v39.616l319.584-151.264v187.968z" />
<glyph unicode="&#xe625;" glyph-name="advanced-search" d="M464 544c-114.88 0-269.344-64-368-208 94.656-145.344 253.12-208 368-208 114.848 0 270.656 64 368 208-97.344 141.344-253.152 208-368 208zM464 160.672c-97.216 0-210.272 27.008-336 175.968 126.176 146.464 238.784 176 336 176 97.184 0 211.040-31.072 336-176-126.208-148.032-238.816-175.968-336-175.968zM672 528h32v64h32v32h-32v224h-32v-224h-32v-32h32zM896 688v160h-32v-160h-32v-32h32v-128h32v128h32v32zM768 528h32v224h32v32h-32v64h-32v-64h-32v-32h32zM464 448c-61.856 0-112-50.112-112-112 0-61.856 50.144-112 112-112 61.888 0 112 50.144 112 112 0 61.888-50.112 112-112 112zM464 288c-26.528 0-48 21.504-48 48s21.472 48 48 48c26.496 0 48-21.504 48-48s-21.504-48-48-48z" />
<glyph unicode="&#xe626;" glyph-name="action-plan" d="M483.2 400l262.4 288h-134.4l102.4 144h-204.8l-76.8-227.2h102.4zM512 160c0-35.346-28.654-64-64-64s-64 28.654-64 64c0 35.346 28.654 64 64 64s64-28.654 64-64zM784 160c0-35.346-28.654-64-64-64s-64 28.654-64 64c0 35.346 28.654 64 64 64s64-28.654 64-64zM838.4 617.6l-44.8-297.6h-412.8l-115.2 320h-188.8v-32h166.4l115.2-320h460.8l51.2 326.4z" />
<glyph unicode="&#xe627;" glyph-name="log-off" d="M768 400.16c0-150.24-121.792-272-272-272s-272 121.76-272 272c0 122.24 80.672 225.664 191.712 259.904v-33.664c-93.376-32.864-160.416-121.6-160.416-226.176 0-132.576 107.456-240 240-240 132.576 0 240 107.424 240 240 0 104.288-66.656 192.8-159.584 225.888v34.112c111.328-34.112 192.288-137.6 192.288-260.064zM511.712 735.84h-32v-256h32v256z" />
<glyph unicode="&#xe628;" glyph-name="robustness" d="M528 863.104c-238.592 0-432-193.408-432-432s193.408-432 432-432c238.56 0 432 193.408 432 432s-193.44 432-432 432zM525.824 61.632c-203.232 0-368 164.768-368 368 0 203.264 164.736 368 368 368 203.2 0 368-164.736 368-368 0-203.232-164.832-368-368-368zM354.848 608v-241.344l174.496-114.656 174.336 114.592v241.408h-348.832zM684.832 379.2l-139.488-91.2v301.472h139.488v-210.272z" />
<glyph unicode="&#xe62a;" glyph-name="changeability" d="M151.968 433.28c0-85.984 28.608-165.184 76.704-228.608l-38.304 1.824-6.56-34.176c-55.104 72.864-87.808 163.808-87.808 262.432 0 218.4 160.384 399.136 369.216 429.696l29.376-26.752-22.432-31.552c-181.056-26.272-320.192-183.168-320.192-372.864zM742.688 126.368c-61.184-43.968-136-69.824-216.864-69.824-78.912 0-152.064 24.64-212.384 66.688l-40.608-5.056 9.056-40.416c69.856-48.704 154.624-77.344 246.080-77.344 92.576 0 178.304 29.312 248.64 79.136l-34.688 8.896 0.768 37.92zM593.44 864.064l20.256-34.592-27.264-24.416c177.632-29.216 313.248-184.544 313.248-371.776 0-85.12-28.064-163.648-75.328-226.752l8.256-35.2 39.616 1.024c55.104 72.928 87.776 163.808 87.776 262.4 0 217.472-159.072 397.632-366.56 429.312zM480 578.496v32h-96v-160h-32v-32h32v-160h96v32h-64v288h64zM640 578.496v-288h-64v-32h96v160h32v32h-32v160h-96v-32h64z" />
<glyph unicode="&#xe62b;" glyph-name="transferability" d="M528 863.104c-238.592 0-432-193.408-432-432s193.408-432 432-432c238.56 0 432 193.408 432 432s-193.44 432-432 432zM525.824 61.632c-203.232 0-368 164.768-368 368 0 203.264 164.736 368 368 368 203.2 0 368-164.736 368-368 0-203.232-164.832-368-368-368zM576 569.952v-345.952h-32v416l192.864-189.664v-41.216l-160.864 160.832zM480.864 300.8v339.2h32v-416l-192.864 189.696v47.968l160.864-160.864z" />
<glyph unicode="&#xe62c;" glyph-name="go2" d="M559.904 608.448h-27.168l159.456-160.448h-402.944v-32h402.912l-159.424-160 27.168-0.448 174.848 176.448z" />
<glyph unicode="&#xe62d;" glyph-name="close" d="M738.944 243.424l-22.368-22.368-204.576 204.576-204.544-204.512-22.336 22.368 204.512 204.512-204.64 204.64 22.368 22.368 204.64-204.64 204.736 204.736 22.368-22.368-204.736-204.736 204.576-204.576z" />
<glyph unicode="&#xe62f;" glyph-name="distribution-graph" d="M758.016 320c-73.376 63.808-125.984 320-217.504 320-89.856 0-167.584-259.168-225.312-320h-91.2v-32h106.368c76.8 115.584 131.616 328.832 207.104 328.832s125.472-202.272 197.248-328.832h97.28v32h-73.984z" />
<glyph unicode="&#xe630;" glyph-name="distribution" d="M288 480h32v-256h-32v256zM384 608h32v-384h-32v384zM480 704h32v-480h-32v480zM576 544h32v-320h-32v320zM672 416h32v-192h-32v192z" />
<glyph unicode="&#xe631;" glyph-name="best-practices" d="M528 863.104c-238.592 0-432-193.408-432-432s193.408-432 432-432c238.56 0 432 193.408 432 432s-193.44 432-432 432zM525.824 61.632c-203.232 0-368 164.768-368 368 0 203.264 164.736 368 368 368 203.2 0 368-164.736 368-368 0-203.232-164.832-368-368-368zM629.248 483.232l-133.376-132.48-80.48 80.448 40.608-0.192 39.936-39.936 92.832 92.16h40.48zM360.416 424.608c13.152 9.536 19.712 23.328 19.712 41.536v82.272c0 10.656 3.072 16.448 9.152 17.28l4.288 0.32h23.488v17.92h-49.28c-24.544 0-36.768-16-36.768-48v-79.232l-0.16-1.76-0.96-7.616c-0.832-7.584-37.696-12.416-46.528-14.4v-12.992c10.4-2.208 47.648-11.328 47.648-27.392v-79.872c0-31.072 10.304-46.592 30.944-46.592l54.784-0.16v17.44h-14.496c-10.112 0-16.32 0.928-18.624 2.848-2.336 1.92-3.488 6.912-3.488 15.040v81.856c0 18.88-6.56 32.704-19.712 41.504zM666.016 424.608c-13.184 9.536-19.744 23.328-19.744 41.536v82.272c0 10.656-3.072 16.448-9.12 17.28l-4.32 0.32h-23.488v17.92h49.248c24.576 0 36.8-16 36.8-48v-79.232l0.128-1.76 0.992-7.616c0.8-7.584 37.696-12.416 46.496-14.4v-12.992c-10.368-2.208-47.616-11.328-47.616-27.392v-79.872c0-31.072-10.304-46.592-30.944-46.592l-54.816-0.16v17.44h14.496c10.112 0 16.32 0.928 18.624 2.848 2.368 1.92 3.488 6.912 3.488 15.040v81.856c0 18.88 6.56 32.704 19.776 41.504z" />
<glyph unicode="&#xe632;" glyph-name="green-it" d="M528 863.104c-238.592 0-432-193.408-432-432s193.408-432 432-432c238.56 0 432 193.408 432 432s-193.44 432-432 432zM525.824 61.632c-203.232 0-368 164.768-368 368 0 203.264 164.736 368 368 368 203.2 0 368-164.736 368-368 0-203.232-164.832-368-368-368zM698.752 683.52c-7.264-4.352-14.24-8.736-22.944-14.432-107.872-70.016-122.944-113.568-124.48-195.392 0-15.424-0.032-31.584-0.032-47.040 3.744 2.24 7.36 4.48 10.976 6.656 6.592 3.872 12.832 7.904 23.072 14.496 107.84 70.016 122.912 113.568 124.416 195.392 0 16.288 0.064 30.944 0.064 47.040-3.808-2.272-7.456-4.48-11.072-6.72zM683.936 603.552c0-36.544-29.6-69.888-81.44-112.864-6.336-5.28-11.104-7.328-15.52-9.984-2.432-1.504-4.864-3.040-7.392-4.576 0 10.592 0.224 11.744 0 22.336 0 50.56 19.2 89.056 83.936 133.952 7.072 4.928 19.264 11.264 20.48 12-0.032-32.64-0.256-29.696-0.064-40.864zM698.752 485.536c-7.264-4.352-14.24-8.736-22.944-14.432-107.872-70.016-122.944-113.568-124.48-195.392 0-15.424-0.032-31.584-0.032-47.040 3.744 2.24 7.36 4.48 10.976 6.656 6.592 3.872 12.832 7.904 23.072 14.496 107.84 70.016 122.912 113.568 124.416 195.392 0 16.288 0.064 30.944 0.064 47.040-3.808-2.272-7.456-4.512-11.072-6.72zM364.544 423.648c7.264-4.352 14.272-8.736 22.944-14.432 107.904-70.016 122.976-113.568 124.512-195.392 0-15.424 0.032-31.584 0.032-47.040-3.776 2.24-7.36 4.48-10.976 6.656-6.592 3.872-12.864 7.904-23.040 14.496-107.872 70.016-122.912 113.568-124.448 195.392 0 16.288-0.032 30.944-0.032 47.040 3.744-2.272 7.392-4.48 11.008-6.72zM364.544 621.664c7.264-4.352 14.272-8.736 22.944-14.432 107.904-70.016 122.976-113.568 124.512-195.392 0-15.424 0.032-31.584 0.032-47.040-3.776 2.24-7.36 4.48-10.976 6.656-6.592 3.872-12.864 7.904-23.040 14.496-107.872 70.016-122.912 113.568-124.448 195.392 0 16.288-0.032 30.944-0.032 47.040 3.744-2.304 7.392-4.512 11.008-6.72z" />
<glyph unicode="&#xe633;" glyph-name="maintenability" d="M528 863.104c-238.592 0-432-193.408-432-432s193.408-432 432-432c238.56 0 432 193.408 432 432s-193.44 432-432 432zM230.656 210.528l201.28 201.12c8.096-15.712 18.688-30.464 31.872-43.648 14.208-14.176 30.304-25.408 47.424-33.696l-201.92-201.792c-30.016 21.92-56.512 48.192-78.656 78.016zM525.824 61.632c-66.624 0-128.896 17.984-182.784 48.896l209.856 209.728c55.488-11.136 115.36 4.736 158.368 47.744 44.128 44.064 59.68 105.728 46.944 162.272l-100.8-100.288-97.92 34.016-35.168 100.512 98.496 98.4c-55.68 11.392-115.84-4.48-159.008-47.584-44.224-44.224-59.776-106.176-46.752-162.912l-208.576-208.448c-32 54.56-50.656 117.888-50.656 185.664 0 203.264 164.736 368 368 368 203.2 0 368-164.736 368-368 0-203.232-164.832-368-368-368z" />
<glyph unicode="&#xe634;" glyph-name="architectural-design" d="M528 863.104c-238.592 0-432-193.408-432-432s193.408-432 432-432c238.56 0 432 193.408 432 432s-193.44 432-432 432zM525.824 61.632c-203.264 0-368 164.768-368 368 0 203.264 164.736 368 368 368 203.2 0 368-164.736 368-368 0-203.232-164.832-368-368-368zM691.2 403.328c38.112 0 69.056-30.912 69.056-69.024 0-38.080-30.944-68.992-69.056-68.992s-68.992 30.912-68.992 68.992c-0.032 38.144 30.848 69.024 68.992 69.024zM457.952 352h130.912v-32h-130.912v32zM524.576 665.056c-38.080 0-68.992-30.912-68.992-68.992 0-16.672 6.144-31.776 16-43.712l-88.832-153.792c-7.712 3.008-16 4.768-24.768 4.768-38.112 0-69.024-30.912-69.024-69.024 0-38.080 30.912-68.992 69.024-68.992 38.080 0 68.992 30.912 68.992 68.992 0 20.768-9.376 39.232-23.904 51.872l86.912 150.464c10.208-5.952 21.92-9.632 34.592-9.632 38.112 0 69.056 30.912 69.056 69.024s-30.944 69.024-69.056 69.024zM631.488 404.992l-65.504 113.312 20.64 11.904 65.44-113.344-20.576-11.872z" />
<glyph unicode="&#xe635;" glyph-name="documentation-bc" d="M528 863.104c-238.592 0-432-193.408-432-432s193.408-432 432-432c238.56 0 432 193.408 432 432s-193.44 432-432 432zM525.824 61.632c-203.232 0-368 164.768-368 368 0 203.264 164.736 368 368 368 203.2 0 368-164.736 368-368 0-203.232-164.832-368-368-368zM705.056 614.688v89.312l-161.856-149.248-191.2 71.392v-328.384l191.232-71.36 192.768 71.392v328.352l-30.944-11.456zM676.512 640v-35.872l-65.952-24.416 65.952 60.288zM704 323.2l-160.768-60.8v256l160.768 60.8v-256z" />
<glyph unicode="&#xe636;" glyph-name="module" d="M496 280.352l-280.128 135.68-24.288-23.040 292.288-141.568 12.128 11.52 12.128-11.52 292.256 141.568-24.256 23.040zM496 156.896l-280.128 135.712-24.288-23.040 292.288-141.568 12.128 11.488 12.128-11.488 292.256 141.568-24.256 23.040zM800.384 562.464l-292.256 141.536-12.128-11.488-12.128 11.488-292.256-141.536 24.256-23.040-24.256-23.040 292.256-141.536 12.128 11.52 12.128-11.488 292.256 141.536-24.256 23.040 24.256 23.008zM215.904 539.424l280.096 135.68 280.096-135.68-280.096-135.68-280.096 135.68z" />
<glyph unicode="&#xe637;" glyph-name="default-bc" d="M528 863.104c-238.56 0-432-193.408-432-432s193.44-432 432-432 432 193.408 432 432-193.44 432-432 432zM525.824 61.632c-203.264 0-368 164.768-368 368 0 203.264 164.736 368 368 368 203.2 0 368-164.736 368-368 0-203.232-164.832-368-368-368zM379.2 384h-90.528v32h64.768l25.76-32zM511.872 416l-27.968-32h284.768v32h-256.8zM319.328 513.344l112.672-161.184 112 161.184h-224.672z" />
<glyph unicode="&#xe638;" glyph-name="export" horiz-adv-x="544" d="M256 256h32v19.136l161.44 157.12-15.616 16.608-145.824-141.888v397.024h-32v-397.024l-145.824 141.888-15.616-16.608 161.44-157.12zM512 352v-160h-480v160h-32v-192h544v192z" />
<glyph unicode="&#xe639;" glyph-name="loading-icon" d="M512 288c-88.384 0-160 71.616-160 160s71.616 160 160 160v32c-106.016 0-192-85.984-192-192s85.984-192 192-192 192 85.984 192 192h-32c0-88.384-71.616-160-160-160z" />
<glyph unicode="&#xe63a;" glyph-name="variance-previous" d="M908.352 542.144c-9.024 15.488-23.68 15.488-32.768 0l-133.44-228.608c-12.096 3.84-24.768 6.464-38.144 6.464-19.136 0-37.056-4.48-53.376-12.032l-261.696 448.384c-7.424 12.672-16 20.352-23.872 22.848-8.64 7.424-19.328 5.376-26.496-7.040l-192.96-330.496c-9.024-15.488-9.024-40.576 0-56.064s23.68-15.488 32.768 0l180.736 309.632 246.528-422.272c-18.24-22.080-29.632-50.048-29.632-80.96 0-70.72 57.344-128 128-128 70.72 0 128 57.28 128 128 0 36.928-15.808 69.952-40.832 93.248l117.184 200.832c9.088 15.424 9.088 40.576 0 56.064zM703.872 128c-35.392 0-64 28.608-64 64s28.608 64 64 64 64-28.608 64-64-28.608-64-64-64z" />
<glyph unicode="&#xe63b;" glyph-name="variance-baseline" d="M908.352 542.144c-9.024 15.488-23.68 15.488-32.768 0l-181.312-310.656c-1.216 2.56-2.048 5.248-3.52 7.68l-301.824 517.184c-7.424 12.672-16 20.352-23.872 22.848-8.64 7.424-19.328 5.376-26.496-7.040l-116.8-200c-9.6 2.304-19.456 3.84-29.76 3.84-70.656 0-128-57.28-128-128s57.344-128 128-128c70.72 0 128 57.28 128 128 0 40.064-18.752 75.392-47.552 98.816l86.656 148.416 298.944-512.128c7.296-12.48 15.744-20.224 23.552-22.848 0.64-1.408 0.384-3.456 1.152-4.672 9.088-15.488 23.68-15.488 32.768 0l192.896 330.496c9.024 15.424 9.024 40.576-0.064 56.064zM191.872 384c-35.392 0-64 28.608-64 64s28.608 64 64 64 64-28.608 64-64-28.608-64-64-64z" />
<glyph unicode="&#xe63c;" glyph-name="empty" d="M512 832c-212.096 0-384-171.904-384-384 0-212.032 171.904-384 384-384 212.032 0 384 172.032 384 384 0 212.096-171.968 384-384 384zM172.672 448.512c0 187.136 151.68 338.816 338.816 338.816 87.616 0 166.72-34.176 226.88-88.768l-476.928-476.928c-54.656 60.096-88.768 139.264-88.768 226.88zM511.488 109.696c-88.64 0-168.64 34.816-228.992 90.496l477.312 477.312c55.68-60.352 90.496-140.352 90.496-228.992 0-187.136-151.68-338.816-338.816-338.816z" />
<glyph unicode="&#xe63d;" glyph-name="back2-large" d="M416.064 768.448h27.2l-287.456-288.448h754.944v-32h-754.88l287.392-288-27.2-0.448-302.816 304.448z" />
<glyph unicode="&#xe63e;" glyph-name="delete-xlarge" d="M640 640v64h-224v-64h-160v-64h64v-416h416v416h64v64h-160zM448 672h160v-32h-160v32zM672 224h-288v352h288v-352z" />
<glyph unicode="&#xe63f;" glyph-name="corrected" d="M952.768 683.2l-90.496 90.496-470.4-470.464-230.144 230.208-90.496-90.496 320.704-320.64z" />
<glyph unicode="&#xe640;" glyph-name="pending-correction" d="M840.768 573.248l93.056 23.36c-33.344 94.4-96.832 174.656-179.712 228.032l-46.976-83.712c60.352-40.32 107.392-98.88 133.632-167.68zM950.656 534.784l-93.056-23.36c3.776-20.608 6.4-41.664 6.4-63.424 0-194.432-157.632-352-352-352s-352 157.568-352 352c0 123.008 63.232 231.168 158.848 294.144l-45.056 84.8c-125.888-79.296-209.792-219.136-209.792-378.944 0-247.424 200.576-448 448-448s448 200.576 448 448c0 29.824-3.84 58.688-9.344 86.784zM512 800c49.344 0 96.256-10.24 138.88-28.544l47.040 83.84c-56.64 25.856-119.488 40.704-185.92 40.704-64.768 0-126.208-14.016-181.824-38.784l45.12-84.8c42.048 17.792 88.192 27.584 136.704 27.584zM448 751.744h64v-319.744h-64v319.744zM448 448h256v-64h-256v64z" />
<glyph unicode="&#xe641;" glyph-name="priority" d="M128 320h832v-192h-832v192zM256 576h576v-192h-576v192zM384 832h320v-192h-320v192z" />
<glyph unicode="&#xe642;" glyph-name="architectural-design2" d="M896.192 246.784c0-65.603-52.465-118.784-117.184-118.784s-117.184 53.181-117.184 118.784c0 65.603 52.465 118.784 117.184 118.784s117.184-53.181 117.184-118.784zM289.856 336.032l147.552 259.040c17.344-10.272 37.216-16.576 58.72-16.576 64.704 0 117.184 53.184 117.184 118.784s-52.48 118.784-117.184 118.784-117.152-53.184-117.152-118.784c0-28.704 10.464-54.656 27.168-75.2l-150.784-264.736c-13.088 5.12-27.168 8.224-42.016 8.224-64.704 0-117.152-53.184-117.152-118.784s52.416-118.784 117.12-118.784c64.672 0 117.152 53.184 117.152 118.784 0 35.776-15.936 67.456-40.608 89.248zM383.008 271.328h222.24v-40.96h-222.24v40.96zM566.464 563.488l111.136-195.040 34.976 20.416-111.104 195.104z" />
<glyph unicode="&#xe643;" glyph-name="code" d="M333.146 156.396c-7.52 12.416-12.976 26.128-16.334 41.168s-5.072 31.060-5.072 48.094v84.96c0 12.976-1.33 25.534-3.952 37.53-2.624 12.068-6.75 23.050-12.382 33.088-5.632 10.004-12.836 18.958-21.616 26.862s-19.168 14.34-31.2 19.342c12.032 4.756 22.42 11.088 31.2 18.958s15.984 16.754 21.616 26.688c5.632 9.898 9.758 20.776 12.382 32.704 2.624 11.892 3.952 24.484 3.952 37.776v85.658c0 17.034 1.644 33.124 4.896 48.304 3.252 15.146 8.57 29.066 15.984 41.692 7.38 12.626 16.894 23.68 28.542 33.054s25.744 16.72 42.252 21.966l-9.758 29.696c-24.274-7.276-44.56-16.72-60.86-28.366s-29.31-25.044-39.070-40.224c-9.794-15.146-16.754-31.69-20.882-49.598s-6.19-36.76-6.19-56.558v-85.658c0-14.796-1.644-28.052-4.896-39.838s-8.394-21.93-15.39-30.43c-7.030-8.534-16.020-15.040-27.038-19.552s-24.17-6.75-39.454-6.75v-39.104c15.284 0 28.436-2.308 39.454-6.926 11.018-4.652 20.042-11.158 27.038-19.552s12.138-18.608 15.39-30.64c3.252-12.032 4.896-25.428 4.896-40.154v-84.96c0-19.552 2.064-38.264 6.19-56.174s11.088-34.278 20.846-49.178 22.77-28.226 39.070-39.838c16.3-11.682 36.586-21.126 60.86-28.402l10.912 30.046c-16.544 5.492-30.674 12.836-42.462 21.966-11.752 9.198-21.406 20.006-28.926 32.354zM804.668 473.744c-10.982 4.512-20.006 11.018-27.038 19.552-7.030 8.5-12.172 18.642-15.354 30.43-3.288 11.752-4.932 25.044-4.932 39.838v85.658c0 19.796-2.064 38.65-6.226 56.558-4.092 17.908-11.052 34.452-20.846 49.598-9.758 15.18-22.806 28.576-39.070 40.224s-36.55 21.092-60.86 28.366l-9.758-29.696c16.788-5.246 31.024-12.592 42.636-21.966 11.682-9.408 21.126-20.426 28.366-33.054 7.31-12.662 12.556-26.548 15.774-41.692 3.288-15.18 4.932-31.27 4.932-48.304v-85.658c0-13.536 1.364-26.372 4.092-38.51 2.798-12.172 7.1-23.26 12.976-33.264 5.876-10.038 13.396-18.852 22.56-26.478 9.164-7.66 20.146-13.71 32.914-18.224-12.766-4.478-23.784-10.634-32.914-18.398-9.164-7.764-16.684-16.684-22.56-26.652-5.876-10.038-10.178-21.056-12.976-33.088-2.728-11.998-4.092-24.798-4.092-38.3v-84.96c0-17.034-1.714-33.054-5.072-48.094-3.428-15.040-8.814-28.716-16.404-41.168-7.52-12.382-17.138-23.154-28.892-32.318-11.752-9.13-25.952-16.474-42.498-21.966l10.948-30.046c24.31 7.276 44.596 16.72 60.86 28.402 16.264 11.612 29.31 24.938 39.070 39.838s16.754 31.304 20.846 49.178c4.162 17.944 6.226 36.656 6.226 56.174v84.96c0 14.76 1.644 28.156 4.932 40.154 3.218 12.032 8.324 22.246 15.354 30.64 7.030 8.36 16.054 14.9 27.038 19.552 10.982 4.616 24.17 6.926 39.49 6.926v39.104c-15.32-0.104-28.506 2.168-39.524 6.68z" />
<glyph unicode="&#xe644;" glyph-name="comment" d="M633.248 832l-396-685.92 17.568-65.536 396 685.888zM832 419.104l-15.552 49.696-85.888-33.248 4.32 101.184h-51.744l4.352-99.456-87.296 33.856-15.936-48.864 88.192-25.44-59.808-78.624 42.176-29.504 51.424 80.672 52.064-83.296 41.952 30.656-57.888 76.928z" />
<glyph unicode="&#xe645;" glyph-name="artefact" d="M296.68 165.208c-7.52 12.382-12.976 26.128-16.334 41.168s-5.072 31.060-5.072 48.094v84.924c0 13.012-1.33 25.534-3.952 37.566s-6.75 23.050-12.382 33.054-12.836 18.992-21.616 26.898c-8.78 7.904-19.168 14.306-31.2 19.342 12.032 4.792 22.42 11.088 31.2 18.992 8.744 7.904 15.984 16.754 21.616 26.688 5.632 9.864 9.758 20.776 12.382 32.704 2.624 11.892 3.952 24.484 3.952 37.776v85.59c0 17.034 1.644 33.124 4.896 48.304s8.57 29.066 15.984 41.692 16.894 23.68 28.542 33.054 25.744 16.754 42.252 22l-9.758 29.696c-24.274-7.276-44.596-16.754-60.86-28.402-16.3-11.648-29.31-25.008-39.104-40.188s-16.72-31.69-20.846-49.598-6.19-36.762-6.19-56.558v-85.624c0-14.796-1.644-28.086-4.896-39.874s-8.394-21.896-15.39-30.43c-7.030-8.5-16.020-15.040-27.038-19.552s-24.17-6.75-39.454-6.75v-39.070c15.286 0 28.436-2.308 39.454-6.926 11.018-4.652 20.042-11.158 27.038-19.552s12.138-18.608 15.39-30.64c3.252-12.032 4.896-25.428 4.896-40.188v-84.924c0-19.552 2.064-38.266 6.19-56.174s11.088-34.312 20.846-49.214 22.77-28.192 39.070-39.84c16.264-11.648 36.586-21.126 60.86-28.366l10.912 30.046c-16.544 5.492-30.676 12.836-42.462 21.966-11.788 9.164-21.406 19.938-28.926 32.32zM841.136 482.522c-10.982 4.512-20.008 11.018-27.038 19.552-6.996 8.534-12.172 18.642-15.356 30.43-3.288 11.788-4.932 25.078-4.932 39.874v85.624c0 19.798-2.064 38.65-6.226 56.558-4.092 17.908-11.052 34.418-20.846 49.598s-22.806 28.542-39.070 40.188-36.552 21.126-60.86 28.402l-9.758-29.696c16.79-5.246 31.024-12.592 42.638-22 11.682-9.408 21.126-20.426 28.436-33.054 7.24-12.626 12.486-26.548 15.774-41.692 3.218-15.18 4.862-31.27 4.862-48.304v-85.624c0-13.572 1.364-26.408 4.162-38.544 2.728-12.172 7.030-23.224 12.906-33.264 5.912-10.004 13.432-18.852 22.56-26.478 9.164-7.66 20.146-13.746 32.914-18.224-12.766-4.512-23.784-10.668-32.914-18.398-9.13-7.764-16.65-16.684-22.56-26.688-5.876-10.004-10.178-21.056-12.906-33.054-2.798-12.032-4.162-24.798-4.162-38.336v-84.924c0-17.034-1.714-33.054-5.072-48.094-3.428-15.040-8.814-28.752-16.334-41.168-7.556-12.382-17.208-23.154-28.962-32.32-11.752-9.13-25.884-16.474-42.462-21.966l10.912-30.046c24.31 7.24 44.596 16.72 60.86 28.366s29.31 24.938 39.070 39.84 16.754 31.34 20.846 49.214c4.162 17.944 6.226 36.656 6.226 56.174v84.924c0 14.796 1.644 28.192 4.932 40.188 3.218 12.032 8.36 22.246 15.356 30.64 7.030 8.36 16.054 14.9 27.038 19.552 11.018 4.618 24.17 6.926 39.49 6.926v39.070c-15.32 0-28.472 2.238-39.524 6.75zM621.164 545.832c-9.758 5.876-54.25 30.5-91.326 52.466-10.774 6.4-24.24 6.156-34.978 0-29.45-16.754-75.166-44.316-88.738-52.466-8.85-5.282-25.918-11.752-25.918-26.232v-124.624c0-14.48 10.214-21.756 25.918-31.444 15.53-9.584 47.080-26.582 88.738-52.466 11.892-7.416 22.49-6.856 34.978 0 20.986 11.438 76.95 44.212 91.326 52.466 14.97 8.604 21.336 11.752 21.336 26.232v129.87c0 14.446-12.592 20.952-21.336 26.198z" />
<glyph unicode="&#xe646;" glyph-name="backfired" d="M296.68 165.244c-7.52 12.382-12.976 26.092-16.334 41.134s-5.072 31.094-5.072 48.094v84.96c0 13.012-1.33 25.534-3.952 37.566s-6.75 23.050-12.382 33.054-12.836 18.958-21.616 26.862c-8.78 7.904-19.168 14.34-31.2 19.378 12.032 4.756 22.42 11.052 31.2 18.992 8.744 7.87 15.984 16.754 21.616 26.652s9.758 20.812 12.382 32.738c2.624 11.892 3.952 24.45 3.952 37.74v85.624c0 17.034 1.644 33.124 4.896 48.304 3.252 15.146 8.57 29.032 15.984 41.692 7.38 12.626 16.894 23.68 28.542 33.054s25.744 16.754 42.252 22l-9.758 29.66c-24.274-7.24-44.596-16.72-60.86-28.366-16.3-11.648-29.31-25.044-39.104-40.188-9.758-15.18-16.72-31.69-20.846-49.632-4.128-17.908-6.19-36.76-6.19-56.524v-85.66c0-14.796-1.644-28.052-4.896-39.838s-8.394-21.93-15.39-30.43c-7.030-8.534-16.020-15.040-27.038-19.552s-24.17-6.75-39.454-6.75v-39.070c15.286 0 28.436-2.308 39.454-6.96s20.042-11.122 27.038-19.552c6.996-8.394 12.138-18.572 15.39-30.606s4.896-25.428 4.896-40.188v-84.96c0-19.552 2.064-38.266 6.19-56.138s11.088-34.312 20.846-49.212 22.77-28.192 39.070-39.838c16.264-11.648 36.586-21.126 60.86-28.402l10.912 30.046c-16.544 5.526-30.674 12.836-42.462 22s-21.406 19.936-28.926 32.318zM841.136 482.558c-10.982 4.512-20.006 10.982-27.038 19.552-7.030 8.5-12.172 18.642-15.354 30.43-3.288 11.788-4.932 25.044-4.932 39.838v85.66c0 19.762-2.064 38.614-6.226 56.524-4.092 17.944-11.052 34.452-20.846 49.632-9.758 15.146-22.806 28.542-39.070 40.188s-36.552 21.126-60.86 28.366l-9.758-29.66c16.79-5.246 31.024-12.592 42.638-22 11.682-9.408 21.126-20.426 28.436-33.054 7.24-12.662 12.486-26.582 15.774-41.692 3.218-15.18 4.862-31.27 4.862-48.304v-85.66c0-13.536 1.364-26.372 4.162-38.51 2.728-12.172 7.030-23.26 12.906-33.264 5.876-10.038 13.396-18.852 22.56-26.512s20.146-13.712 32.914-18.224c-12.766-4.512-23.784-10.668-32.914-18.398-9.164-7.8-16.684-16.684-22.56-26.688-5.876-10.038-10.178-21.056-12.906-33.054-2.798-12.032-4.162-24.834-4.162-38.334v-84.96c0-16.998-1.714-33.054-5.072-48.094-3.428-15.040-8.814-28.716-16.334-41.134-7.59-12.382-17.208-23.154-28.962-32.318s-25.884-16.474-42.498-22l10.948-30.046c24.31 7.276 44.596 16.754 60.86 28.402s29.31 24.938 39.070 39.838 16.754 31.34 20.846 49.212c4.162 17.908 6.226 36.622 6.226 56.138v84.96c0 14.796 1.644 28.192 4.932 40.188 3.218 12.032 8.324 22.21 15.354 30.606s16.054 14.9 27.038 19.552 24.17 6.96 39.49 6.96v39.070c-15.32 0.034-28.506 2.274-39.524 6.786zM617.352 433.66c-1.644 0-2.204-1.12-1.644-3.358 0.49-2.134 0.42-4.722-0.28-7.73-1.294-5.702-6.61-13.362-15.844-22.98-5.456-5.666-15.914-15.39-31.304-29.206-2.308 23.504-3.812 37.286-4.582 41.518-0.49 3.112-1.644 4.686-3.498 4.686-0.734 0-2.658-0.734-5.806-2.168-4.162-1.958-10.738-5.876-19.622-11.718-1.784-1.26-2.728-2.448-2.938-3.638-0.21-1.084 0.35-1.608 1.644-1.608 0.874 0 1.924 0.35 3.078 1.050 2.798 1.888 4.862 2.798 6.156 2.798s2.588-1.084 3.812-3.358c2.728-5.106 4.932-18.712 6.506-40.678-18.364-15.32-34.348-30.22-47.814-44.84-14.69-15.844-22.77-27.388-24.17-34.698-0.944-5.072-0.874-9.234 0.174-12.522 0.664-2.204 2.484-5.596 5.492-10.144 0.84-1.224 1.714-1.854 2.658-1.854 2.344 0 2.798 1.574 1.364 4.792-1.154 2.764-1.26 6.576-0.244 11.472 3.848 17.174 25.114 43.406 63.764 78.734 0.944-13.956 2.378-25.848 4.372-35.746 1.294-6.506 4.372-9.444 9.374-8.814 4.372 0.664 11.192 5.386 20.286 14.27 0.734 0.804 1.154 1.608 1.294 2.414 0.28 1.608-0.42 2.378-2.064 2.378-0.874 0-1.924-0.35-2.868-1.050-3.672-2.484-6.226-3.742-7.52-3.742-2.064 0-3.638 1.924-4.582 5.736-2.134 14.62-3.428 26.512-3.952 35.782 1.924 2.134 9.548 8.71 22.876 19.728 13.92 11.472 22.806 19.308 26.862 23.504 3.882 3.882 6.156 7.73 6.75 11.438 0.734 4.372-1.294 10.458-6.086 18.258-0.49 0.874-1.050 1.294-1.644 1.294zM527.774 539.396h-47.498c0 4.372 0.384 8.534 1.050 12.556 2.588 15.146 8.85 27.632 18.748 37.496 9.898 9.898 21.162 14.83 33.788 14.83 7.24 0 14.83-1.504 22.736-4.512l16.928 31.444c-13.046 4.478-25.534 6.716-37.636 6.716-24.1 0-45.016-8.744-62.68-26.268s-29.136-41.588-34.348-72.298h-34.032l-6.156-35.922h34.032l-35.048-204.546h41.448l35.012 204.546h47.498l6.156 35.956z" />
<glyph unicode="&#xe647;" glyph-name="check2" d="M845.92 647.744c-12.512 12.512-32.736 12.512-45.248 0l-362.080-362.048-214.976 214.976c-12.512 12.512-32.768 12.512-45.248 0-12.512-12.512-12.512-32.768 0-45.28l237.6-237.568c12.512-12.512 32.736-12.512 45.248 0l384.672 384.672c12.512 12.48 12.512 32.768 0.032 45.248z" />
<glyph unicode="&#xe648;" glyph-name="documentation2" d="M808 215.904l-295.104-103.904-296.896 103.904v478.048l296.896-104.032 230.368 194.080v-113.536l64.736 23.456v-478.016zM703.616 696.128l-87.68-69.92 87.68 31.424v38.496zM768.448 639.328l-255.552-93.376v-391.872l255.552 89.728v395.52z" />
<glyph unicode="&#xe649;" glyph-name="file" d="M512 790.358h-264v-656h528v395.104l-264 260.896zM730.752 179.095h-437.504v566.56h196.128v-238.56h241.376v-328zM408 406.359h208v-32h-208v32zM408 310.359h208v-32h-208v32z" />
<glyph unicode="&#xe64a;" glyph-name="critical-violation" d="M599.328 735.2h-307.264l-99.936-361.76h128.832l-81.12-298.432 22.4-11.808v0.032l393.888 454.912h-175.168l118.368 217.056zM568.704 481.984l-279.264-330.688 79.584 258.080h-3.552l0.064 0.256h-122.4l77.28 289.376h215.808l-116.672-217.024h149.152zM832.16 711.168c0-48.601-39.399-88-88-88s-88 39.399-88 88c0 48.601 39.399 88 88 88s88-39.399 88-88z" />
<glyph unicode="&#xe64b;" glyph-name="cyclomatic" d="M832 378.88v260.096h-161.632l-142.4 142.4-142.4-142.4h-161.6v-260.096c-57.056-8-101.152-57.12-101.152-117.12 0-65.632 52.448-118.816 117.152-118.816 64.672 0 117.152 53.184 117.152 118.816 0 60-44.096 109.12-101.152 117.12v228.096h129.6l142.4-142.4 142.4 142.4h129.632v-228.096c-57.056-8-101.152-57.12-101.152-117.12 0-65.632 52.48-118.816 117.184-118.816 64.672 0 117.152 53.184 117.152 118.816 0 60.032-44.128 109.152-101.184 117.12z" />
<glyph unicode="&#xe64c;" glyph-name="violation2" d="M599.2 735.2h-307.264l-99.936-361.76h128.832l-81.12-298.432 22.4-11.808v0.032l393.888 454.912h-175.2l118.4 217.056zM568.608 481.984l-279.296-330.688 79.584 258.080h-3.552l0.064 0.256h-122.4l77.28 289.376h215.808l-116.672-217.024h149.184z" />
<glyph unicode="&#xe64d;" glyph-name="health-factor" d="M720.576 801.536h-417.152l-247.456-246.016 456.032-493.088 456.032 493.088-247.456 246.016zM112.992 555.52l207.648 206.016h382.72l209.696-206.016-401.056-432.16-399.008 432.16zM540.512 659.52h-52.96v-124h-126.208v-52h126.208v-124.032h52.96v124.032h126.24v52h-126.24z" />
<glyph unicode="&#xe64e;" glyph-name="notification" d="M360.672 632.48h288v-32h-288v32zM360.672 536.48h288v-32h-288v32zM184.672 808.512v-510.432h411.808l242.816-242.56v752.992h-654.624zM794.688 159.36l-184.416 184.224-380.96-0.384v420.16h565.376v-604z" />
<glyph unicode="&#xe64f;" glyph-name="object" d="M766.496 654.816c-22.624 13.248-125.76 68.928-211.68 118.624-24.992 14.4-56.16 13.856-81.12 0-68.192-37.952-174.176-100.224-205.664-118.624-20.512-12-60.032-26.56-60.032-59.296v-281.664c0-32.768 23.616-49.216 60.064-71.168 36-21.696 109.152-60.064 205.664-118.624 27.552-16.704 52.128-15.424 81.12 0 48.576 25.952 178.368 99.936 211.68 118.624 34.752 19.488 49.504 26.528 49.504 59.296v293.536c-0.032 32.736-29.28 47.424-49.536 59.296zM479.776 726.944c20.992 11.872 47.264 12.352 68.224 0 72.448-42.592 159.264-90.336 178.304-101.664 5.76-3.424 12.384-7.232 18.688-11.744l-232.992-134.528-229.696 132.608c8.576 5.376 17.568 9.696 24.224 13.632 26.56 15.808 115.776 69.184 173.248 101.696zM306.56 272c-30.688 18.816-50.56 32.928-50.56 60.992v241.44c0 5.056 1.344 9.44 3.232 13.568l236.768-136.704v-288.512c-5.344 1.696-10.688 4.128-16.224 7.52-81.312 50.272-142.88 83.104-173.216 101.696zM768 322.848c0-28.096-12.448-34.112-41.696-50.848-28-16-137.376-79.392-178.304-101.664-6.944-3.776-13.504-6.24-20-8v288.96l237.44 137.088c1.504-4.224 2.56-8.736 2.56-13.952v-251.584z" />
<glyph unicode="&#xe650;" glyph-name="robustness2" d="M192 768v-433.888l320.16-206.112 319.84 205.984v434.016h-640zM788 357.984l-276-177.984v544h276v-366.016z" />
<glyph unicode="&#xe651;" glyph-name="risk-mapping" d="M176 720v-544h704v544h-704zM576 221.312h-355.072v453.376h355.072v-453.376zM835.072 221.312h-227.072v290.688h227.072v-290.688zM835.072 544h-227.072v130.688h227.072v-130.688z" />
<glyph unicode="&#xe652;" glyph-name="ratio-formula" d="M160 768.032h256v-256h-256v256zM160 383.936h256.032v-256h-256.032v256zM545.12 768v-640h318.88v640h-318.88zM829.536 163.2h-249.952v569.6h249.952v-569.6zM640.032 512h128v-32h-128v32zM640.032 448h128v-32h-128v32z" />
<glyph unicode="&#xe653;" glyph-name="programming-practises" d="M288.742 167.014c-7.52 12.382-12.976 26.128-16.334 41.168s-5.072 31.060-5.072 48.094v84.924c0 13.012-1.33 25.534-3.952 37.566s-6.75 23.050-12.382 33.054c-5.632 10.038-12.836 18.958-21.616 26.862s-19.168 14.34-31.2 19.378c12.032 4.756 22.42 11.088 31.2 18.958 8.744 7.87 15.984 16.754 21.616 26.688 5.632 9.898 9.758 20.776 12.382 32.704 2.624 11.892 3.952 24.484 3.952 37.776v85.624c0 17.034 1.644 33.124 4.896 48.268 3.218 15.18 8.57 29.1 15.95 41.728 7.38 12.662 16.894 23.68 28.542 33.054s25.744 16.72 42.252 22l-9.758 29.696c-24.274-7.276-44.596-16.72-60.86-28.366-16.3-11.648-29.31-25.044-39.070-40.224-9.758-15.146-16.72-31.69-20.846-49.598s-6.19-36.76-6.19-56.558v-85.658c0-14.796-1.644-28.052-4.896-39.838s-8.394-21.93-15.39-30.43c-7.030-8.534-16.054-15.040-27.038-19.552-11.018-4.512-24.17-6.786-39.454-6.786v-39.070c15.284 0 28.436-2.308 39.454-6.96 10.982-4.616 20.042-11.122 27.038-19.552 6.996-8.36 12.138-18.572 15.39-30.604s4.896-25.428 4.896-40.188v-84.924c0-19.552 2.064-38.264 6.19-56.174s11.088-34.278 20.882-49.212c9.758-14.9 22.77-28.192 39.070-39.838 16.264-11.648 36.586-21.092 60.86-28.402l10.912 30.046c-16.544 5.526-30.674 12.836-42.462 22s-21.44 19.972-28.96 32.354zM833.228 484.36c-11.018 4.478-20.042 11.018-27.038 19.552-7.030 8.5-12.172 18.642-15.39 30.43-3.288 11.752-4.896 25.044-4.896 39.838v85.624c0 19.796-2.098 38.614-6.226 56.558s-11.052 34.452-20.846 49.598c-9.758 15.18-22.806 28.542-39.070 40.224-16.3 11.648-36.586 21.092-60.86 28.366l-9.794-29.696c16.754-5.282 30.99-12.592 42.636-22s21.126-20.392 28.366-33.054c7.276-12.626 12.522-26.548 15.81-41.692 3.252-15.146 4.896-31.27 4.896-48.268v-85.658c0-13.536 1.364-26.372 4.092-38.51 2.764-12.172 7.1-23.26 12.976-33.264 5.876-10.038 13.396-18.852 22.56-26.478 9.164-7.66 20.112-13.71 32.878-18.224-12.766-4.512-23.75-10.668-32.878-18.432-9.164-7.764-16.684-16.65-22.56-26.688-5.876-10.004-10.214-21.056-12.976-33.054-2.728-12.032-4.092-24.798-4.092-38.334v-84.924c0-17.034-1.714-33.054-5.106-48.094s-8.814-28.752-16.334-41.168c-7.556-12.382-17.174-23.154-28.926-32.318-11.788-9.164-25.952-16.474-42.498-22l10.948-30.046c24.274 7.31 44.56 16.754 60.86 28.402 16.264 11.648 29.31 24.938 39.070 39.838 9.758 14.936 16.72 31.34 20.846 49.212 4.128 17.944 6.226 36.656 6.226 56.174v84.924c0 14.796 1.608 28.192 4.896 40.188 3.252 12.032 8.36 22.246 15.39 30.604 6.996 8.43 16.020 14.936 27.038 19.552 10.982 4.652 24.17 6.96 39.454 6.96v39.070c-15.284 0-28.472 2.274-39.454 6.786zM682.058 565.332c-6.4 6.33-16.72 6.33-23.084 0l-184.714-183.56-109.688 108.988c-6.366 6.33-16.72 6.33-23.084 0-6.366-6.366-6.366-16.614 0-22.944l121.23-120.426c6.4-6.33 16.72-6.33 23.084 0l196.256 194.996c6.4 6.33 6.4 16.614 0 22.944z" />
<glyph unicode="&#xe654;" glyph-name="sei-maintenance" d="M858.208 618.368l-133.568-133.504-129.856 45.344-46.688 133.92 130.624 131.072c-73.856 15.168-153.6-5.888-210.88-63.392-57.312-57.504-78.272-137.568-63.168-211.712l-244.608-245.536 177.824-178.496 242.944 243.872c75.072-16.96 156.832 3.648 215.296 62.304 58.432 58.656 78.976 140.768 62.080 216.128zM337.856 170.176l-103.968 104.352 189.632 190.336c10.976-22.592 25.6-43.84 44.32-62.624 17.664-17.76 37.504-31.904 58.656-42.72l-188.64-189.344z" />
<glyph unicode="&#xe655;" glyph-name="security2" d="M522.112 546.016c-6.848 1.92-13.856 2.88-20.832 2.88-23.68 0-45.376-11.008-59.616-30.208-11.296-15.232-16.896-33.888-17.216-57.024l-0.096-20.512c-0.032-20.768-0.096-41.6-1.76-62.272-3.008-37.504-17.28-70.56-42.336-98.208-19.616-21.696-44.48-38.048-78.208-51.52-6.144-2.432-10.944-6.944-13.472-12.704s-2.688-12.32-0.48-18.464c3.36-9.408 11.712-15.488 21.28-15.488 2.976 0 5.984 0.608 8.928 1.76 8.128 3.136 16.288 6.624 24.16 10.496 61.952 31.296 100.768 77.28 118.72 140.736 7.392 26.176 10.592 55.616 9.472 87.648 0 0-0.064 33.76 0.064 41.888 0.032 4.224 0.672 8.448 1.696 12.288 3.936 14.016 14.848 23.136 31.488 23.136 0.224 0 0.448 0 0.672 0 16.832-2.112 28.512-14.784 29.056-31.424l0.224-6.016c0.832-23.296 1.696-46.624 2.112-69.888 0.288-14.944 9.568-25.76 23.488-26.24 5.984 0 11.808 2.624 16.096 7.136 4.256 4.544 6.56 10.496 6.528 16.864-0.448 30.624-0.992 60.608-3.712 89.984-2.656 29.44-26.304 56.864-56.256 65.152zM539.712 313.184v0c-10.592-0.384-18.432-7.552-21.568-19.744-13.344-52.128-36.672-100.256-69.344-143.136-9.088-11.936-8.096-26.432 2.464-35.296 4.224-3.584 9.12-5.472 14.176-5.472 7.2 0 14.048 3.712 19.232 10.56 33.984 44.448 58.848 93.824 73.984 146.688 1.344 4.736 2.56 9.568 3.68 14.080l1.376 10.368c-0.352 2.016-0.544 3.648-0.992 5.28-3.232 10.496-11.52 16.672-23.008 16.672zM326.944 329.312c17.696 22.912 20.864 50.88 21.664 72.672v5.792c-0.096 13.216-9.024 23.232-23.392 24.416-10.848 0-20.32-8.768-22.080-20.416-0.576-4.032-0.64-8.16-0.736-12.288l-0.16-5.856c-0.96-23.68-11.264-40.352-30.592-49.536-4.576-2.176-9.216-4.288-13.92-5.824 0 0-29.536-9.472-35.616-11.488-12.672-4.32-19.136-16.864-15.36-29.92 2.912-10.272 11.68-17.152 21.76-17.152h0.032c2.048 0 4.128 0.288 6.208 0.864 12.512 3.488 25.024 7.328 37.248 11.744 24.992 9.12 42.432 20.864 54.944 36.992zM687.904 469.024c-1.344 65.44-27.84 118.496-78.592 157.696-33.184 25.632-71.2 38.624-112.992 38.624-6.976 0-14.016-0.352-21.184-1.088-16.576-1.6-35.072-6.56-52.096-13.824-23.2-10.592-52-32.288-71.616-53.792l-4.256-4.992c-23.552-29.536-38.016-63.776-42.944-101.728-1.952-15.264 6.080-26.976 23.136-29.44 11.232 0 20.832 9.44 22.336 21.952 3.936 32.544 17.376 61.76 40.128 87.072 11.872 13.28 25.952 24.032 41.824 32.032 21.28 10.592 42.816 15.968 64.096 15.968 13.216 0 26.528-2.080 39.52-6.208 59.648-18.912 94.944-60.032 104.768-122.176 2.176-13.824 2.56-28.032 2.944-41.792 0.128-6.144 0.32-12.288 0.64-18.624 0.64-62.112-4.448-109.376-17.536-163.136-8-32.832-19.52-64.928-35.264-98.144-5.344-11.328-3.040-23.584 5.696-30.592 4.416-3.52 9.344-5.376 14.272-5.376 8.896 0 17.024 5.92 21.728 15.872 35.424 74.368 54.4 158.016 56.416 248.64 0.448 18.016-0.064 36-0.576 54.048l-0.448 19.008zM799.808 431.488l-0.288 17.344c-0.672 27.424-1.312 55.808-7.136 83.104-15.712 74.624-52.64 136-109.792 182.464-54.976 44.608-117.344 67.2-185.408 67.2-10.4 0-20.928-0.512-31.616-1.536-47.296-4.608-92.736-21.696-135.136-50.752-26.176-17.952-54.528-45.824-77.696-76.32-8.288-12.224-28.736-43.424-38.944-68.48-22.56-58.944-22.976-122.496-20.8-171.264 0.48-11.232 10.336-20 22.432-20 12.768 0 22.56 10.016 22.752 23.328 0.128 11.072 0.224 22.080 0 33.12-0.896 41.6 4.768 78.976 17.344 114.496 7.808 20.224 19.68 40.608 37.504 64.352l5.824 6.784c9.728 11.392 19.808 23.2 31.168 33.216 48.96 43.072 104.224 64.928 164.128 64.928 13.984 0 28.416-1.216 42.912-3.584 57.696-9.44 107.424-37.28 147.84-82.752 37.472-42.272 59.552-91.84 65.696-147.328 2.016-18.112 2.528-36.48 3.072-54.752l0.224-7.968c1.76-51.072-1.376-100.896-9.28-148l-0.736-4.32c-0.96-5.504-1.888-10.72-1.504-15.584 1.056-12.384 10.304-21.12 22.464-21.344h0.32c11.904 0 20.704 8.32 23.040 21.728 9.12 52.288 13.056 105.632 11.616 161.92z" />
<glyph unicode="&#xe656;" glyph-name="rule-complience" d="M899.552 779.648c-5.856 5.792-15.328 5.792-21.12 0l-168.992-167.904-100.352 99.68c-5.856 5.792-15.296 5.792-21.12 0-5.856-5.824-5.856-15.2 0-20.992l110.912-110.176c5.824-5.792 15.296-5.792 21.12 0l179.552 178.4c5.824 5.792 5.824 15.168 0 20.992zM200.064 544h384v-32h-384v32zM200.064 416h384v-32h-384v32zM200.064 288h384v-32h-384v32z" />
<glyph unicode="&#xe800;" glyph-name="transferability2" d="M544 736v-560.032h40.128v464.16l225.248-223.968v56.384zM439.904 271.84l-225.248 224.032v-56.448l265.344-263.456v560.032h-40.096z" />
<glyph unicode="&#xe801;" glyph-name="top5-rules" d="M320 608h384v-32h-384v32zM320 480h384v-32h-384v32zM320 352h384v-32h-384v32z" />
<glyph unicode="&#xe802;" glyph-name="top5-riskiest" d="M552.087 332.139l9.514 407.477h-101.573l9.108-407.477zM562.99 228.196c-2.505 6.365-6.094 11.918-10.699 16.658s-10.327 8.464-17.064 11.105-14.491 3.961-23.226 3.961-16.455-1.32-23.226-3.961-12.426-6.331-17.030-11.105-8.194-10.327-10.699-16.658-3.758-13.238-3.758-20.619c0-14.559 4.774-26.714 14.288-36.499s23.023-14.694 40.46-14.694 30.946 4.909 40.46 14.694 14.288 21.94 14.288 36.499c-0.034 7.381-1.287 14.254-3.792 20.619z" />
<glyph unicode="&#xe803;" glyph-name="technical-debt" d="M624.36 273.92c-5.171-11.988-12.727-22.499-22.7-31.364-9.973-8.932-22.163-15.951-36.468-21.122s-30.592-7.723-48.893-7.723c-14.44 0-29.013 1.847-43.822 5.574s-28.14 10.242-40.028 19.477-21.659 21.592-29.215 37.005c-7.589 15.346-11.384 34.756-11.384 58.060h-43.285c0-27.872 4.265-51.546 12.794-71.022s19.913-35.427 34.084-47.818c14.204-12.391 30.424-21.659 48.691-27.737 18.268-6.179 37.039-9.839 56.28-11.014v-68.201h36.435v68.537c20.954 1.713 39.893 5.977 57.019 12.861 17.059 6.817 31.666 16.085 43.822 27.737s21.458 25.588 27.939 41.64c6.481 16.119 9.772 34.285 9.772 54.501 0 21.391-3.425 39.927-10.108 55.542-6.75 15.615-16.454 29.248-29.047 40.934-12.66 11.686-28.006 21.827-46.173 30.491s-38.55 16.723-61.183 24.178c-23.775 7.925-43.386 15.917-58.765 23.976s-27.536 16.589-36.435 25.622c-8.899 9.033-15.010 18.771-18.402 29.215-3.358 10.477-5.037 22.297-5.037 35.528 0 13.466 2.149 26.159 6.481 38.046s10.947 22.364 19.846 31.398c8.899 9.033 20.215 16.119 33.916 21.29s29.819 7.757 48.322 7.757c17.831 0 33.58-3.056 47.281-9.201s25.185-14.708 34.42-25.79 16.253-24.111 20.92-39.155c4.735-15.044 7.085-31.465 7.085-49.229h42.882c0 24.279-3.022 46.005-9 65.112-6.044 19.107-14.742 35.461-26.159 49.061s-25.387 24.346-41.841 32.271-35.159 12.861-56.113 14.809v72.869h-36.804v-72.869c-20.685-1.679-39.255-6.078-55.71-13.197-16.488-7.085-30.558-16.521-42.21-28.308-11.686-11.787-20.618-25.722-26.898-41.841s-9.369-34.017-9.369-53.762c0-21.659 3.392-40.363 10.108-56.079 6.716-15.749 16.488-29.517 29.215-41.304 12.76-11.787 28.207-21.995 46.374-30.692 18.167-8.664 38.651-16.589 61.485-23.808 22.163-7.69 40.699-15.413 55.743-23.204s27.166-16.253 36.267-25.252c9.1-9.067 15.682-18.839 19.678-29.45 3.929-10.544 5.977-22.499 5.977-35.696 0-13.701-2.619-26.562-7.791-38.651z" />
<glyph unicode="&#xe804;" glyph-name="size" d="M472 672c0-70.692-57.308-128-128-128s-128 57.308-128 128c0 70.692 57.308 128 128 128s128-57.308 128-128zM616 448c-106.048 0-192-85.952-192-192s85.984-192 192-192c106.048 0 192 85.952 192 192s-85.952 192-192 192zM616 112c-79.488 0-144 64.448-144 144 0 79.488 64.512 144 144 144 79.552 0 144-64.512 144-144 0-79.552-64.448-144-144-144z" />
<glyph unicode="&#xe805;" glyph-name="trends" d="M825.024 428.864l-150.080 226.976c-2.336 3.072-5.344 5.568-8.736 7.744-0.608 0.416-1.088 1.024-1.664 1.344-0.352 0.192-0.576 0.544-0.896 0.704-2.080 1.056-4.32 1.216-6.496 1.792-1.824 0.512-3.52 1.28-5.408 1.472-2.048 0.192-4-0.192-6.016-0.352-2.4-0.192-4.736-0.224-7.136-0.896-1.44-0.448-2.656-1.344-4.032-1.984-2.304-1.056-4.736-1.728-6.88-3.36-0.352-0.256-0.512-0.672-0.832-0.96-0.384-0.32-0.64-0.8-0.992-1.152-3.104-2.816-5.664-5.952-7.456-9.536l-178.624-365.184-47.84 158.144c-1.344 4.288-3.52 8.032-6.208 11.296-2.848 5.088-6.56 9.728-11.968 12.832-16.128 9.312-36.704 3.776-46.016-12.352l-75.776-122.496c-9.312-16.16-3.776-36.8 12.32-46.112s36.704-3.776 46.016 12.384l36.896 59.648 52.96-175.232c2.592-8.48 8.384-15.936 16.896-20.256 1.92-0.96 3.968-1.056 5.952-1.632 2.176-0.672 4.256-1.632 6.56-1.824 2.816-0.224 5.504 0.416 8.256 0.864 1.568 0.256 3.136 0 4.672 0.512 0.064 0.032 0.128 0.096 0.224 0.128 1.024 0.352 1.856 1.12 2.816 1.568 7.456 3.264 13.44 8.608 16.864 15.52l190.336 389.152 118.848-179.84c11.328-14.752 32.448-17.632 47.232-6.304 14.752 11.392 17.536 32.576 6.208 47.392z" />
<glyph unicode="&#xe806;" glyph-name="changeability2" d="M643 336.168v53.83l0.164 1.704 0.89 7.378c0.808 7.378 5.554 12.036 14.188 14.024v12.604c-10.174 2.146-15.242 11.026-15.242 26.59v54.436c0 30.156-9.972 45.196-29.916 45.196h-52.978v-16.902h14.062c9.77 0 15.766-0.934 17.994-2.758 2.228-1.862 3.364-6.728 3.364-14.592v-56.26c0-18.442 6.324-31.898 19.048-40.248-12.686-9.284-19.048-22.696-19.048-40.292v-56.784c0-10.338-2.96-15.93-8.874-16.738l-4.134-0.322h-22.62v-17.388h47.506c23.712-0.038 35.59 15.482 35.59 46.534zM454.932 460.73v56.746c0 10.338 2.96 15.93 8.874 16.782l4.134 0.284h22.74v17.388h-47.626c-23.674 0-35.546-15.526-35.546-46.572v-53.83l-0.164-1.704-0.89-7.378c-0.808-7.378-5.51-12.036-14.062-13.986v-12.604c10.092-2.19 15.116-11.026 15.116-26.59v-54.474c0-30.118 9.972-45.196 29.916-45.196l52.934-0.164v16.94h-14.024c-9.77 0-15.766 0.89-17.994 2.758-2.272 1.824-3.364 6.69-3.364 14.554v56.462c0 18.36-6.362 31.778-19.092 40.292 12.686 9.24 19.048 22.658 19.048 40.292zM175.86 424.25c0 156.334 101.254 288.962 241.538 335.452v-78.552l0.606-0.606 116.774 116.572-116.774 116.572-0.606-0.606v-81.064c-178.954-48.68-310.566-212.796-310.566-407.8 0-25.416 2.228-50.22 6.488-74.38l70.366-0.082c-5.15 24.034-7.82 48.926-7.82 74.5zM897.792 222.392c32.548 59.99 51.072 128.734 51.072 201.852 0 205.702-146.444 377.038-340.476 414.736v-70.814c155.608-36.518 271.492-176.644 271.492-343.922 0-53.786-11.998-104.738-33.4-150.338l-55.452 55.654h-0.852v-168.534h167.966v0.852l-60.356 60.514zM527.848 70.924c-119.286 0-224.712 59.624-288.35 150.742l60.596 60.842v0.852h-167.966v-168.578h0.852l57.068 57.276c76.728-103.4 199.422-170.402 337.762-170.402 84.226 0 162.74 24.848 228.568 67.652l-50.182 50.302c-52.29-30.888-113.252-48.68-178.342-48.68z" />
<glyph unicode="&#xe807;" glyph-name="tiles" d="M256 480h256v256h-256v-256zM288 704h192v-192h-192v192zM544 736v-256h256v256h-256zM768 512h-192v192h192v-192zM256 192h256v256h-256v-256zM288 416h192v-192h-192v192zM544 192h256v256h-256v-256zM576 416h192v-192h-192v192z" />
<glyph unicode="&#xe808;" glyph-name="goto-aed" d="M704.32 580.928c-17.728-39.712-45.856-57.568-87.2-54.624 1.248-2.72 1.664-4.032 2.336-5.152 22.464-36.16 33.76-74.88 28.8-117.92-4.064-35.392-19.744-63.296-50.048-82.208-25.952-16.192-54.784-22.4-85.088-22.976-19.616-0.352-25.856-6.528-25.888-25.856-0.032-40.032-0.128-80.096 0.064-120.128 0.032-6.976-1.024-10.784-9.536-11.136-32.352-1.472-62.656-10.944-91.008-26.272-11.424-6.176-21.952-13.888-27.744-26.336-8.992-19.456-3.104-28.352 18.208-28.288 78.272 0.16 156.576 0.096 234.848 0.064 35.136 0 70.24-0.096 105.344-0.032 11.392 0 17.408 5.344 14.56 16.288-2.528 9.632-7.232 20.8-14.656 26.56-13.344 10.304-28.672 19.424-44.608 24.8-22.592 7.648-44.096 11.328-71.968 13.856 0 16.32 0.896 38.656 0.096 57.472-0.384 8.8 2.848 11.712 10.784 14.272 60.608 19.808 104.416 58.464 125.824 119.136 24.064 67.968 20.192 135.68-8.224 201.792-6.656 15.456-15.776 29.76-24.896 46.688zM760.16 778.048c-35.552 28-71.040 56.16-106.624 84.128-11.008 8.64-16.608 7.584-25.44-3.616-40.256-50.912-80.576-101.76-120.832-152.64-27.648-34.944-55.328-69.888-82.976-104.832-6.72-8.544-6.048-15.68 2.144-22.784 5.056-4.352 10.4-8.352 15.616-12.48 30.528-24.192 61.088-48.32 91.552-72.576 6.72-5.344 14.56-8.352 20.672-1.504 12.512 14.016 23.648 29.184 35.328 43.904-48.96 36.096-45.568 86.016-22.848 114.752 28.032 35.424 78.528 45.248 119.264 6.912 26.56 33.728 52.768 66.656 78.528 99.872 6.144 7.904 3.040 15.008-4.384 20.864zM416.256 300.32c9.024-7.072 19.136-8.896 29.344-3.328 8.16 4.48 13.248 12.576 12.608 23.488-0.672 10.944-10.88 19.488-10.88 19.488-48.832 39.424-98.112 78.24-147.392 117.088-13.472 10.592-28.96 9.408-38.336-2.272-9.28-11.616-6.432-26.56 7.232-37.44 33.184-26.432 66.4-52.832 99.616-79.264 15.872-12.608 31.776-25.248 47.808-37.76zM677.28 603.904c-0.032 28.064-21.056 48.768-49.44 48.672-26.528-0.096-47.488-21.568-47.36-48.512 0.128-28.032 20.352-48.256 48.48-48.576 27.52-0.32 48.352 20.576 48.32 48.416zM456.32 451.744c17.344 5.056 33.792 13.056 52.928 20.672-32.672 25.856-63.328 50.080-94.176 74.464-1.184-1.728-2.208-2.496-2.336-3.424-2.432-15.872-5.024-31.744-7.040-47.648-3.872-30.944 20.64-52.832 50.624-44.064z" />
<glyph unicode="&#xe809;" glyph-name="critical-violation-full" d="M599.2 735.2h-307.264l-99.936-361.76h128.832l-81.12-298.432 22.4-11.808v0.064l393.888 454.88h-175.2l118.4 217.056zM832.032 711.168c0-48.601-39.399-88-88-88s-88 39.399-88 88c0 48.601 39.399 88 88 88s88-39.399 88-88z" />
<glyph unicode="&#xe80a;" glyph-name="reset" d="M560.608 672v-32c114.88 0 208-93.12 208-208s-93.12-208-208-208-208 93.12-208 208v128.064l74.592-74.592 22.624 22.624-113.12 113.12h-0.16l-113.12-113.152 22.624-22.656 74.56 74.592v-128c0-132.544 107.424-240 240-240 132.544 0 240 107.456 240 240s-107.488 240-240 240z" />
<glyph unicode="&#xe80b;" glyph-name="log-out" d="M626.496 672c-107.872 0-199.072-71.104-229.312-168.992h34.016c29.056 79.872 105.376 136.992 195.328 136.992 114.912 0 208-93.12 208-208s-93.088-208-208-208c-89.824 0-166.080 57.024-195.232 136.736h-34.016c30.336-97.76 121.472-168.736 229.248-168.736 132.608 0 240 107.424 240 240s-107.424 240-240.032 240zM626.656 447.712h-398.688l83.584 83.616-11.328 11.296-110.72-110.688 111.616-110.72 11.328 11.328-83.168 83.168h397.376v32z" />
<glyph unicode="&#xe900;" glyph-name="filter-selector" d="M966.997 910.222h-909.995l341.22-426.667v-369.778h227.556v369.778z" />
<glyph unicode="&#xe901;" glyph-name="link" d="M608 736v-32h137.472l-233.472-233.472 23.040-23.040 232.96 232.96v-136.448h32v192zM768 192h-512v512h224v32h-256v-576h576v256h-32z" />
<glyph unicode="&#xe902;" glyph-name="reduce" d="M288.181 416.517v-32h137.472l-201.789-201.789c19.375-19.118 9.142-8.759 23.232-22.848l201.085 201.085v-136.448h32v192zM735.683 479.363v32h-137.472l201.789 201.789c-19.375 19.118-9.142 8.759-23.232 22.848l-201.085-201.085v136.448h-32v-192z" />
<glyph unicode="&#xe903;" glyph-name="expand" d="M415.864 159.88v32h-137.472l201.789 201.789c-19.375 19.118-9.142 8.759-23.232 22.848l-201.085-201.085v136.448h-32v-192zM608 736v-32h137.472l-201.789-201.789c19.375-19.118 9.142-8.759 23.232-22.848l201.085 201.085v-136.448h32v192z" />
<glyph unicode="&#xe904;" glyph-name="time" d="M715.164 397.843c-31.751-94.528-125.968-153.617-224.842-140.658s-174.745 94.089-181.062 193.607c-6.316 99.519 58.689 189.59 155.131 214.945 91.452 24.043 186.996-16.717 233.686-97.53-25.462 0.025-65.219 0.053-101.743 0.034v-31.904l160.088 0.105-0.021 159.985-32.021 0.024v-0.39l0.358-109.776c-41.006 69.095-115.715 115.852-201.698 117.625l0.253-0.002c-1.677 0.035-3.358 0.052-5.043 0.052-21.692 0-42.712-2.879-62.698-8.274-102.12-27.567-177.263-120.851-177.263-231.685 0-5.347 0.175-10.654 0.519-15.914 7.484-114.289 94.983-206.739 207.017-221.871 10.603-1.432 21.426-2.172 32.422-2.172 105.185 0 194.563 67.679 227.468 163.553l-30.551 10.246zM494.301 580.913v-131.344h0.015l139.791-80.708 20.331 35.215-119.474 68.978v107.857l-40.663 0.002z" />
<glyph unicode="&#xe905;" glyph-name="past" d="M511.022 703.91c-92.599-1.909-172.129-55.985-210.563-133.954l32.967-17.669-4.646 2.344c43.448 89.756 144.449 136.461 240.891 111.106s161.447-115.426 155.131-214.945c-6.316-99.519-82.187-180.648-181.061-193.607s-193.091 46.129-224.842 140.658l1.191 0.416-31.742-10.662c32.905-95.874 122.283-163.553 227.468-163.553 10.996 0 21.819 0.74 32.422 2.172 112.034 15.132 199.533 107.582 207.017 221.871 0.344 5.26 0.519 10.567 0.519 15.914 0 110.834-75.143 204.118-177.263 231.685-19.986 5.395-41.006 8.274-62.698 8.274-1.685 0-3.366-0.017-5.043-0.052zM310.973 696.451l-32.020-0.024-0.022-159.986 160.088-0.106v31.904c-59.885 0.032-128.465-0.064-128.465-0.064l0.418 127.885v0.391zM494.948 580.913v-131.344h0.014l139.791-80.708 20.332 35.215-119.474 68.978v107.857h-40.663z" />
<glyph unicode="&#xe906;" glyph-name="xml" d="M429.003 205.003l132.618 494.936c0.014 0.051 0.026 0.091 0.029 0.091l33.367-8.941c0.002-0.001-0.007-0.042-0.021-0.093l-132.618-494.936c-0.014-0.051-0.026-0.091-0.029-0.091l-33.367 8.941c-0.002 0.001 0.007 0.042 0.021 0.093zM635.536 654.712l-0.518-0.415v-40.688l206.889-165.609-206.889-165.609v-40.688l0.518-0.415c0-0.001 0.025 0.014 0.051 0.036l258.040 206.554c0.026 0.021 0.044 0.037 0.044 0.039l-0.102 0.084 0.102 0.082c0 0.001-0.018 0.020-0.044 0.041l-258.040 206.554c-0.026 0.021-0.051 0.038-0.051 0.036zM388.464 654.712l0.518-0.415v-40.688l-206.889-165.609 206.889-165.609v-40.688l-0.518-0.415c0-0.001-0.025 0.014-0.051 0.036l-258.040 206.554c-0.026 0.021-0.044 0.037-0.044 0.039l0.102 0.084-0.102 0.082c0 0.001 0.018 0.020 0.044 0.041l258.040 206.554c0.026 0.021 0.051 0.038 0.051 0.036z" />
<glyph unicode="&#xe907;" glyph-name="configure" d="M762.464 389.664c-31.872 55.264-12.736 126.048 42.816 158.208l-59.744 103.488c-17.056-9.984-36.928-15.744-58.048-15.744-63.872 0-115.616 52.128-115.616 116.384h-119.488c0.16-19.84-4.768-39.936-15.424-58.336-31.872-55.264-102.816-74.016-158.464-42.016l-59.776-103.488c17.216-9.792 32.096-24.096 42.656-42.432 31.872-55.2 12.768-125.856-42.56-158.048l59.744-103.52c17.024 9.952 36.736 15.552 57.824 15.552 63.68 0 115.264-51.712 115.616-115.68h119.488c0 19.648 4.864 39.456 15.424 57.728 31.84 55.168 102.592 73.952 158.176 42.176l59.744 103.424c-17.088 9.76-31.84 24-42.368 42.304zM512.032 324.864c-68 0-123.136 55.104-123.136 123.136 0 68 55.104 123.136 123.136 123.136 68 0 123.136-55.136 123.136-123.136 0-68.032-55.104-123.136-123.136-123.136z" />
<glyph unicode="&#xe908;" glyph-name="database" d="M512 764.8c-160 0-288-70.4-288-160s128-160 288-160 288 70.4 288 160c0 89.6-128 160-288 160zM512 476.8c-137.6 0-256 57.6-256 128s118.4 128 256 128 256-57.6 256-128c0-70.4-118.4-128-256-128zM768 444.8c0-70.4-118.4-128-256-128s-256 57.6-256 128h-32c0-89.6 128-160 288-160s288 70.4 288 160h-32zM768 284.8c0-70.4-118.4-128-256-128s-256 57.6-256 128h-32c0-89.6 128-160 288-160s288 70.4 288 160h-32z" />
<glyph unicode="&#xe909;" glyph-name="complexity" d="M184 736v-608h226.176l101.824 59.52 100.832-59.52h227.2v608h-656.032zM488 464h-176v-64h32v32h144v-202.88l-91.968-53.12h-164.032v112h192v64h-32v-32h-160v224h192v64h-32v-32h-160v112h256v-224zM792 576h-160v32h-32v-64h192v-224h-160v32h-32v-64h192v-112h-164.064l-91.936 53.088v202.912h144v-32h32v64h-176v224h256v-112z" />
<glyph unicode="&#xe90a;" glyph-name="global-filter" d="M185.287 687.415l248.527-250.193v-311.078l159.365 159.365v156.37l245.533 245.535h-653.426zM247.502 661.917h528.996l-207.605-207.605v-155.040l-109.46-109.458v258.509l-211.931 213.595z" />
<glyph unicode="&#xe90b;" glyph-name="cloud" d="M685.824 512c-4.608 0-8.96-0.8-13.408-1.28-7.52 90.304-83.008 161.28-175.2 161.28-80.768 0-148.64-54.464-169.376-128.64-2.624 0.16-5.152 0.608-7.84 0.608-88.384 0-160-71.648-160-160s71.648-159.968 160-159.968h365.824c79.488 0 143.968 64.48 143.968 143.968 0 79.52-64.48 144.032-143.968 144.032zM685.824 256v0l-365.824 0.128c-70.144 0.672-126.816 57.6-126.816 127.84 0 70.688 57.312 128 128 128 11.104 0 21.696-1.856 31.968-4.512 0.864 10.784 2.88 21.152 5.984 31.136 0 0-0.032 0-0.032 0s0.032 0 0.064 0c18.208 58.592 72.256 101.408 136.864 101.408 76.832 0 139.136-60.448 143.168-136.384 0.16-2.592 0.8-4.992 0.8-7.616 0-9.44-1.024-18.624-2.784-27.552 14.752 7.168 31.104 11.52 48.608 11.52 61.824 0 111.968-50.144 111.968-112.032 0-61.824-50.176-111.936-111.968-111.936z" />
<glyph unicode="&#xe90c;" glyph-name="cloud2" d="M528 863.104c-238.592 0-432-193.408-432-431.968 0-238.624 193.408-432 432-432 238.56 0 432 193.376 432 432 0 238.56-193.44 431.968-432 431.968zM525.824 61.632c-203.232 0-368 164.768-368 368 0 203.264 164.736 368 368 368 203.2 0 368-164.736 368-368 0-203.232-164.832-368-368-368zM662.56 498.016c-0.096 0-0.16-0.032-0.256-0.032 0.032 0.832 0.256 1.6 0.256 2.432 0 67.36-54.528 121.92-121.92 121.92-45.856 0-85.504-25.472-106.304-62.944 30.816-14.496 55.776-39.392 70.464-70.176-23.936 18.4-52.384 31.2-83.392 36.384 0-0.032-0.032-0.032-0.032-0.064-1.6 0.16-3.232 0.288-4.8 0.48-2.656 0.384-5.376 0.416-8.064 0.672-65.696-0.384-118.848-53.696-118.848-119.488 0-64.864 51.84-117.472 116.352-119.2h259.488c56.672 1.568 102.24 47.776 102.24 104.864 0 58.080-47.072 105.152-105.184 105.152z" />
<glyph unicode="&#xe90d;" glyph-name="run" horiz-adv-x="512" d="M0 736v-575.936l512.064 287.968-512.064 287.968zM47.136 655.136l376.224-207.136-376.224-207.136v414.272z" />
<glyph unicode="&#xe90e;" glyph-name="business-criteria" d="M720.576 801.536h-417.152l-247.456-246.016 456.032-493.088 456.032 493.088-247.456 246.016zM112.992 555.52l207.648 206.016h382.72l209.696-206.016-401.056-432.16-399.008 432.16zM715.329 537.707l-100.632 152.191c-1.566 2.060-3.583 3.733-5.857 5.192-0.409 0.28-0.729 0.687-1.116 0.901-0.236 0.128-0.387 0.365-0.601 0.472-1.395 0.708-2.896 0.815-4.355 1.201-1.223 0.344-2.361 0.858-3.627 0.988-1.372 0.128-2.682-0.129-4.033-0.236-1.609-0.129-3.176-0.15-4.785-0.601-0.965-0.3-1.781-0.901-2.703-1.33-1.546-0.708-3.176-1.159-4.613-2.253-0.236-0.172-0.344-0.451-0.558-0.644-0.258-0.215-0.43-0.536-0.665-0.773-2.082-1.888-3.798-3.991-5-6.394l-119.771-244.862-32.078 106.040c-0.901 2.875-2.359 5.385-4.162 7.574-1.91 3.412-4.398 6.522-8.025 8.604-10.814 6.244-24.611 2.531-30.854-8.283l-50.809-82.135c-6.244-10.836-2.532-24.676 8.261-30.919 10.792-6.244 24.61-2.533 30.854 8.303l24.74 39.996 35.51-117.496c1.738-5.688 5.622-10.686 11.329-13.584 1.288-0.643 2.661-0.707 3.991-1.094 1.459-0.449 2.854-1.094 4.399-1.223 1.888-0.148 3.69 0.279 5.537 0.58 1.050 0.172 2.102 0 3.132 0.344 0.042 0.021 0.085 0.062 0.15 0.084 0.687 0.236 1.244 0.752 1.888 1.053 5 2.188 9.012 5.771 11.308 10.406l127.624 260.934 79.689-120.586c7.596-9.891 21.757-11.822 31.67-4.227 9.892 7.637 11.758 21.841 4.162 31.777v0z" />
<glyph unicode="&#xe90f;" glyph-name="strength" d="M384 480.384h256v-96h-256v96zM272 608.384h96v-353.376h-96v353.376zM160.096 544.064h96v-223.392h-96v223.392zM657.248 608.384h96v-353.376h-96v353.376zM769.152 544.064h96v-223.392h-96v223.392zM144.992 477.376c-24.864 0-44.992-20.128-44.992-44.992 0-24.832 20.128-45.024 44.992-45.024v90.016zM881.568 477.376c24.864 0 44.992-20.128 44.992-44.992 0-24.832-20.128-45.024-44.992-45.024v90.016z" />
<glyph unicode="&#xe910;" glyph-name="impact" d="M512 410.56c-70.688 0-128-57.312-128-128 0-70.72 57.312-128 128-128 70.72 0 128 57.28 128 128 0 70.688-57.28 128-128 128zM512 186.56c-53.024 0-96 42.976-96 96 0 52.992 42.976 96 96 96s96-43.008 96-96c0-53.024-42.976-96-96-96zM384 480c0-35.346-28.654-64-64-64s-64 28.654-64 64c0 35.346 28.654 64 64 64s64-28.654 64-64zM768 480c0-35.346-28.654-64-64-64s-64 28.654-64 64c0 35.346 28.654 64 64 64s64-28.654 64-64zM616.032 612.032l-88.032-88.032v275.648h-32v-276.064l-88.448 88.448-17.216-17.216 121.664-122.816 121.248 122.816z" />
<glyph unicode="&#xe911;" glyph-name="transaction" d="M800.384 562.464l-292.256 141.536-12.128-11.488-12.128 11.488-292.256-141.536 24.256-23.040-24.256-23.040 292.256-141.536 12.128 11.52 12.128-11.488 292.256 141.536-24.256 23.040 24.256 23.008zM215.904 539.424l280.096 135.68 280.096-135.68-280.096-135.68-280.096 135.68zM495.984 280.359l-280.112 135.673-24.288-23.040 292.288-141.568 12.112 11.506zM496.984 157.373l-0.984-0.477-280.128 135.712-24.288-23.040 292.288-141.568 12.128 11.488 0.984-0.932zM705.49 140.904l62.51 78-22.241 17.942-40.029-49.947v221.101l-33.763-14.65v-223.814l-48.832 41.707-18.137-21.147 82.535-70.492 10.891 12.698 0.104-0.082 2.509 3.13 4.631 5.401z" />
<glyph unicode="&#xe912;" glyph-name="current-version" horiz-adv-x="512" d="M256 704c-141.376 0-256-114.624-256-256s114.624-256 256-256h256v256c0 141.376-114.624 256-256 256zM256 272c-97.184 0-176 78.848-176 176 0 97.184 78.816 176 176 176 97.152 0 176-78.816 176-176 0-97.152-78.848-176-176-176zM320 448c0-35.346-28.654-64-64-64s-64 28.654-64 64c0 35.346 28.654 64 64 64s64-28.654 64-64z" />
<glyph unicode="&#xe913;" glyph-name="configure2" horiz-adv-x="608" d="M367.616 160c-42.432 0-84.8 0-127.232 0 0 0.608 0.064 1.184-0.064 1.696-7.68 22.016-15.264 43.968-23.104 65.92-0.736 1.984-2.816 4.096-4.8 5.152-6.432 3.424-13.024 6.624-19.776 9.408-2.56 1.056-6.016 1.312-8.608 0.512-20.576-6.944-41.088-14.144-61.504-21.536-3.68-1.344-5.824-0.736-8.256 2.4-24.032 30.304-48.192 60.608-72.512 90.688-2.592 3.2-2.304 5.344-0.224 8.48 9.664 14.88 18.432 30.336 28.672 44.768 6.784 9.472 9.76 18.592 5.12 29.664-1.248 2.976-1.12 6.496-2.4 9.472-1.216 2.72-2.944 5.92-5.344 7.392-19.776 12.672-39.712 24.992-59.648 37.44 0 0.416 0 0.768 0 1.184 0.832 2.464 1.856 4.992 2.432 7.488 8.448 36.48 16.864 72.992 25.056 109.568 0.768 3.488 2.272 4.864 5.568 5.184 18.72 1.984 37.44 4.416 56.224 5.888 9.344 0.736 17.056 2.816 21.984 11.616 2.080 3.808 5.664 6.816 8.064 10.528 1.376 2.208 2.56 5.216 2.336 7.712-2.176 21.632-4.544 43.232-7.232 64.8-0.544 4.448 0.704 6.368 4.64 8.224 34.048 16.16 68 32.512 101.92 48.864 1.984 0.96 3.808 2.336 5.728 3.52 0.352 0 0.768 0 1.152 0 11.584-11.808 23.136-23.616 34.816-35.296 6.112-6.080 11.52-14.304 18.944-17.312 7.456-2.976 17.056-0.704 25.728-0.768 0.576 0 1.216-0.128 1.728 0.064 1.408 0.48 3.072 0.704 4.064 1.664 17.12 17.184 34.144 34.4 51.2 51.648 0.416 0 0.704 0 1.152 0 1.888-1.184 3.68-2.592 5.728-3.52 34.112-16.448 68.192-32.896 102.368-49.152 3.488-1.664 4.672-3.36 4.192-7.392-2.464-19.424-4.384-38.944-6.88-58.432-0.896-7.2-0.768-13.376 4.992-18.848 4.128-3.968 7.136-9.088 11.008-13.376 1.344-1.568 3.648-2.848 5.728-3.104 21.728-2.56 43.552-4.928 65.376-7.168 3.968-0.384 5.92-1.632 6.88-5.92 6.144-28.16 12.672-56.256 19.168-84.32 2.496-10.752 5.408-21.376 8.16-32.16 0-0.416 0-0.768 0-1.184-14.208-8.832-28.448-17.696-42.624-26.592-7.104-4.512-16.16-7.712-20.64-14.112-4.544-6.432-4.8-16-6.304-24.288-0.544-2.848-0.032-6.592 1.376-8.992 11.328-18.4 22.88-36.576 34.528-54.72 2.016-3.168 2.432-5.248-0.128-8.48-24.416-30.112-48.544-60.416-72.608-90.72-2.432-3.040-4.576-3.776-8.256-2.4-18.592 6.72-37.44 12.928-55.968 19.936-7.040 2.688-12.64 1.632-19.52-0.864-13.6-5.024-21.152-13.6-24.928-27.744-4.704-17.824-11.552-35.040-17.472-52.48zM437.984 653.28c-1.088 0.832-2.592 2.304-4.416 3.232-15.648 7.68-31.488 15.104-47.264 22.88-3.552 1.728-5.728 1.376-8.384-1.472-12.128-12.416-24.448-24.672-36.864-36.736-1.792-1.792-4.864-3.136-7.36-3.168-19.616-0.224-39.296-0.256-58.944 0-2.656 0.064-6.016 1.408-7.936 3.264-12.608 12.16-24.96 24.672-37.28 37.152-2.144 2.176-3.84 2.912-6.944 1.408-16.224-8-32.544-15.808-48.896-23.488-2.912-1.376-3.68-2.976-3.264-6.24 2.176-16.992 4.128-34.016 5.856-51.072 0.288-2.816-0.032-6.464-1.6-8.544-12.384-16-25.056-31.744-37.856-47.488-1.312-1.568-3.648-2.976-5.632-3.264-17.792-2.112-35.584-4.096-53.376-5.888-3.456-0.32-4.896-1.504-5.696-4.992-3.808-17.472-7.872-34.912-12.064-52.288-0.864-3.584 0.512-5.216 3.296-6.944 14.752-9.056 29.504-18.208 44.032-27.648 2.272-1.504 4.48-4.32 5.088-6.88 4.64-18.912 8.704-37.888 13.248-56.768 0.896-3.744 0.128-6.56-1.888-9.6-9.344-14.432-18.272-29.024-27.584-43.424-2.048-3.168-1.856-5.184 0.448-8 11.104-13.632 22.080-27.296 32.832-41.088 2.464-3.296 4.672-3.456 8.224-2.176 15.936 5.792 32 11.040 47.904 16.896 4 1.504 7.168 1.12 10.784-0.672 16.96-8.256 33.92-16.448 51.008-24.48 3.648-1.728 5.536-4.032 6.784-7.808 5.376-16 11.232-31.936 16.64-48 1.216-3.616 2.752-5.088 6.848-5.056 17.536 0.224 35.104 0.192 52.608 0.032 3.68-0.032 5.376 1.088 6.56 4.672 5.504 16.416 11.2 32.736 17.184 49.024 0.992 2.624 3.552 5.408 6.080 6.688 17.376 8.704 34.976 17.12 52.576 25.28 2.4 1.152 5.952 1.28 8.544 0.544 16.416-5.536 32.672-11.296 49.024-17.152 3.296-1.216 5.376-1.184 7.776 1.856 10.912 14.048 21.984 27.84 33.152 41.568 2.496 2.944 2.24 5.024 0.32 8.064-9.408 14.496-18.656 29.184-27.712 43.936-1.376 2.304-1.952 5.856-1.504 8.544 4.224 19.136 8.544 38.24 13.12 57.344 0.608 2.4 2.592 5.152 4.672 6.528 14.784 9.536 29.632 18.72 44.576 27.936 2.56 1.6 4.032 3.072 3.328 6.4-4.224 17.792-8.256 35.616-12.608 53.376-0.352 1.664-2.624 3.84-4.288 4.032-17.184 2.144-34.4 4.192-51.584 5.76-4.544 0.384-7.392 2.048-10.080 5.472-11.296 14.432-22.624 28.768-34.272 42.848-3.456 4.16-4.096 8.128-3.424 13.248 2.208 16.896 4 33.92 6.208 52.352zM190.784 444.64c0.064 62.432 50.944 113.12 113.536 112.992 62.528-0.128 112.992-50.944 112.896-113.632-0.064-62.368-51.040-112.736-113.824-112.608-62.176 0.128-112.672 50.848-112.608 113.248zM383.84 444.16c0.096 43.776-35.904 79.904-79.744 79.968-43.52 0.096-79.68-35.712-79.936-79.136-0.256-43.84 35.616-80.064 79.424-80.256 43.744-0.16 80.128 35.808 80.256 79.424z" />
<glyph unicode="&#xe914;" glyph-name="cms-logo" horiz-adv-x="752" d="M377.597 777.6c-208 0-377.6-169.6-377.6-377.6 0-102.4 41.6-198.4 108.8-265.6l67.2 67.2c-51.2 51.2-83.2 121.6-83.2 198.4 0 153.6 124.8 281.6 281.6 281.6s281.6-124.8 281.6-281.6c0-51.2-16-102.4-38.4-144l-214.4 214.4-67.2-67.2 284.8-288c80 70.4 131.2 169.6 131.2 284.8 3.2 211.2-166.4 377.6-374.4 377.6z" />
<glyph unicode="&#xe915;" glyph-name="cobol" horiz-adv-x="992" d="M973.632 461.632c-4.8 32.224-19.84 62.944-30.368 94.336l-16.384-41.6c-31.68 17.6-60.288 33.472-88.864 49.312-1.056 4.608-2.144 9.184-3.232 13.76 19.104 17.792 38.208 35.552 57.824 53.76-22.56-11.872-44.48-23.36-66.432-34.912-1.888 2.208-3.744 4.448-5.632 6.656l65.248 79.2c-31.040-20.448-63.104-39.424-92.672-61.792-20.992-15.872-34.272-11.616-47.424 8.16-14.88 22.496-30.304 44.64-46.592 68.448-42.688-37.92-60.672-84.128-56.544-139.968-3.392 0.224-6.848 0.448-10.336 0.672-1.376 24.768-2.752 49.6-4.352 78.848-23.552 4.96-49.856 12.288-76.608 15.744-95.296 12.16-182.624-4.416-247.136-82.048-22.656-27.296-38.080-60.992-54.752-92.832-18.112-34.56-31.232-71.936-51.104-105.312-44.128-74.144-103.552-128.032-198.272-127.968 36.352-44.896 77.6-53.664 127.904-35.296 48.224 17.6 83.36 49.6 113.248 89.504 7.968 10.592 16.832 20.576 25.184 30.688 23.264-11.904 28.32-29.664 27.264-50.496-0.928-18.528-1.6-37.12-2.72-55.648-1.024-17.312 6.016-24.672 24.096-23.84 26.4 1.184 52.832 0.224 79.232 0.288 32.256 0.128 43.328 10.272 45.216 43.008 0.928 16.256 0.16 32.576 0.16 47.36 3.584 1.792 4.416 2.624 5.248 2.624 25.408-0.064 50.816-0.288 76.256-0.352 60.48-0.128 60.416-0.064 68.928-60.672 0.928-6.688 1.888-14.016 5.248-19.616 3.040-5.088 9.408-11.424 14.432-11.552 38.656-0.992 77.344-0.576 116.512-0.576 0.864 11.264 1.824 17.984 1.888 24.672 0.096 34.208-1.728 68.608 0.448 102.72 3.52 55.136 22.912 71.168 77.376 72.224 40.992 0.768 82.144 1.92 122.816 6.72 34.944 4.128 50.080 21.024 44.896 55.776z" />
<glyph unicode="&#xe916;" glyph-name="java" horiz-adv-x="672" d="M150.176 203.008c-9.28 0-18.496 0.608-27.616-0.16-13.024-0.992-25.504-4.352-36.448-12-0.064-0.064-0.16-0.128-0.256-0.192-9.728-7.2-10.336-16.448-0.864-23.968 5.28-4.224 11.36-7.68 17.568-10.368 15.424-6.784 31.84-10.528 48.384-13.696 33.312-6.304 66.976-9.376 100.8-11.072 35.776-1.792 71.552-1.792 107.328 0.16 41.184 2.272 82.176 6.528 122.24 16.8 19.616 5.024 38.944 11.2 55.84 22.88 6.944 4.768 12.992 10.464 16.736 18.24 3.552 7.424 3.68 15.040 1.248 22.816-0.32 0.992-0.576 1.984-1.024 3.52 9.408-4.608 18.176-9.248 24.576-17.184 7.296-8.928 7.616-21.44 1.312-32.864-6.592-11.872-16.832-19.776-28.224-26.496-21.024-12.448-44.064-19.68-67.52-25.728-31.2-8-62.88-12.8-94.848-16.224-40.64-4.384-81.376-6.112-122.208-5.568-32.768 0.48-65.504 2.272-98.080 6.112-25.856 3.072-51.52 7.2-76.736 13.696-19.616 5.056-38.88 11.104-56.672 21.12-11.104 6.24-21.312 13.6-27.968 24.864-7.744 13.184-5.984 26.368 4.864 37.216 9.152 9.12 20.288 14.976 32.352 19.040 23.2 7.872 46.944 8.96 71.072 6.112 4.512-0.544 8.416-2.048 12.192-4.32 7.296-4.352 14.72-8.544 21.952-12.736zM316.864 431.68c-1.472 1.024-2.944 1.984-4.384 3.040-26.368 19.296-51.040 40.512-72.768 64.928-15.712 17.696-29.728 36.576-38.464 58.816-5.984 15.104-8.768 30.656-5.568 46.848 2.528 12.864 8.608 24.096 16.192 34.624 14.080 19.424 32 35.104 50.176 50.432 20.96 17.664 42.24 34.944 63.040 52.832 16.768 14.432 32.128 30.272 43.808 49.248 8.192 13.248 13.536 27.424 13.824 43.2 0.16 8.416-0.96 16.672-3.84 24.608-0.48 1.28-0.896 2.56-1.344 3.84 0.32 0.128 0.608 0.288 0.896 0.448 3.424-6.208 7.104-12.288 10.24-18.656 8.512-17.248 13.28-35.424 12.672-54.816-0.608-18.080-5.856-34.944-14.048-50.912-11.616-22.72-27.808-42.144-45.12-60.608-18.752-20-37.984-39.584-56.512-59.776-10.656-11.616-19.808-24.448-25.28-39.52-4.544-12.544-4.48-24.8 0.608-37.248 15.328-37.632 32.96-74.080 54.976-108.352 0.512-0.768 0.928-1.632 1.376-2.464-0.16-0.128-0.352-0.32-0.48-0.512zM226.752 446.464c-11.136-3.328-22.336-6.464-33.376-10.112-10.656-3.52-21.312-7.296-30.688-13.632-2.528-1.696-4.832-3.936-6.752-6.304-2.592-3.136-1.952-6.048 1.856-7.392 5.024-1.76 10.208-3.328 15.456-3.968 13.92-1.6 27.872-3.168 41.888-3.712 44.32-1.952 88.672-1.12 132.992 1.568 23.904 1.44 47.872 2.944 71.712 5.472 21.6 2.272 43.008 5.984 64.512 9.056 0.736 0.096 1.472 0.224 2.56-0.224-4.16-3.424-8.224-7.008-12.544-10.208-12.384-9.216-24.832-18.272-37.312-27.328-1.024-0.704-2.208-1.408-3.392-1.6-27.712-4.192-55.36-8.832-83.2-12.288-42.528-5.28-85.344-7.328-128.192-7.040-31.392 0.192-62.752 1.792-93.76 6.976-16.8 2.784-33.472 6.336-48.608 14.624-4.064 2.24-8.064 5.056-11.168 8.512-8 8.768-6.592 20.512 2.88 28.928 9.056 8 20.064 12.16 31.424 15.424 27.136 7.744 55.008 10.688 83.040 12.192 13.6 0.704 27.168 1.088 40.736 1.632-0.032-0.224-0.064-0.384-0.064-0.576zM342.464 414.432c7.712 6.912 14.336 14.688 19.872 23.424 5.6 8.928 9.408 18.496 9.92 29.12 0.608 12.032-3.52 22.816-9.728 32.704-7.872 12.512-16.352 24.608-24.256 37.056-8.288 12.992-13.952 27.008-14.912 42.592-0.672 11.424 1.088 22.656 4.384 33.568 7.744 25.664 24 45.056 45.344 60.544 23.232 16.8 49.408 27.136 76.768 34.752 20.352 5.664 41.056 9.472 62.4 10.944-0.96-0.672-1.92-1.344-2.88-1.952-23.2-14.688-45.696-30.336-67.264-47.264-14.784-11.584-28.992-23.808-41.344-38.016-3.264-3.808-6.24-7.872-9.152-11.968-9.184-12.8-9.056-26.72-3.616-40.672 3.712-9.408 8.704-18.336 13.184-27.424 5.216-10.624 11.232-20.96 15.68-31.936 9.536-23.36 5.6-45.344-9.024-65.504-12.384-17.024-29.376-27.872-48.672-35.328-5.344-2.048-10.88-3.648-16.352-5.44-0.128 0.288-0.256 0.512-0.352 0.8zM458.72 302.112c-4.704-1.824-9.024-3.552-13.472-5.12-31.136-10.88-63.136-17.984-95.808-22.016-29.792-3.648-59.712-5.152-89.728-3.808-31.072 1.472-61.888 4.608-91.872 13.536-11.392 3.392-22.624 7.36-32.256 14.656-2.752 2.048-5.344 4.672-7.36 7.488-3.872 5.44-3.008 12.384 1.888 19.072 6.112 8.352 14.56 13.792 23.616 18.304 9.248 4.64 18.976 7.776 29.28 8.992 1.664 0.192 3.328 0.192 5.632 0.32-2.112-2.24-3.936-4-5.504-5.984-5.28-6.4-4.48-12.768 2.336-17.6 8.032-5.696 17.408-8.096 26.88-9.92 33.696-6.496 67.68-6.304 101.76-4.032 28.8 1.92 57.312 5.76 84.992 13.92 8.16 2.4 14.016 1.536 20.768-3.136 11.584-8.064 23.872-15.168 35.808-22.688 0.928-0.544 1.792-1.12 3.040-1.984zM212.352 266.688c-1.344-2.080-2.496-3.616-3.36-5.28-2.624-4.992-1.664-9.312 2.848-12.704 5.44-4.128 11.872-5.76 18.4-7.104 18.816-3.808 37.888-3.744 56.928-3.040 21.408 0.768 42.752 2.944 63.68 7.648 13.504 3.008 26.688 7.488 40.064 11.232 1.248 0.352 3.040 0.416 4.032-0.224 16.416-10.528 32.704-21.152 49.056-31.776 0.416-0.256 0.768-0.64 1.76-1.408-6.528-3.264-12.512-6.528-18.688-9.28-21.888-9.632-44.896-15.36-68.384-19.36-30.88-5.248-62.048-7.296-93.376-6.432-25.216 0.672-50.208 2.944-74.496 10.304-10.368 3.168-20.448 7.072-28.544 14.688-7.52 7.168-8.992 15.936-4.192 25.088 3.552 6.816 8.864 12.032 15.2 16.288 11.68 7.776 24.672 11.008 39.072 11.36zM112.896 79.104c7.616-1.632 15.232-3.264 22.848-4.832 29.568-6.080 59.36-10.688 89.376-14.080 42.336-4.704 84.768-6.688 127.328-5.44 58.528 1.664 116.256 8.704 172.576 25.504 31.712 9.44 62.272 21.664 89.984 40 9.6 6.336 18.336 13.984 27.488 21.056 0.896 0.704 1.76 1.504 3.136 2.656-0.096-7.264-1.568-13.6-4.064-19.68-4.192-10.208-10.784-18.72-18.784-26.144-18.144-16.8-39.776-27.648-62.624-36.384-28.992-11.072-59.072-17.952-89.728-22.688-36.928-5.76-74.048-7.968-111.392-7.552-29.024 0.32-57.952 2.432-86.752 6.112-40.832 5.28-80.96 13.856-120.16 26.496-13.312 4.32-26.368 9.28-39.52 13.984 0.096 0.288 0.192 0.608 0.288 0.992zM499.296 428.384c6.272 3.52 12.448 7.424 18.976 10.432 11.584 5.28 23.84 7.936 36.672 7.968 29.856 0.096 53.76-19.968 57.952-49.536 5.312-37.152-7.104-67.584-36-91.264-20.608-16.832-44.672-26.656-70.112-33.408-6.528-1.76-13.152-2.976-19.744-4.416-1.184-0.224-2.432-0.256-3.872 0.16 0.704 0.576 1.408 1.12 2.112 1.696 19.168 14.208 37.024 29.824 52.224 48.288 11.872 14.4 22.016 29.824 27.008 48.032 2.72 9.92 4.32 20 0.768 30.016-5.12 14.432-15.84 23.264-29.76 28.576-11.616 4.416-23.552 4.832-35.712 2.592-0.192 0.288-0.352 0.576-0.512 0.864z" />
<glyph unicode="&#xe917;" glyph-name="upload-measurement" d="M536 468h104v-104h-104v104zM512 620h-128v-128h128v128zM496 508h-96v96h96v-96zM536 596h104v-104h-104v104zM524 263.744l-59.984-59.136 15.312-15.216 33.84 33.632v-139.024h21.664v139.024l33.84-33.632 15.312 15.216zM408 468h104v-104h-104v104z" />
<glyph unicode="&#xe918;" glyph-name="delete" horiz-adv-x="512" d="M496 672h-120l-8 32c-4.352 16-14.304 32-32 32h-160c-17.664 0-27.2-15.2-32-32l-8-32h-120c-8.832 0-16-7.168-16-16s7.168-32 16-32h31.264c0.32-5.344 0.736-11.552 0.736-16l16-384c0-35.328 28.672-64 64-64h256c35.328 0 64 28.672 64 64l16 384c0 4.096 0.672 10.72 0.576 16h31.424c8.832 0 16 23.168 16 32s-7.168 16-16 16zM201.152 704h109.728c15.136 0 27.392-14.336 27.392-32h-164.576c0.032 17.664 12.288 32 27.456 32zM416 240c0-26.496-21.504-48-48-48h-224c-26.528 0-48 21.504-48 48l-14.816 384h352.064l-17.248-384z" />
<glyph unicode="&#xe919;" glyph-name="pl-sql" horiz-adv-x="896" d="M588.8 640c124.8 0 224-99.2 224-224 0-115.2-92.8-208-208-208h-332.8c-115.2 0-208 92.8-208 208 0 124.8 99.2 224 224 224h300.8zM588.8 704h-300.8c-160 0-288-128-288-288v0c0-150.4 121.6-272 272-272h332.8c150.4 0 272 121.6 272 272v0c0 160-128 288-288 288v0zM243.2 451.2c0-16-3.2-25.6-12.8-35.2s-22.4-12.8-38.4-12.8h-9.6v-44.8h-38.4v137.6h48c16 0 28.8-3.2 38.4-12.8s12.8-19.2 12.8-32zM182.4 432h6.4c6.4 0 9.6 0 12.8 3.2s6.4 6.4 6.4 12.8c0 9.6-6.4 12.8-16 12.8h-9.6v-28.8zM262.4 358.4v137.6h38.4v-105.6h51.2v-28.8h-89.6zM508.8 400c0-9.6-3.2-16-6.4-22.4s-9.6-12.8-19.2-16c-9.6-3.2-19.2-6.4-28.8-6.4s-16 0-22.4 3.2c-6.4 0-12.8 3.2-19.2 6.4v32c6.4-3.2 16-6.4 22.4-9.6s16-3.2 22.4-3.2c6.4 0 9.6 0 12.8 3.2s3.2 3.2 3.2 6.4 0 3.2 0 6.4c0 0-3.2 3.2-6.4 3.2s-9.6 3.2-19.2 9.6c-9.6 3.2-16 9.6-19.2 12.8s-6.4 9.6-9.6 12.8-3.2 9.6-3.2 16c0 12.8 3.2 22.4 12.8 28.8s22.4 9.6 38.4 9.6c12.8 0 28.8-3.2 44.8-9.6l-12.8-28.8c-12.8 6.4-22.4 9.6-32 9.6-6.4 0-9.6 0-9.6-3.2s-3.2-3.2-3.2-6.4c0-3.2 0-6.4 3.2-6.4s9.6-6.4 22.4-12.8c12.8-6.4 19.2-9.6 25.6-16 0-3.2 3.2-12.8 3.2-19.2zM652.8 425.6c0-32-9.6-51.2-28.8-64l32-38.4h-44.8l-25.6 32c-22.4 0-38.4 6.4-48 19.2s-16 28.8-16 51.2c0 22.4 6.4 41.6 16 51.2 12.8 12.8 28.8 19.2 51.2 19.2s38.4-6.4 48-19.2 16-28.8 16-51.2zM560 425.6c0-25.6 9.6-38.4 28.8-38.4 9.6 0 16 3.2 22.4 9.6 3.2 6.4 6.4 16 6.4 28.8s-3.2 22.4-6.4 28.8c-3.2 6.4-12.8 9.6-19.2 9.6-22.4 3.2-32-12.8-32-38.4zM675.2 358.4v137.6h38.4v-105.6h51.2v-28.8h-89.6z" />
<glyph unicode="&#xe91a;" glyph-name="reach-violation" d="M758.4 524.8l76.8 137.6h-195.2l-64-230.4h83.2l-51.2-188.8 12.8-6.4 249.6 288h-112zM688 454.4v0 0h-80l48 182.4h137.6l-73.6-137.6h96l-176-211.2 48 166.4zM294.4 585.6l124.8-124.8h-336v-25.6h336l-124.8-124.8 16-16 153.6 153.6-153.6 153.6z" />
<glyph unicode="&#xe91b;" glyph-name="mainframe" horiz-adv-x="480" d="M412.8 796.8h-345.6c-35.2 0-67.2-28.8-67.2-67.2v-563.2c0-35.2 28.8-67.2 67.2-67.2h348.8c35.2 0 67.2 28.8 67.2 67.2v563.2c-3.2 35.2-32 67.2-70.4 67.2zM240 243.2c-41.6 0-76.8 35.2-76.8 76.8s35.2 76.8 76.8 76.8 76.8-35.2 76.8-76.8-35.2-76.8-76.8-76.8zM316.8 531.2h-150.4c-12.8 0-22.4 9.6-22.4 22.4s9.6 22.4 22.4 22.4h150.4c12.8 0 22.4-9.6 22.4-22.4s-9.6-22.4-22.4-22.4zM316.8 636.8h-150.4c-12.8 0-22.4 9.6-22.4 22.4s9.6 22.4 22.4 22.4h150.4c12.8 0 22.4-9.6 22.4-22.4s-9.6-22.4-22.4-22.4z" />
<glyph unicode="&#xe91c;" glyph-name="consolidation" horiz-adv-x="416" d="M83.2 393.6c-41.6 0-76.8-35.2-76.8-76.8s35.2-76.8 76.8-76.8c41.6 0 76.8 35.2 76.8 76.8s-35.2 76.8-76.8 76.8zM83.2 275.2c-22.4 0-41.6 19.2-41.6 41.6s19.2 41.6 41.6 41.6c22.4 0 41.6-19.2 41.6-41.6s-16-41.6-41.6-41.6zM83.2 656c-41.6 0-76.8-35.2-76.8-76.8s35.2-76.8 76.8-76.8c41.6 0 76.8 35.2 76.8 76.8s-35.2 76.8-76.8 76.8zM83.2 534.4c-22.4 0-41.6 19.2-41.6 41.6s19.2 41.6 41.6 41.6c22.4 0 41.6-19.2 41.6-41.6 3.2-22.4-16-41.6-41.6-41.6zM332.8 393.6c-41.6 0-76.8-35.2-76.8-76.8s35.2-76.8 76.8-76.8c41.6 0 76.8 35.2 76.8 76.8-3.2 41.6-35.2 76.8-76.8 76.8zM332.8 275.2c-22.4 0-41.6 19.2-41.6 41.6s19.2 41.6 41.6 41.6c22.4 0 41.6-19.2 41.6-41.6s-19.2-41.6-41.6-41.6zM332.8 502.4c41.6 0 76.8 35.2 76.8 76.8s-35.2 76.8-76.8 76.8c-41.6 0-76.8-35.2-76.8-76.8 0-44.8 35.2-76.8 76.8-76.8zM332.8 620.8c22.4 0 41.6-19.2 41.6-41.6s-19.2-41.6-41.6-41.6c-22.4 0-41.6 19.2-41.6 41.6-3.2 22.4 16 41.6 41.6 41.6z" />
<glyph unicode="&#xe91d;" glyph-name="analysis" horiz-adv-x="480" d="M432 611.2l-214.4 124.8-217.6-124.8v-246.4l214.4-124.8 214.4 124.8v246.4zM368 400l-150.4-86.4-153.6 86.4v176l150.4 86.4 150.4-86.4v-176zM304.374 279.824l55.424 32 91.2-157.958-55.424-32-91.2 157.958zM121.6 544v-108.8l96-54.4 96 54.4v108.8l-96 54.4-96-54.4zM281.6 448l-67.2-38.4-64 38.4v76.8l67.2 38.4 67.2-38.4v-76.8z" />
<glyph unicode="&#xe91e;" glyph-name="dmt-logo" horiz-adv-x="736" d="M367.998 838.4l-368-211.2v-3.2l368-220.8 288 166.4v-249.6l-288-166.4-288 166.4v160l-80 44.8v-249.6l368-214.4 368 214.4v352l-368 211.2zM367.998 496l-217.6 124.8 217.6 124.8 217.6-124.8-217.6-124.8z" />
<glyph unicode="&#xe91f;" glyph-name="notification2" horiz-adv-x="416" d="M400 576l-352 176v16h-48v-576h48v208l352 176zM313.6 576l-265.6-128v256l265.6-128z" />
<glyph unicode="&#xe920;" glyph-name="cast" horiz-adv-x="8166" d="M0 960h60.804v-1024h-60.804v1024zM815.378-63.311h313.053v1023.311h-313.053v-1023.311zM1393.514-63.311h656.278v1023.311h-656.278v-1023.311zM2399.682-59.383h1054.031v1019.383h-1054.031v-1019.383zM359.036-64h143.342v1022.905h-143.342v-1022.905zM5601.58 512.547l-71.089-143.66h97.359l-24.903 143.66h-1.368zM8165.517 958.34v-1017.724h-4333.542v1017.724h4333.542zM4850.511 641.192c-32.477 14.354-65.713 22.713-103.398 22.713-63.338 0-131.646-27.445-183.27-72.969-49.894-44.191-82.617-103.486-92.231-165.129-10.902-66.869 2.754-125.617 45.241-170.496 39.848-42.372 95.956-66.375 158.543-66.375 36.626 0 65.995 8.942 106.778 21.001l22.246 140.597c-29.272-29.316-70.435-47.916-108.518-47.916-72.96 0-113.841 51.571-102.682 122.845 11.096 69.826 68.237 124.972 139.979 124.972 39.936 0 76.12-17.443 94.932-49.77l22.378 140.526zM5787.18 200.81l-98.207 451.151h-127.982l-244.974-451.090h124.487l43.75 78.433h161.271l16.834-78.433 124.822-0.062zM6498.79 528.093c3.999 25.123 34.657 37.791 56.090 37.791 28.813 0 54.307-11.997 72.995-29.978l60.937 91.004c-36.476 22.713-89.874 37.058-135.212 37.058-90.138 0-164.89-59.842-179.253-151.331-13.842-87.234 31.647-106.575 101.914-127.258 23.817-7.442 68.087-18.591 62.817-51.5-4.996-31.815-36.44-45.727-63.912-45.727-40.077 0-71.327 21.001-96.697 46.813l-64.962-94.402c40.969-32.406 93.299-51.562 150.201-51.562 45.312 0 94.49 12.659 134.488 42.496 40.642 30.694 58.739 76.659 65.96 121.503 11.476 72.81-32 104.73-91.577 123.251l-28.69 9.092c-19.059 6.179-49.249 16.393-45.1 42.752v0zM7546.871 651.961h-310.81l-15.748-99.328h96.927l-55.631-351.762h116.868l55.861 351.762h96.803l15.731 99.328z" />
<glyph unicode="&#xe921;" glyph-name="qm-violations" d="M844.8 656l70.4 128h-179.2l-57.6-214.4h76.8l-51.2-179.2 12.8-6.4 230.4 272h-102.4zM736 348.8h-41.6l-182.4-201.6-272 300.8h403.2v32h-438.4l163.2 160h211.2v32h-227.2l-185.6-192 326.4-358.4 16-19.2h6.4l16 19.2 3.2 3.2z" />
<glyph unicode="&#xe922;" glyph-name="technical-content" d="M352 800h-32v-214.4l320-320v-201.6h32v214.4l-320 320zM451.2 409.6l-131.2-128v-217.6h32v201.6l121.6 121.6zM640 800v-201.6l-121.6-121.6 22.4-22.4 131.2 131.2v214.4zM416 736h160v-32h-160v32zM416 640h160v-32h-160v32zM416 256h160v-32h-160v32zM416 160h160v-32h-160v32z" />
<glyph unicode="&#xe923;" glyph-name="aic-logo" horiz-adv-x="784" d="M31.997 736h588.8c19.2 0 32-12.8 32-32v-64c0-19.2-12.8-32-32-32h-588.8c-19.2 0-32 12.8-32 32v64c0 19.2 12.8 32 32 32zM127.997 416v64c0 19.2 12.8 32 32 32h588.8c19.2 0 32-12.8 32-32v-64c0-19.2-12.8-32-32-32h-588.8c-16 0-32 12.8-32 32zM31.997 288h588.8c19.2 0 32-12.8 32-32v-64c0-19.2-12.8-32-32-32h-588.8c-19.2 0-32 12.8-32 32v64c0 19.2 12.8 32 32 32z" />
</font>
</defs>
</svg>
