<?xml version="1.0" standalone="no"?>
<!DOCTYPE svg PUBLIC "-//W3C//DTD SVG 1.1//EN" "http://www.w3.org/Graphics/SVG/1.1/DTD/svg11.dtd" >
<svg xmlns="http://www.w3.org/2000/svg">
<metadata></metadata>
<defs>
<font id="kzproregular" horiz-adv-x="1097" >
<font-face units-per-em="2048" ascent="1802" descent="-246" />
<missing-glyph horiz-adv-x="1040" />
<glyph horiz-adv-x="2048" />
<glyph horiz-adv-x="2048" />
<glyph unicode="&#xd;" horiz-adv-x="1040" />
<glyph unicode=" "  horiz-adv-x="1040" />
<glyph unicode="&#x09;" horiz-adv-x="1040" />
<glyph unicode="&#xa0;" horiz-adv-x="1040" />
<glyph unicode="!" horiz-adv-x="454" d="M152 53q0 92 75 92q74 0 74 -88q0 -82 -78 -82q-71 0 -71 78zM176 1546h98l-16 -1157h-65z" />
<glyph unicode="&#x22;" horiz-adv-x="657" d="M147 1587h103l-25 -487h-53zM406 1587h102l-25 -487h-53z" />
<glyph unicode="#" horiz-adv-x="1028" d="M84 496v63h199l51 416h-205v65h211l61 482h76l-59 -482h264l59 482h76l-57 -482h192v-65h-200l-50 -416h205v-61h-213l-59 -498h-78l59 498h-262l-59 -498h-78l59 496h-192zM360 559h265l47 416h-260z" />
<glyph unicode="$" horiz-adv-x="1087" d="M166 156l45 57q121 -104 293 -104q133 0 221 88q86 86 86 213q0 215 -266 344q-182 82 -262 166q-92 94 -93 227q0 137 91 229q86 90 225 109v246h74v-246q152 -4 268 -88l-47 -60q-111 86 -250 86q-137 0 -217 -86q-70 -76 -70 -176q0 -113 70 -186q63 -68 221 -141 q332 -160 332 -418q0 -133 -84 -236q-92 -109 -246 -131v-246h-74v246q-186 0 -317 107z" />
<glyph unicode="%" horiz-adv-x="1632" d="M76 1053q0 211 90 340q86 123 219 123q158 -1 236 -142q63 -115 63 -303q0 -229 -90 -352q-84 -115 -219 -115q-125 0 -205 105q-94 121 -94 344zM147 1059q0 -170 60 -281q63 -115 170 -114q119 0 178 118q55 106 55 285q0 389 -227 389q-127 1 -190 -151 q-45 -111 -46 -246zM332 -29l897 1549h76l-895 -1549h-78zM961 438q0 209 90 338q86 125 219 125q155 0 233 -141q63 -117 64 -303q0 -227 -90 -353q-84 -115 -217 -114q-125 0 -207 104q-92 121 -92 344zM1032 444q0 -168 60 -278q63 -117 170 -117q117 0 178 119 q53 106 53 285q0 387 -227 387q-128 0 -189 -152q-45 -106 -45 -244z" />
<glyph unicode="&#x26;" horiz-adv-x="1239" d="M72 406q0 279 305 458v6q-137 186 -137 342q0 147 88 250q94 109 243 109q119 0 197 -82q80 -82 80 -217q0 -246 -371 -424v-6l484 -555q125 180 163 518h70q-59 -401 -190 -559l239 -246h-98q-51 53 -184 186q-211 -211 -467 -211q-176 0 -299 123q-123 125 -123 308z M147 412q0 -162 103 -269q104 -109 264 -108q234 -1 404 196l-207 238q-170 193 -295 342q-268 -152 -269 -399zM313 1221q0 -141 127 -324q334 170 334 367q0 98 -49 166q-57 82 -168 81q-114 0 -182 -90q-61 -82 -62 -200z" />
<glyph unicode="'" horiz-adv-x="385" d="M147 1587h103l-25 -487h-53z" />
<glyph unicode="(" horiz-adv-x="593" d="M158 651q0 539 331 948h80q-334 -403 -333 -950q0 -510 333 -934h-80q-332 401 -331 936z" />
<glyph unicode=")" horiz-adv-x="593" d="M20 -285q334 420 334 944q0 526 -334 940h80q334 -403 334 -944q0 -528 -334 -940h-80z" />
<glyph unicode="*" horiz-adv-x="858" d="M68 1171v89l321 -17v4l-192 273l86 47l151 -289h6l146 293l86 -47l-197 -281v-4l332 21v-89l-330 23v-6l197 -268l-90 -52l-148 293h-6l-160 -295l-73 52l194 272v8z" />
<glyph unicode="+" horiz-adv-x="1368" d="M94 578v71h551v572h80v-572h551v-71h-551v-578h-80v578h-551z" />
<glyph unicode="," horiz-adv-x="356" d="M70 -291q74 190 110 461l111 23q-74 -322 -160 -476z" />
<glyph unicode="-" horiz-adv-x="671" d="M70 596v76h536v-76h-536z" />
<glyph unicode="." horiz-adv-x="370" d="M125 55q0 92 76 92t75 -88q0 -84 -77 -84q-74 0 -74 80z" />
<glyph unicode="/" horiz-adv-x="804" d="M-37 -92l768 1663h94l-774 -1663h-88z" />
<glyph unicode="0" horiz-adv-x="1093" d="M90 752q0 397 150 612q129 182 323 182q195 0 311 -178q131 -199 132 -584q0 -406 -132 -612q-121 -197 -342 -197q-241 0 -358 297q-84 211 -84 480zM164 770q0 -270 78 -471q100 -264 301 -264q197 0 297 217q90 193 90 518q0 330 -90 516q-98 201 -287 201 q-170 0 -281 -201q-109 -203 -108 -516z" />
<glyph unicode="1" d="M279 1352l266 170h69v-1522h-71v1444h-4l-234 -148z" />
<glyph unicode="2" horiz-adv-x="1093" d="M109 0v47l127 139q352 381 382 420q231 293 232 508q0 373 -338 373q-166 0 -315 -139l-35 49q160 150 364 149q207 0 314 -143q86 -113 86 -266q0 -215 -158 -445q-125 -182 -459 -514l-104 -110v-5h764v-63h-860z" />
<glyph unicode="3" d="M104 78l41 59q139 -102 310 -102q211 0 317 139q80 104 80 242q0 188 -141 291q-125 90 -316 90h-88v61h94q147 0 261 80q131 94 131 250q0 125 -68 205q-78 94 -231 94q-156 0 -287 -115l-39 55q139 119 330 119q190 0 288 -112q82 -94 82 -238q0 -252 -278 -360v-5 q147 -31 239 -135q98 -113 99 -274q0 -184 -115 -305q-131 -141 -371 -142q-201 0 -338 103z" />
<glyph unicode="4" d="M18 463v49l752 1010h39v-996h233v-63h-233v-463h-72v463h-719zM117 526h620v660q0 100 6 194l-6 2q-29 -53 -112 -178l-508 -674v-4z" />
<glyph unicode="5" d="M94 78l39 59q150 -102 301 -102q170 0 287 123q117 125 117 305q0 182 -105 293q-115 119 -330 118q-125 0 -213 -18l99 666h618v-64h-555l-80 -532q164 10 142 10q195 0 334 -100q166 -125 165 -355q0 -225 -145 -368q-137 -137 -336 -138q-205 0 -338 103z" />
<glyph unicode="6" d="M86 606q0 432 250 699q225 242 534 241v-69q-102 -4 -165 -19q-223 -51 -377 -264q-143 -197 -164 -436h4q129 227 391 227q205 0 328 -137q119 -135 119 -348t-113 -361q-125 -164 -338 -164q-199 0 -328 158q-141 172 -141 473zM162 592q0 -219 88 -371 q109 -186 315 -186q164 0 264 131q100 129 101 330q0 205 -113 321q-104 109 -272 109q-143 0 -269 -121q-115 -111 -114 -213z" />
<glyph unicode="7" d="M147 1458v64h844v-58l-669 -1464h-89l682 1454v4h-768z" />
<glyph unicode="8" horiz-adv-x="1093" d="M94 377q0 293 330 432v10q-266 117 -266 342q0 176 125 285q115 100 282 100q174 0 281 -104q100 -98 100 -254q0 -250 -276 -377v-8q330 -127 329 -402q0 -188 -137 -311q-131 -115 -315 -115q-190 0 -320 113q-133 115 -133 289zM170 397q0 -160 111 -262 q106 -100 264 -100q174 0 278 104q100 98 101 248q0 158 -105 254q-94 86 -303 145q-147 -47 -240 -141q-106 -109 -106 -248zM231 1180q0 -258 347 -346q291 104 290 348q0 119 -65 202q-84 102 -244 103q-137 0 -229 -80q-98 -86 -99 -227z" />
<glyph unicode="9" d="M115 1012q0 223 125 374q131 160 340 160q186 0 305 -155q127 -170 127 -478q0 -430 -234 -696q-221 -254 -542 -242v70q55 -2 167 14q444 88 535 707l-4 -2q-154 -211 -399 -211q-199 0 -316 143q-104 129 -104 316zM190 1018q0 -180 101 -293q98 -113 254 -113 q162 0 286 115q109 96 109 174q0 242 -84 397q-98 188 -293 189q-166 0 -272 -139q-100 -133 -101 -330z" />
<glyph unicode=":" horiz-adv-x="366" d="M125 55q0 92 76 92t75 -88q0 -84 -77 -84q-74 0 -74 80zM125 926q0 92 76 92t75 -88q0 -86 -77 -86q-74 0 -74 82z" />
<glyph unicode=";" horiz-adv-x="370" d="M68 -291q74 180 112 461l111 23q-70 -307 -158 -476zM147 926q0 92 76 92t76 -88q0 -86 -76 -86t-76 82z" />
<glyph unicode="&#x3c;" horiz-adv-x="1361" d="M166 580v61l1032 580v-86l-946 -525v-4l946 -520v-86z" />
<glyph unicode="=" horiz-adv-x="1361" d="M92 371v71h1184v-71h-1184zM92 801v69h1184v-69h-1184z" />
<glyph unicode="&#x3e;" horiz-adv-x="1357" d="M168 0v88l944 518v4l-944 523v88l1032 -582v-59z" />
<glyph unicode="?" horiz-adv-x="851" d="M121 1481q115 92 280 92q160 0 252 -100q82 -88 82 -222q0 -160 -200 -405q-152 -193 -140 -387l4 -76h-67l-8 61q-2 16 -2 50q0 197 149 380q188 225 188 377q0 117 -69 189q-72 74 -199 73q-139 0 -237 -83zM289 59q0 88 76 88t75 -88q0 -84 -75 -84q-76 0 -76 84z" />
<glyph unicode="@" horiz-adv-x="1617" d="M82 473q0 371 223 623q231 266 598 266q293 0 471 -188q174 -182 174 -474q0 -250 -121 -405q-113 -143 -264 -143q-61 0 -102 43q-49 49 -49 137q0 27 2 41h-6q-135 -221 -353 -221q-96 0 -163 73q-74 80 -74 205q0 219 160 385q162 168 389 168q119 0 221 -41l-84 -407 q-18 -92 -19 -154q0 -154 97 -154q106 0 186 127q86 133 86 324q0 276 -149 440q-152 168 -418 168q-303 0 -506 -223q-207 -229 -207 -584q0 -283 170 -465q168 -180 422 -180q205 0 360 94l33 -69q-166 -100 -399 -101q-287 0 -479 193q-199 201 -199 522zM498 426 q0 -88 47 -145q51 -59 141 -60q119 0 229 131q96 115 123 242l64 295q-70 25 -154 24q-184 0 -317 -145q-133 -143 -133 -342z" />
<glyph unicode="A" horiz-adv-x="1310" d="M72 0l573 1546h53l568 -1546h-72l-209 563h-635l-205 -563h-73zM373 625h590l-205 551q-57 160 -86 272h-4q-39 -137 -86 -268z" />
<glyph unicode="B" horiz-adv-x="1126" d="M193 2v1522q143 35 288 35q479 0 480 -383q0 -117 -78 -213q-74 -92 -191 -132v-8q121 -27 211 -108q119 -113 119 -287q0 -176 -109 -289q-136 -149 -467 -149h-4q-78 0 -249 12zM264 66q61 -16 199 -17q209 0 334 82q149 95 149 288q0 189 -145 290q-129 86 -330 86 h-207v-729zM264 854h244q168 0 274 94q102 90 103 228v2q0 319 -418 319q-111 0 -203 -20v-623z" />
<glyph unicode="C" horiz-adv-x="1298" d="M88 766q0 350 201 571q213 233 575 234q219 0 355 -68l-29 -59q-133 69 -315 69h-5q-328 0 -518 -204q-188 -203 -188 -549q0 -330 180 -524q182 -199 500 -199q209 0 356 76l29 -56q-156 -80 -422 -80q-297 0 -492 183q-227 211 -227 606z" />
<glyph unicode="D" horiz-adv-x="1462" d="M193 0v1526q233 33 382 33q377 0 584 -183q221 -193 221 -565q0 -483 -327 -688q-213 -133 -529 -133q-217 0 -331 10zM264 63q90 -16 260 -16q383 0 588 209q193 199 193 551q0 328 -181 506q-190 186 -561 186q-156 0 -299 -29v-1407z" />
<glyph unicode="E" horiz-adv-x="1042" d="M193 0v1546h733v-63h-662v-635h625v-64h-625v-721h699v-63h-770z" />
<glyph unicode="F" horiz-adv-x="1046" d="M193 0v1546h735v-63h-664v-652h606v-63h-606v-768h-71z" />
<glyph unicode="G" horiz-adv-x="1417" d="M88 770q0 336 197 553q217 240 598 240q203 0 348 -68l-29 -57q-148 67 -318 67h-5q-330 0 -525 -207q-190 -201 -190 -528q0 -307 172 -508q186 -219 516 -219q227 0 346 63v578h-375v64h451v-680q-201 -84 -440 -84q-352 0 -551 219q-195 211 -195 567z" />
<glyph unicode="H" horiz-adv-x="1423" d="M193 0v1546h71v-692h895v692h72v-1546h-72v793h-895v-793h-71z" />
<glyph unicode="I" horiz-adv-x="462" d="M193 0v1546h71v-1546h-71z" />
<glyph unicode="J" horiz-adv-x="770" d="M23 10l18 62q84 -37 162 -37q180 0 256 133q63 109 63 328v1050h72v-1081q0 -489 -395 -490q-115 0 -176 35z" />
<glyph unicode="K" horiz-adv-x="1122" d="M193 0v1546h71v-798h8q33 43 136 153l581 645h86l-602 -661l664 -885h-90l-621 838l-162 -176v-662h-71z" />
<glyph unicode="L" horiz-adv-x="1005" d="M193 0v1546h71v-1483h701v-63h-772z" />
<glyph unicode="M" horiz-adv-x="1761" d="M147 0l113 1546h76l360 -948q139 -377 176 -492h5q27 90 178 484l372 956h82l105 -1546h-72l-47 754q-35 513 -35 675v17h-6q-115 -324 -213 -572l-346 -878h-47l-326 856q-158 424 -207 594h-6q-8 -336 -37 -715l-51 -731h-74z" />
<glyph unicode="N" horiz-adv-x="1427" d="M193 0v1546h67l641 -966q219 -336 289 -476l4 5q-14 207 -14 618v819h71v-1546h-71l-623 946q-236 362 -299 488l-6 -2q12 -162 12 -601v-831h-71z" />
<glyph unicode="O" horiz-adv-x="1515" d="M88 758q0 377 199 600q190 213 485 213q293 0 477 -211q186 -215 187 -572q0 -389 -211 -612q-190 -201 -469 -201q-287 0 -471 207q-197 217 -197 576zM164 760q0 -274 151 -486q169 -239 441 -239h2q276 0 446 225q156 211 156 522q0 285 -141 490q-161 239 -447 239 h-2h-2q-291 0 -457 -239q-147 -209 -147 -512z" />
<glyph unicode="P" d="M193 0v1528q158 31 307 31q260 0 395 -129q117 -113 117 -297q0 -233 -164 -361q-150 -115 -385 -115q-109 0 -199 21v-678h-71zM264 741q73 -24 193 -24h10q219 0 344 104q125 106 125 299t-131 291q-119 88 -316 88q-106 0 -225 -22v-736z" />
<glyph unicode="Q" horiz-adv-x="1521" d="M88 756q0 377 199 602q188 213 487 213q291 0 473 -209q188 -215 189 -574q0 -317 -140 -524q-131 -193 -366 -264v-8q330 -78 522 -109l-22 -73q-174 37 -576 143l-82 22q-299 4 -485 207q-199 211 -199 574zM164 756q0 -295 162 -502q170 -219 430 -219q281 0 448 225 q156 209 156 522q0 283 -141 490q-161 239 -441 239h-2h-2q-296 0 -463 -237q-147 -209 -147 -518z" />
<glyph unicode="R" horiz-adv-x="1126" d="M193 0v1526q147 33 313 33q276 0 401 -132q104 -100 105 -270q0 -299 -307 -403v-4q186 -57 243 -334q70 -332 115 -416h-76q-35 61 -100 381q-76 346 -361 346h-262v-727h-71zM264 786h254q186 0 301 99q117 98 117 258q0 356 -440 356q-131 0 -232 -26v-687z" />
<glyph unicode="S" horiz-adv-x="1028" d="M96 82l37 57q150 -102 328 -102q180 0 289 100q102 96 102 248q0 139 -72 227q-74 88 -243 154q-395 139 -396 424q0 166 123 274q121 106 307 107q193 0 295 -76l-37 -57q-93 73 -254 73h-4q-180 0 -276 -102q-80 -84 -80 -201q0 -133 76 -217q74 -82 248 -151 q203 -82 288 -174q100 -106 101 -273q0 -176 -119 -291q-129 -125 -352 -125q-219 0 -361 105z" />
<glyph unicode="T" horiz-adv-x="1038" d="M-33 1483v63h1106v-63h-516v-1483h-72v1483h-518z" />
<glyph unicode="U" horiz-adv-x="1417" d="M193 594v952h71v-934q0 -293 127 -442q115 -135 305 -135q209 0 328 139q127 152 127 438v934h72v-932q0 -332 -162 -497q-139 -141 -371 -142q-213 0 -342 134q-156 160 -155 485z" />
<glyph unicode="V" horiz-adv-x="1126" d="M-6 1546h80l286 -858q139 -414 187 -592h4q57 207 203 592l321 858h80l-580 -1546h-65z" />
<glyph unicode="W" horiz-adv-x="1875" d="M29 1546h80l241 -909q100 -383 131 -518h4q25 123 144 520l272 907h78l240 -897q109 -418 129 -534h6q37 166 143 522l275 909h83l-473 -1546h-69l-248 922q-102 373 -127 528h-4q-31 -162 -141 -522l-283 -928h-68z" />
<glyph unicode="X" horiz-adv-x="1228" d="M70 0l497 786l-477 760h94l267 -436q113 -178 159 -258h4q39 66 168 258l281 436h94l-504 -753l506 -793h-92l-250 397q-137 205 -209 322h-6q-76 -133 -201 -326l-237 -393h-94z" />
<glyph unicode="Y" horiz-adv-x="1107" d="M33 1546h90l268 -477q123 -223 176 -332h6l187 336l276 473h92l-528 -876v-670h-72v676z" />
<glyph unicode="Z" horiz-adv-x="1228" d="M82 0v55l954 1422v6h-874v63h973v-53l-959 -1421v-9h971v-63h-1065z" />
<glyph unicode="[" horiz-adv-x="589" d="M211 -256v1829h379v-64h-301v-1702h301v-63h-379z" />
<glyph unicode="\" horiz-adv-x="804" d="M-16 1571h90l766 -1663h-90z" />
<glyph unicode="]" horiz-adv-x="589" d="M-2 -193h301v1702h-301v64h379v-1829h-379v63z" />
<glyph unicode="^" horiz-adv-x="1372" d="M176 457l465 1034h86l467 -1034h-84l-424 952h-4l-424 -952h-82z" />
<glyph unicode="_" horiz-adv-x="1148" d="M0 -154h1147v-102h-1147v102z" />
<glyph unicode="`" horiz-adv-x="688" d="M86 1575h135l203 -313h-59z" />
<glyph unicode="a" horiz-adv-x="1019" d="M94 270q0 190 166 295q167 103 488 103h18q0 162 -37 243q-68 150 -258 150q-147 0 -270 -88l-29 53q137 96 305 96q360 0 361 -428v-434q0 -160 16 -260h-68l-16 166h-4q-117 -190 -354 -191q-154 0 -242 95q-76 82 -76 200zM168 283q0 -121 74 -189q68 -59 166 -59 q172 0 276 119q80 92 80 186v264h-41q-555 0 -555 -321z" />
<glyph unicode="b" horiz-adv-x="1232" d="M184 0q8 104 9 244v1384h71v-749h4q124 243 410 243h2q211 0 342 -157q131 -156 131 -404q0 -281 -156 -442q-137 -143 -331 -144q-268 0 -402 232h-6l-6 -207h-68zM264 424q0 -141 107 -260q119 -129 288 -129q195 0 310 149q110 142 110 371q0 213 -104 354 q-115 152 -303 152q-180 0 -301 -148q-106 -129 -107 -270v-219z" />
<glyph unicode="c" horiz-adv-x="1024" d="M98 537q0 262 160 426q155 159 392 159h3q193 0 291 -80l-33 -53q-123 74 -260 74q-223 0 -356 -158q-123 -145 -123 -360q0 -225 129 -367q127 -141 328 -141q123 0 282 72l29 -54q-156 -78 -324 -78q-231 0 -374 158q-143 156 -144 402z" />
<glyph unicode="d" horiz-adv-x="1230" d="M98 528v7q0 263 144 428q140 159 349 159h3q109 0 211 -55q106 -57 156 -149h6v710h71v-1384q0 -115 11 -244h-68l-6 219h-6q-49 -109 -162 -176q-109 -68 -236 -68q-205 0 -338 154q-135 156 -135 399zM172 539q0 -203 104 -346q117 -158 308 -158q166 0 280 135 q102 123 103 270v226q0 170 -109 284q-106 113 -266 113q-188 0 -305 -148q-115 -147 -115 -376z" />
<glyph unicode="e" horiz-adv-x="1085" d="M96 528q0 276 142 441q132 153 339 153h3q221 0 331 -170q86 -135 86 -340q0 -25 -2 -34h-825v-9q0 -252 115 -391q113 -141 321 -141q162 0 305 69l25 -55q-123 -74 -340 -74q-227 0 -365 156q-135 152 -135 395zM178 641h740v9q0 136 -62 249q-92 166 -285 166 q-174 0 -284 -143q-90 -117 -109 -281z" />
<glyph unicode="f" horiz-adv-x="593" d="M31 1034v64h162v63q0 281 118 400q92 94 234 94q98 0 162 -43l-33 -53q-64 36 -138 36h-4q-268 0 -268 -434v-63h305v-64h-305v-1034h-71v1034h-162z" />
<glyph unicode="g" horiz-adv-x="1239" d="M96 537q0 279 156 440q139 145 336 145q285 0 383 -221h4l6 197h68q-8 -113 -9 -277v-659q0 -367 -149 -512q-137 -129 -359 -129q-201 0 -342 98l35 55q139 -94 320 -94q201 0 311 127q113 129 113 361v159h-6q-113 -233 -394 -233q-205 0 -340 162q-133 156 -133 381z M170 551q0 -219 117 -358q119 -139 301 -140q158 0 272 129q109 121 109 271v227q0 74 -13 111q-96 272 -360 272q-190 0 -311 -156q-115 -147 -115 -356z" />
<glyph unicode="h" horiz-adv-x="1204" d="M193 0v1628h71v-737h4q129 231 381 231q133 0 228 -69q152 -115 151 -387v-666h-72v657q0 172 -69 279q-84 125 -250 125q-143 0 -256 -115q-117 -117 -117 -274v-672h-71z" />
<glyph unicode="i" horiz-adv-x="444" d="M229 1495q72 0 72 -82t-74 -82q-71 0 -71 80q0 84 73 84zM193 0v1098h71v-1098h-71z" />
<glyph unicode="j" horiz-adv-x="458" d="M-117 -420q211 14 277 176q41 102 41 383v959h71v-1030q0 -305 -110 -430q-98 -109 -266 -115zM164 1413q0 33 22 57q23 25 54 25q72 0 71 -82q1 -82 -73 -82t-74 82z" />
<glyph unicode="k" horiz-adv-x="921" d="M193 0v1628h71v-1073h4l523 543h92l-453 -457l516 -641h-90l-475 596l-117 -119v-477h-71z" />
<glyph unicode="l" horiz-adv-x="450" d="M193 0v1628h71v-1628h-71z" />
<glyph unicode="m" horiz-adv-x="1853" d="M184 1098h70l6 -203h4q123 227 363 227q113 0 198 -71q84 -70 117 -179h4q111 250 381 250q121 0 211 -75q143 -121 143 -400v-647h-71v639q0 422 -305 422q-131 0 -234 -113q-98 -109 -98 -237v-711h-72v692q0 162 -74 262q-78 106 -215 107q-141 0 -247 -125 q-100 -119 -101 -256v-680h-71v850q0 135 -9 248z" />
<glyph unicode="n" horiz-adv-x="1210" d="M184 1098h70l6 -205h4q127 229 385 229q125 0 221 -71q158 -119 158 -392v-659h-72v653q0 176 -71 283q-84 125 -252 125q-156 0 -266 -123q-102 -115 -103 -252v-686h-71v850q0 135 -9 248z" />
<glyph unicode="o" horiz-adv-x="1216" d="M96 539q0 270 156 434q142 149 349 149h2.5h3.5q226 0 362 -157q137 -156 137 -406q0 -285 -170 -446q-143 -137 -344 -138q-215 0 -352 154q-143 158 -144 410zM170 545q0 -207 123 -357q124 -153 299 -153h2q182 0 309 145q129 147 129 371q0 199 -100 344 q-119 168 -326 168q-205 0 -325 -162q-111 -145 -111 -356z" />
<glyph unicode="p" horiz-adv-x="1247" d="M182 1098h74l6 -219h4q128 243 410 243h2q213 0 346 -157q129 -156 129 -398q0 -283 -152 -444q-137 -147 -348 -148q-260 0 -387 218h-4v-648h-72v1205q0 209 -8 348zM262 432q0 -170 125 -287q118 -110 267 -110h3q195 0 312 151q110 144 110 373q0 217 -108 359 q-113 145 -299 145q-178 0 -301 -143q-109 -127 -109 -273v-215z" />
<glyph unicode="q" horiz-adv-x="1234" d="M96 528q0 295 162 457q139 137 340 137q141 0 250 -75q86 -63 125 -154h4l6 205h66q-10 -96 -11 -277v-1276h-71v658h-6q-106 -227 -390 -228q-205 0 -340 156q-135 158 -135 397zM170 541q0 -215 113 -359q117 -147 301 -147q172 0 286 143q96 123 97 250v238 q0 168 -107 282q-106 115 -266 115q-186 0 -303 -141q-121 -143 -121 -381z" />
<glyph unicode="r" horiz-adv-x="649" d="M184 1098h68l4 -230h6q37 109 115 179q87 75 195 75h3q20 0 41 -6v-63q-37 4 -47 4q-133 0 -219 -129q-86 -127 -86 -314v-614h-71v774q0 182 -9 324z" />
<glyph unicode="s" horiz-adv-x="843" d="M102 55l35 60q123 -78 238 -78q111 0 190 61q86 68 86 174q0 172 -241 271q-272 109 -273 293q0 119 84 200q90 86 236 86q133 0 233 -73l-37 -56q-96 70 -202 70q-109 0 -177 -64q-63 -61 -63 -145q0 -150 233 -248q281 -113 281 -321q0 -139 -100 -226 q-98 -82 -254 -82q-147 0 -269 78z" />
<glyph unicode="t" horiz-adv-x="690" d="M43 1034v64h190v200l72 33v-233h324v-64h-324v-755q0 -242 172 -242q68 0 121 20l16 -53q-66 -27 -141 -27q-240 0 -240 326v731h-190z" />
<glyph unicode="u" horiz-adv-x="1185" d="M182 459v639h72v-617q0 -446 315 -446q143 0 254 115q113 115 113 266v682h72v-844q0 -141 8 -254h-68l-8 201h-4q-117 -225 -377 -226q-141 0 -235 82q-141 121 -142 402z" />
<glyph unicode="v" horiz-adv-x="1005" d="M29 1098h86l272 -711q90 -219 113 -291h4q33 94 117 291l278 711h80l-451 -1098h-61z" />
<glyph unicode="w" horiz-adv-x="1622" d="M35 1098h84l198 -654q66 -219 99 -338h4q31 109 115 336l231 656h82l227 -649q66 -186 109 -343h8q23 92 102 338l211 654h84l-377 -1098h-59l-223 647q-82 233 -119 373h-6q-27 -102 -129 -373l-234 -647h-61z" />
<glyph unicode="x" horiz-adv-x="935" d="M29 0l405 561l-381 537h88l199 -283q88 -127 129 -192h4q25 41 66 96q57 78 67 94l199 285h86l-385 -537l401 -561h-88l-207 293q-76 106 -143 209h-4q-35 -57 -143 -209l-203 -293h-90z" />
<glyph unicode="y" horiz-adv-x="983" d="M23 1098h81l306 -756q47 -123 86 -231h4l374 987h80l-340 -834q-162 -410 -268 -553q-90 -125 -274 -217l-27 57q190 74 315 285q86 145 86 199q0 10 -14 45z" />
<glyph unicode="z" horiz-adv-x="903" d="M35 0v47l629 834q111 141 118 149v4h-696v64h782v-56l-628 -831q-57 -76 -113 -143v-5h741v-63h-833z" />
<glyph unicode="{" horiz-adv-x="598" d="M57 690q197 -4 197 195q0 84 -21 192q-23 150 -22 203q0 145 92 223q86 70 227 70h19v-62q-111 0 -164 -28q-96 -53 -96 -205q0 -70 20 -193q23 -139 23 -188q0 -186 -139 -233v-5q139 -31 139 -235q0 -63 -21 -186q-23 -121 -22 -197q0 -154 98 -207q55 -29 162 -29v-61 q-338 0 -338 315q0 68 20 195q23 117 23 188q0 193 -195 189z" />
<glyph unicode="|" horiz-adv-x="450" d="M193 -573v2293h75v-2293h-75z" />
<glyph unicode="}" horiz-adv-x="598" d="M41 -195q111 0 164 29q98 53 98 207q0 84 -24 197q-23 113 -23 186q0 201 139 235v5q-139 47 -139 233q0 80 25 188q23 113 22 193q0 152 -96 205q-55 29 -166 28v62h20q141 0 228 -70q92 -78 92 -223q0 -68 -25 -203q-23 -121 -22 -192q0 -199 196 -195v-59 q-197 4 -196 -189q0 -80 24 -188q23 -117 23 -195q0 -315 -340 -315v61z" />
<glyph unicode="~" horiz-adv-x="681" d="M100 1319q0 184 131 184q29 0 136 -53q66 -33 96 -33q59 0 65 92h62q-4 -176 -127 -176q-43 0 -127 47q-82 41 -109 41q-55 0 -63 -102h-64z" />
<glyph unicode="&#xa1;" horiz-adv-x="444" d="M152 1024q4 86 75 86q74 0 74 -86q0 -84 -76 -84q-31 0 -53 27q-20 25 -20 57zM178 -453l17 1147h63l16 -1147h-96z" />
<glyph unicode="&#xa2;" horiz-adv-x="1085" d="M137 758q0 238 129 395q127 154 326 178v244h74v-244q158 0 278 -74l-37 -61q-117 74 -268 74q-190 0 -311 -154q-115 -145 -115 -354q0 -221 117 -359q115 -135 295 -135q150 0 284 78l29 -53q-115 -76 -272 -84v-248h-74v248q-223 18 -342 172q-113 143 -113 377z" />
<glyph unicode="&#xa3;" horiz-adv-x="1089" d="M137 0v49q264 158 264 471q0 104 -14 228h-246v63h242q-35 199 -35 307q0 195 109 314q104 115 264 114q135 0 233 -59l-30 -55q-90 55 -207 55q-137 0 -215 -101q-76 -98 -76 -258q0 -147 31 -317h338v-63h-330q12 -135 12 -205q0 -86 -12 -144q-49 -213 -207 -329v-7 h752v-63h-873z" />
<glyph unicode="&#xa4;" horiz-adv-x="1089" d="M86 332l141 147q-92 111 -92 281q0 166 101 299l-150 149l57 62l144 -158q104 104 262 105q164 0 260 -105l152 158l57 -60l-160 -151q88 -117 88 -281q0 -170 -82 -289l148 -157l-58 -60l-145 158q-102 -104 -270 -104q-166 0 -256 94l-142 -148zM213 764 q0 -180 113 -287q92 -90 211 -90q131 0 223 88q109 104 108 301q0 152 -86 260q-94 119 -241 119q-154 0 -244 -123q-84 -111 -84 -268z" />
<glyph unicode="&#xa5;" horiz-adv-x="1089" d="M63 1522h87l296 -578q47 -92 86 -178h7q8 25 94 186l313 570h86l-430 -750h318v-63h-355v-197h355v-63h-355v-449h-71v449h-351v63h351v197h-351v63h320z" />
<glyph unicode="&#xa6;" horiz-adv-x="458" d="M190 399h76v-802h-76v802zM190 743v803h76v-803h-76z" />
<glyph unicode="&#xa7;" horiz-adv-x="1107" d="M162 825q0 139 149 262q-78 63 -78 177q0 133 105 219q100 82 250 82q166 0 278 -82l-41 -58q-123 80 -250 80q-106 0 -184 -61q-86 -66 -86 -164q0 -106 94 -172q55 -37 228 -98q156 -57 227 -121q92 -82 92 -207q0 -160 -133 -276q78 -78 78 -197q0 -150 -107 -238 q-102 -84 -270 -84q-160 0 -299 93l43 61q125 -94 264 -94q129 0 211 65q88 70 88 185q0 102 -61 163q-66 66 -248 134q-184 68 -260 135q-90 78 -90 196zM236 827q-1 -154 284 -256q158 -59 248 -122q104 86 104 223q0 172 -251 260q-184 66 -265 119q-121 -92 -120 -224z " />
<glyph unicode="&#xa8;" horiz-adv-x="690" d="M84 1411q0 31 22 55q23 23 52 23q74 0 73 -78q0 -78 -77 -78q-70 0 -70 78zM457 1411q0 31 22 55q20 23 51 23q74 0 74 -78t-76 -78q-71 0 -71 78z" />
<glyph unicode="&#xa9;" horiz-adv-x="1544" d="M90 780q0 293 201 500q201 205 491 205q287 0 486 -207q195 -205 194 -498q0 -297 -196 -501q-197 -207 -486 -207q-291 0 -489 204q-201 205 -201 504zM174 770q0 -279 182 -461q174 -176 424 -176q256 -2 428 184q172 184 172 463q0 268 -168 453q-170 188 -432 188 t-434 -186t-172 -465zM403 766q0 190 129 311q121 115 299 115q176 0 256 -59l-20 -62q-109 57 -225 57q-176 0 -271 -106q-86 -96 -86 -250t88 -250q96 -104 271 -104q135 0 237 65l21 -57q-109 -76 -279 -76q-193 0 -309 121q-111 117 -111 295z" />
<glyph unicode="&#xaa;" horiz-adv-x="722" d="M76 813q0 121 117 191q125 74 350 63q0 221 -197 221q-104 0 -184 -65l-27 55q96 78 221 78q258 0 258 -324v-244q0 -80 13 -178h-70l-8 115h-6q-84 -127 -236 -127q-111 0 -174 64q-57 59 -57 151zM158 813q0 -70 47 -111q45 -37 110 -36q94 0 166 67q59 57 60 103v165 q-383 10 -383 -188z" />
<glyph unicode="&#xab;" horiz-adv-x="876" d="M70 578l336 409h94l-336 -409l336 -410h-94zM385 578l336 409h94l-336 -409l338 -410h-94z" />
<glyph unicode="&#xac;" horiz-adv-x="1361" d="M92 797v71h1184v-561h-80v490h-1104z" />
<glyph unicode="&#xad;" horiz-adv-x="671" d="M70 596v76h536v-76h-536z" />
<glyph unicode="&#xae;" horiz-adv-x="884" d="M76 1204q-1 156 110 260q106 100 260 101q152 0 256 -105q104 -104 105 -256q0 -156 -105 -260q-104 -106 -258 -106q-156 0 -262 106q-106 104 -106 260zM147 1204q1 -129 89 -219q86 -88 210 -88q121 0 205 90q82 88 82 213q0 129 -82 217q-84 90 -211 90 q-123 0 -209 -90q-84 -88 -84 -213zM309 999v385q82 12 129 13q154 0 154 -111q0 -66 -72 -92v-6q47 -16 62 -90q16 -80 28 -99h-63q-14 16 -33 105q-8 43 -43 55q-25 8 -98 8v-168h-64zM373 1214q156 0 155 68q0 66 -96 66q-35 0 -59 -5v-129z" />
<glyph unicode="&#xaf;" horiz-adv-x="913" d="M0 1786v106h913v-106h-913z" />
<glyph unicode="&#xb0;" horiz-adv-x="663" d="M61 1292q0 119 74 199q76 82 193 82q126 0 200 -86q63 -76 64 -180q0 -123 -84 -203q-80 -76 -184 -76q-115 0 -191 80q-72 76 -72 184zM133 1292q0 -84 55 -143q53 -59 136 -59q84 0 139 61t55 154q0 92 -53 149t-143 57q-97 1 -148 -77q-41 -61 -41 -142z" />
<glyph unicode="&#xb1;" horiz-adv-x="1361" d="M94 0v72h1182v-72h-1182zM94 735v72h551v489h80v-489h551v-72h-551v-506h-80v506h-551z" />
<glyph unicode="&#xb2;" horiz-adv-x="634" d="M25 1016v45l147 139q305 289 305 457q0 203 -207 203q-94 0 -188 -78l-31 43q92 96 234 96q139 0 211 -86q55 -68 55 -156q0 -219 -340 -516l-86 -80v-6h440v-61h-540z" />
<glyph unicode="&#xb3;" horiz-adv-x="616" d="M18 1067l33 57q27 -23 78 -39q70 -20 125 -20q119 0 182 68q51 53 51 127q0 209 -337 208v60h61q82 0 151 43q84 53 87 145q0 55 -39 96q-47 47 -129 48q-106 0 -179 -66l-34 55q102 74 213 74q123 0 186 -65q53 -57 53 -142q0 -147 -164 -209v-6q90 -16 148 -80 q55 -63 55 -151q0 -106 -76 -180q-88 -86 -239 -86q-141 0 -226 63z" />
<glyph unicode="&#xb4;" horiz-adv-x="686" d="M285 1262l204 313h134l-279 -313h-59z" />
<glyph unicode="&#xb5;" horiz-adv-x="1208" d="M193 -43v1141h71v-678q0 -164 76 -266q86 -117 248 -117q145 0 252 113q104 111 104 260v688h72v-844q0 -115 20 -160q25 -53 92 -55l-12 -64q-166 -18 -168 213h-8q-127 -213 -354 -213q-238 0 -318 168v-172q0 -322 27 -426h-68q-35 106 -34 412z" />
<glyph unicode="&#xb6;" horiz-adv-x="1107" d="M80 1047q0 211 123 339q152 160 469 160q111 0 221 -14v-1649h-74v1594h-168v-1594h-73v723q-223 0 -363 125q-135 123 -135 316z" />
<glyph unicode="&#xb7;" horiz-adv-x="370" d="M109 610q0 86 75 86q76 0 76 -86q0 -84 -80 -84q-33 0 -53 27q-18 27 -18 57z" />
<glyph unicode="&#xb8;" horiz-adv-x="679" d="M141 -418l25 68q61 -31 121 -31q113 0 112 88q0 94 -176 109l115 186h74l-86 -131q63 -8 106 -47q47 -43 47 -105q0 -172 -207 -172q-66 0 -131 35z" />
<glyph unicode="&#xb9;" horiz-adv-x="450" d="M53 1817l176 94h62v-895h-66v821h-4l-151 -78z" />
<glyph unicode="&#xba;" horiz-adv-x="759" d="M31 1479q0 201 106 338q102 133 242 133q154 0 250 -125q96 -127 96 -334q0 -227 -115 -356q-96 -111 -231 -111q-152 0 -248 125q-100 129 -100 330zM104 1485q0 -164 86 -277q80 -106 185 -106q135 0 211 123q63 109 63 262q0 154 -65 262q-78 123 -209 123 q-133 0 -209 -133q-61 -111 -62 -254z" />
<glyph unicode="&#xbb;" horiz-adv-x="876" d="M53 987h94l338 -409l-338 -410h-92l332 410zM371 987h94l338 -409l-336 -410h-94l332 410z" />
<glyph unicode="&#xbc;" horiz-adv-x="1597" d="M115 1413l176 92h61v-895h-65v822h-4l-152 -78zM248 -25l893 1541h76l-893 -1541h-76zM864 262v49l430 580h70v-565h135v-64h-135v-262h-72v262h-428zM948 326h344v348q0 57 4 123l-4 2q-14 -25 -75 -121z" />
<glyph unicode="&#xbd;" horiz-adv-x="1597" d="M78 1411l176 92h61v-893h-65v820h-4l-152 -78zM213 -25l893 1541h76l-891 -1541h-78zM922 0v47l147 137q305 287 305 461q0 203 -207 203q-90 0 -190 -78l-29 43q90 94 234 94q139 0 211 -86q55 -66 55 -155q0 -221 -340 -519l-88 -79v-5h442v-63h-540z" />
<glyph unicode="&#xbe;" horiz-adv-x="1597" d="M74 662l32 57q66 -59 203 -60q121 0 185 68q51 53 51 127q0 209 -340 209v59h61q84 0 154 43q84 53 86 146q0 55 -39 96q-47 47 -131 47q-106 0 -178 -65l-35 53q102 74 213 74q125 0 188 -66q53 -57 54 -141q0 -145 -166 -207v-4q92 -16 149 -82q55 -63 55 -150 q0 -106 -75 -182q-88 -86 -242 -86q-141 0 -225 64zM342 -25l895 1541h76l-893 -1541h-78zM897 262v49l430 580h70v-565h135v-64h-135v-262h-72v262h-428zM981 326h344v348q0 57 4 123l-4 2q-14 -25 -76 -121z" />
<glyph unicode="&#xbf;" horiz-adv-x="858" d="M154 -170q0 168 198 408q143 178 144 340q0 31 -2 45l-5 75h68l10 -61q4 -37 4 -55q0 -188 -151 -375q-188 -225 -189 -375q0 -117 68 -186q70 -74 197 -74q129 0 239 82l33 -53q-115 -92 -281 -93q-162 0 -251 101q-82 88 -82 221zM449 1024q0 86 75 86q76 0 76 -86 t-76 -86t-75 86z" />
<glyph unicode="&#xc0;" horiz-adv-x="1310" d="M72 0l573 1546h53l568 -1546h-72l-209 563h-635l-205 -563h-73zM336 1882h137l227 -256h-63zM373 625h590l-205 551q-57 160 -86 272h-4q-39 -137 -86 -268z" />
<glyph unicode="&#xc1;" horiz-adv-x="1310" d="M72 0l573 1546h53l568 -1546h-72l-209 563h-635l-205 -563h-73zM373 625h590l-205 551q-57 160 -86 272h-4q-39 -137 -86 -268zM616 1628l228 256h137l-301 -256h-64z" />
<glyph unicode="&#xc2;" horiz-adv-x="1310" d="M72 0l573 1546h53l568 -1546h-72l-209 563h-635l-205 -563h-73zM373 625h590l-205 551q-57 160 -86 272h-4q-39 -137 -86 -268zM385 1628l240 246h59l250 -246h-105l-172 174h-4l-174 -174h-94z" />
<glyph unicode="&#xc3;" horiz-adv-x="1314" d="M74 0l571 1546h53l568 -1546h-72l-209 563h-633l-205 -563h-73zM373 625h592l-205 551q-51 135 -86 272h-6q-39 -137 -86 -268zM406 1642q-2 74 34 127q39 55 105 56q33 0 127 -49q74 -37 116 -37q59 0 64 84h61q0 -168 -131 -168q-39 0 -133 45q-90 43 -117 43 q-55 0 -65 -101h-61z" />
<glyph unicode="&#xc4;" horiz-adv-x="1314" d="M74 0l573 1546h51l568 -1546h-72l-209 563h-633l-205 -563h-73zM373 625h590l-203 551q-51 135 -86 272h-6q-49 -168 -86 -268zM397 1749q0 33 23 57q23 25 53 25q74 0 74 -82q0 -80 -76 -80q-74 0 -74 80zM776 1749q0 33 23 57q23 25 53 25q74 0 74 -82q0 -80 -76 -80 q-74 0 -74 80z" />
<glyph unicode="&#xc5;" horiz-adv-x="1310" d="M72 0l575 1546h51l568 -1546h-72l-207 563h-637l-203 -563h-75zM373 625h592l-205 551q-57 160 -86 272h-6q-49 -168 -86 -268zM465 1784q0 84 59 139q57 55 142 55q86 0 143 -57q53 -57 53 -137q0 -76 -59 -129q-57 -53 -139 -53q-86 0 -142 53q-57 53 -57 129z M545 1784q0 -47 33 -86q35 -39 84 -39q53 0 88 39q33 39 32 94q0 55 -32 94q-35 37 -88 37q-58 0 -89 -45q-29 -39 -28 -94z" />
<glyph unicode="&#xc6;" horiz-adv-x="1646" d="M-10 0l747 1546h787v-61h-676l74 -639h569v-62h-561l86 -723h551l-2 -61h-609l-82 649h-493l-318 -649h-73zM414 711h454l-57 506q-23 211 -27 274h-10q-33 -78 -115 -258z" />
<glyph unicode="&#xc7;" horiz-adv-x="1292" d="M88 766q0 350 201 571q211 233 573 234h2q217 0 353 -68l-29 -59q-135 70 -320 69q-328 0 -516 -204q-188 -203 -188 -549q0 -332 178 -524q182 -199 500 -199q209 0 356 76l29 -58q-152 -78 -422 -78q-33 0 -103 9l-73 -115q66 -8 110 -51q45 -43 45 -103 q0 -80 -61 -125q-53 -39 -141 -38q-82 0 -136 34l25 70q57 -31 123 -31q109 0 108 82q0 86 -176 107l111 180q-240 49 -383 229q-166 205 -166 541z" />
<glyph unicode="&#xc8;" horiz-adv-x="1042" d="M193 0v1546h733v-63h-662v-635h625v-64h-625v-721h699v-63h-770zM199 1882h135l227 -256h-61z" />
<glyph unicode="&#xc9;" horiz-adv-x="1046" d="M193 0v1546h733v-63h-662v-635h625v-64h-625v-721h699v-63h-770zM477 1628l230 256h137l-303 -256h-64z" />
<glyph unicode="&#xca;" horiz-adv-x="1046" d="M193 0v1546h733v-63h-662v-635h625v-64h-625v-721h699v-63h-770zM246 1628l241 246h60l248 -246h-103l-174 174h-4l-172 -174h-96z" />
<glyph unicode="&#xcb;" horiz-adv-x="1042" d="M193 0v1546h733v-63h-662v-635h625v-64h-625v-721h699v-63h-770zM258 1749q0 33 23 57q23 25 53 25q74 0 74 -82q0 -80 -76 -80q-74 0 -74 80zM639 1749q0 33 23 57q23 25 53 25q74 0 73 -82q0 -80 -75 -80q-74 0 -74 80z" />
<glyph unicode="&#xcc;" horiz-adv-x="456" d="M-94 1882h137l225 -256h-61zM193 0v1546h71v-1546h-71z" />
<glyph unicode="&#xcd;" horiz-adv-x="460" d="M186 1628l228 256h137l-301 -256h-64zM193 0v1546h71v-1546h-71z" />
<glyph unicode="&#xce;" horiz-adv-x="458" d="M-45 1628l240 246h59l248 -246h-103l-172 174h-4l-174 -174h-94zM193 0v1546h71v-1546h-71z" />
<glyph unicode="&#xcf;" horiz-adv-x="458" d="M-35 1749q0 33 23 57q23 25 53 25q74 0 74 -82q0 -80 -76 -80q-74 0 -74 80zM193 0v1546h71v-1546h-71zM346 1749q0 33 23 57q23 25 53 25q74 0 74 -82q0 -80 -76 -80q-74 0 -74 80z" />
<glyph unicode="&#xd0;" horiz-adv-x="1476" d="M-12 752v63h213v711q229 33 381 33q387 0 596 -191q211 -193 211 -559q0 -461 -299 -668q-219 -152 -560 -151q-186 0 -329 12v750h-213zM272 63q109 -16 256 -16q399 0 607 236q176 203 178 530q2 315 -172 492q-193 195 -574 194q-170 0 -295 -29v-655h502v-63h-502 v-689z" />
<glyph unicode="&#xd1;" horiz-adv-x="1454" d="M193 0v1546h67l641 -966q219 -336 289 -476l4 5q-14 207 -14 618v819h71v-1546h-71l-623 946q-236 362 -299 488l-6 -2q12 -162 12 -601v-831h-71zM469 1642q-2 74 35 127q39 55 104 56q33 0 127 -49q74 -37 117 -37q59 0 63 84h62q0 -168 -131 -168q-39 0 -133 45 q-90 43 -117 43q-55 0 -66 -101h-61z" />
<glyph unicode="&#xd2;" horiz-adv-x="1515" d="M88 758q0 377 199 600q190 213 485 213q293 0 477 -211q186 -215 187 -572q0 -389 -211 -612q-190 -201 -469 -201q-287 0 -471 207q-197 217 -197 576zM164 760q0 -274 151 -486q170 -240 443 -239q276 0 446 225q156 211 156 522q0 285 -141 490q-162 240 -449 239 q-293 1 -459 -239q-147 -209 -147 -512zM438 1882h137l228 -256h-64z" />
<glyph unicode="&#xd3;" horiz-adv-x="1515" d="M88 758q0 377 199 600q190 213 485 213q293 0 477 -211q186 -215 187 -572q0 -389 -211 -612q-190 -201 -469 -201q-287 0 -471 207q-197 217 -197 576zM164 760q0 -274 151 -486q170 -240 443 -239q276 0 446 225q156 211 156 522q0 285 -141 490q-162 240 -449 239 q-293 1 -459 -239q-147 -209 -147 -512zM719 1628l227 256h137l-301 -256h-63z" />
<glyph unicode="&#xd4;" horiz-adv-x="1515" d="M88 758q0 377 199 600q190 213 485 213q293 0 477 -211q186 -215 187 -572q0 -389 -211 -612q-190 -201 -469 -201q-287 0 -471 207q-197 217 -197 576zM164 760q0 -274 151 -486q170 -240 443 -239q276 0 446 225q156 211 156 522q0 285 -141 490q-162 240 -449 239 q-293 1 -459 -239q-147 -209 -147 -512zM487 1628l240 246h61l248 -246h-102l-174 174h-4l-174 -174h-95z" />
<glyph unicode="&#xd5;" horiz-adv-x="1515" d="M88 758q0 377 199 600q190 213 485 213q293 0 477 -211q186 -215 187 -572q0 -389 -211 -612q-190 -201 -469 -201q-287 0 -473 207q-195 217 -195 576zM164 760q0 -274 151 -486q170 -240 443 -239q276 0 446 225q156 211 156 522q0 285 -141 490q-162 240 -449 239 q-295 1 -461 -239q-145 -209 -145 -512zM506 1642q-2 74 35 127q39 55 104 56q35 0 129 -49q70 -37 117 -37q59 0 63 84h62q0 -168 -131 -168q-43 0 -133 45q-90 43 -117 43q-57 0 -68 -101h-61z" />
<glyph unicode="&#xd6;" horiz-adv-x="1515" d="M88 758q0 377 199 600q190 213 485 213q293 0 477 -211q186 -215 187 -572q0 -389 -211 -612q-190 -201 -469 -201q-287 0 -471 207q-197 217 -197 576zM164 760q0 -274 151 -486q170 -240 443 -239q276 0 446 225q156 211 156 522q0 285 -141 490q-162 240 -449 239 q-293 1 -459 -239q-147 -209 -147 -512zM498 1749q0 33 22 57q23 25 53 25q74 0 74 -82q0 -80 -76 -80q-73 0 -73 80zM879 1749q0 33 22 57q23 25 53 25q74 0 74 -82q0 -80 -76 -80q-73 0 -73 80z" />
<glyph unicode="&#xd7;" horiz-adv-x="1368" d="M82 1145l57 57l543 -543l545 543l55 -55l-545 -545l545 -545l-55 -55l-545 543l-543 -541l-55 57l541 541z" />
<glyph unicode="&#xd8;" horiz-adv-x="1515" d="M88 758q0 381 205 604q188 209 479 209q248 0 422 -156l143 184l54 -38l-152 -197q197 -219 197 -573q0 -393 -215 -619q-186 -197 -455 -197q-260 0 -442 166l-150 -192l-45 39l152 202q-193 215 -193 568zM164 774q0 -283 160 -526h4l821 1110q-147 154 -377 153 q-289 0 -459 -239q-150 -211 -149 -498zM367 199q193 -164 391 -164q279 0 448 231q154 211 154 516q0 322 -164 523h-4z" />
<glyph unicode="&#xd9;" horiz-adv-x="1413" d="M193 594v952h71v-936q0 -291 127 -440q115 -135 305 -135q209 0 328 139q127 152 127 438v934h72v-932q0 -332 -162 -497q-139 -141 -371 -142q-213 0 -342 134q-156 160 -155 485zM385 1882h137l228 -256h-64z" />
<glyph unicode="&#xda;" horiz-adv-x="1417" d="M193 594v952h71v-934q0 -293 127 -442q115 -135 305 -135q209 0 328 139q127 152 127 438v934h72v-932q0 -332 -162 -497q-139 -141 -371 -142q-213 0 -342 134q-156 160 -155 485zM666 1628l227 256h137l-301 -256h-63z" />
<glyph unicode="&#xdb;" horiz-adv-x="1413" d="M193 594v952h71v-934q0 -293 127 -442q115 -135 305 -135q209 0 328 139q127 152 127 438v934h72v-932q0 -332 -162 -497q-139 -141 -371 -142q-213 0 -342 134q-156 160 -155 485zM434 1628l240 246h61l248 -246h-102l-174 174h-5l-174 -174h-94z" />
<glyph unicode="&#xdc;" horiz-adv-x="1413" d="M193 594v952h71v-934q0 -293 127 -442q115 -135 305 -135q209 0 328 139q127 152 127 438v934h72v-932q0 -332 -162 -497q-139 -141 -371 -142q-213 0 -342 134q-156 160 -155 485zM444 1749q0 33 23 57q23 25 53 25q74 0 74 -82q0 -80 -76 -80q-74 0 -74 80zM825 1749 q0 33 23 57q23 25 53 25q74 0 74 -82q0 -80 -76 -80q-74 0 -74 80z" />
<glyph unicode="&#xdd;" horiz-adv-x="1126" d="M33 1546h90l268 -477q123 -223 176 -332h6l187 336l276 473h92l-528 -876v-670h-72v676zM516 1628l227 256h138l-301 -256h-64z" />
<glyph unicode="&#xde;" horiz-adv-x="1087" d="M193 0v1546h71v-323q121 25 244 24q268 0 395 -127q111 -111 111 -268q0 -209 -154 -334t-409 -125q-102 0 -187 15v-408h-71zM264 469q76 -16 185 -16q225 0 356 102q133 104 133 281q0 178 -123 268q-113 84 -307 84q-139 0 -244 -23v-696z" />
<glyph unicode="&#xdf;" horiz-adv-x="1144" d="M193 0v1077q0 348 153 486q104 90 268 90q135 0 230 -86q104 -98 104 -271q0 -98 -49 -186q-188 -68 -188 -207q0 -102 145 -241q188 -184 188 -349q0 -150 -100 -243q-100 -94 -266 -95q-141 0 -244 54l29 61q125 -55 223 -55q133 0 213 84q72 74 72 182q0 164 -154 299 q-178 162 -178 291q0 178 217 276q20 47 21 117q0 150 -80 232q-74 78 -203 77q-330 0 -330 -524v-1069h-71z" />
<glyph unicode="&#xe0;" horiz-adv-x="1024" d="M94 270q0 190 166 295q172 106 506 103q0 162 -37 243q-68 150 -258 150q-147 0 -270 -88l-29 53q137 96 305 96q360 0 361 -428v-434q0 -160 16 -260h-68l-16 166h-4q-117 -190 -354 -191q-154 0 -242 95q-76 82 -76 200zM168 283q0 -121 74 -189q68 -59 166 -59 q172 0 276 119q80 92 80 186v264q-596 12 -596 -321zM252 1575h135l203 -313h-60z" />
<glyph unicode="&#xe1;" horiz-adv-x="1015" d="M94 270q0 190 166 295q172 106 506 103q0 162 -37 243q-68 150 -258 150q-147 0 -270 -88l-29 53q137 96 305 96q360 0 361 -428v-434q0 -160 16 -260h-68l-16 166h-4q-117 -190 -354 -191q-154 0 -242 95q-76 82 -76 200zM168 283q0 -121 74 -189q68 -59 166 -59 q172 0 276 119q80 92 80 186v264q-596 12 -596 -321zM449 1262l204 313h135l-278 -313h-61z" />
<glyph unicode="&#xe2;" horiz-adv-x="1024" d="M94 270q0 190 166 295q172 106 506 103q0 162 -37 243q-68 150 -258 150q-147 0 -270 -88l-29 53q137 96 305 96q360 0 361 -428v-434q0 -160 16 -260h-68l-16 166h-4q-117 -190 -354 -191q-154 0 -242 95q-76 82 -76 200zM168 283q0 -121 74 -189q68 -59 166 -59 q172 0 276 119q80 92 80 186v264q-596 12 -596 -321zM272 1262l205 313h55l216 -313h-93l-149 233h-4l-148 -233h-82z" />
<glyph unicode="&#xe3;" horiz-adv-x="1019" d="M94 270q0 190 166 295q172 106 506 103q0 162 -37 243q-68 150 -258 150q-147 0 -270 -88l-29 53q137 96 305 96q360 0 361 -428v-434q0 -160 16 -260h-68l-16 166h-4q-117 -190 -354 -191q-154 0 -242 95q-76 82 -76 200zM168 283q0 -121 74 -189q68 -59 166 -59 q172 0 276 119q80 92 80 186v264q-596 12 -596 -321zM264 1317q0 186 131 186q27 0 137 -53q61 -33 95 -33q59 0 65 92h62q-4 -176 -127 -176q-41 0 -127 47q-82 41 -109 41q-55 0 -63 -104h-64z" />
<glyph unicode="&#xe4;" horiz-adv-x="1019" d="M94 270q0 190 166 295q172 106 506 103q0 162 -37 243q-68 150 -258 150q-147 0 -270 -88l-29 53q137 96 305 96q360 0 361 -428v-434q0 -160 16 -260h-68l-16 166h-4q-117 -190 -354 -191q-154 0 -242 95q-76 82 -76 200zM168 283q0 -121 74 -189q68 -59 166 -59 q172 0 276 119q80 92 80 186v264q-596 12 -596 -321zM250 1411q0 31 22 55q23 23 52 23q74 0 73 -78q0 -78 -78 -78q-69 0 -69 78zM623 1411q0 31 22 55q20 23 51 23q74 0 74 -78t-76 -78q-71 0 -71 78z" />
<glyph unicode="&#xe5;" horiz-adv-x="1019" d="M94 270q0 190 166 295q172 106 506 103q0 162 -37 243q-68 150 -258 150q-147 0 -270 -88l-29 53q137 96 305 96q360 0 361 -428v-434q0 -160 16 -260h-68l-16 166h-4q-117 -190 -354 -191q-154 0 -242 95q-76 82 -76 200zM168 283q0 -121 74 -189q68 -59 166 -59 q172 0 276 119q80 92 80 186v264q-596 12 -596 -321zM307 1427q0 84 60 144q59 59 147 59q82 0 141 -59q59 -61 60 -146q0 -82 -62 -139q-61 -57 -141 -57q-84 0 -145 59q-59 57 -60 139zM387 1427q0 -53 35 -94q37 -43 90 -43q55 0 92 41q35 41 35 99q0 59 -35 98 q-35 41 -94 41q-55 0 -90 -43q-33 -41 -33 -99z" />
<glyph unicode="&#xe6;" horiz-adv-x="1708" d="M94 258q0 188 166 293q174 109 510 100v56q0 113 -49 206q-76 147 -248 148q-160 0 -274 -90l-31 57q143 94 307 94q299 0 348 -278h4q102 279 392 278q219 0 325 -188q72 -131 72 -283q0 -41 -4 -57h-772q-12 -266 104 -418q109 -141 297 -141q160 0 289 71l24 -61 q-125 -70 -317 -70q-147 0 -262 76q-119 78 -156 211h-4q-41 -135 -153 -213q-111 -74 -254 -74q-154 0 -240 93q-74 78 -74 190zM168 270q0 -104 72 -172q68 -63 168 -63q160 0 262 104q98 100 98 244v207q-600 14 -600 -320zM840 657h696q8 137 -66 256q-90 147 -256 148 q-170 0 -276 -139q-90 -117 -98 -265z" />
<glyph unicode="&#xe7;" horiz-adv-x="1024" d="M98 537q0 262 160 426q156 160 395 159h2q190 0 289 -80l-33 -53q-123 74 -260 74q-223 0 -356 -158q-123 -145 -123 -360q0 -225 129 -367q127 -141 328 -141q123 0 282 72l29 -56q-152 -76 -324 -76l-51 3l-71 -109q63 -8 106 -47q47 -43 47 -105q0 -172 -207 -172 q-63 0 -133 35l27 68q61 -31 121 -31q113 0 112 90q0 92 -176 107l107 174q-182 39 -291 186q-109 150 -109 361z" />
<glyph unicode="&#xe8;" horiz-adv-x="1095" d="M96 528q0 276 142 441q133 154 342 153q221 0 331 -170q86 -135 86 -340q0 -25 -2 -34h-825q-2 -258 115 -400q113 -141 321 -141q162 0 305 69l25 -55q-123 -74 -340 -74q-227 0 -365 156q-135 152 -135 395zM178 641h740q2 141 -62 258q-92 166 -285 166 q-174 0 -284 -143q-90 -117 -109 -281zM291 1575h135l205 -313h-62z" />
<glyph unicode="&#xe9;" horiz-adv-x="1099" d="M96 528q0 276 142 441q133 154 342 153q221 0 331 -170q86 -135 86 -340q0 -25 -2 -34h-825q-2 -258 115 -400q113 -141 321 -141q162 0 305 69l25 -55q-123 -74 -340 -74q-227 0 -365 156q-135 152 -135 395zM178 641h740q2 141 -62 258q-92 166 -285 166 q-174 0 -284 -143q-90 -117 -109 -281zM489 1262l205 313h133l-278 -313h-60z" />
<glyph unicode="&#xea;" d="M96 528q0 276 142 441q133 154 342 153q221 0 331 -170q86 -135 86 -340q0 -25 -2 -34h-825q-2 -258 115 -400q113 -141 321 -141q162 0 305 69l25 -55q-123 -74 -340 -74q-227 0 -365 156q-135 152 -135 395zM178 641h740q2 141 -62 258q-92 166 -285 166 q-174 0 -284 -143q-90 -117 -109 -281zM311 1262l205 313h57l213 -313h-90l-151 233h-4l-146 -233h-84z" />
<glyph unicode="&#xeb;" horiz-adv-x="1093" d="M96 528q0 276 142 441q133 154 342 153q221 0 331 -170q86 -135 86 -340q0 -25 -2 -34h-825q-2 -258 115 -400q113 -141 321 -141q162 0 305 69l25 -55q-123 -74 -340 -74q-227 0 -365 156q-135 152 -135 395zM178 641h740q2 141 -62 258q-92 166 -285 166 q-174 0 -284 -143q-90 -117 -109 -281zM289 1411q0 31 22 55q23 23 51 23q74 0 74 -78t-78 -78q-69 0 -69 78zM662 1411q0 31 22 55q20 23 51 23q74 0 74 -78t-76 -78q-71 0 -71 78z" />
<glyph unicode="&#xec;" horiz-adv-x="452" d="M-29 1575h135l203 -313h-59zM193 0v1098h71v-1098h-71z" />
<glyph unicode="&#xed;" horiz-adv-x="452" d="M168 1262l205 313h133l-279 -313h-59zM193 0v1098h71v-1098h-71z" />
<glyph unicode="&#xee;" horiz-adv-x="452" d="M-8 1262l205 313h55l213 -313h-90l-152 233h-4l-145 -233h-82zM193 0v1098h71v-1098h-71z" />
<glyph unicode="&#xef;" horiz-adv-x="452" d="M-33 1411q0 31 23 55q23 23 51 23q74 0 74 -78t-78 -78q-70 0 -70 78zM193 0v1098h71v-1098h-71zM340 1411q0 31 22 55q20 23 52 23q74 0 73 -78q0 -78 -75 -78q-72 0 -72 78z" />
<glyph unicode="&#xf0;" horiz-adv-x="1171" d="M98 539q0 272 154 440q141 154 334 154q205 0 344 -148l2 4q-127 233 -336 400l-313 -158l-27 51l291 145q-90 74 -262 162l30 60q195 -102 297 -189l269 137l28 -49l-250 -127q416 -352 416 -850q0 -297 -160 -458q-137 -137 -340 -138q-211 0 -342 154 q-135 156 -135 410zM172 543q0 -199 107 -346q117 -162 301 -162q186 0 305 151q117 147 116 373q0 246 -100 367q-127 145 -313 145q-203 0 -318 -180q-98 -152 -98 -348z" />
<glyph unicode="&#xf1;" horiz-adv-x="1210" d="M184 1098h70l6 -205h4q127 229 385 229q125 0 221 -71q158 -119 158 -392v-659h-72v653q0 176 -71 283q-84 125 -252 125q-156 0 -266 -123q-102 -115 -103 -252v-686h-71v850q0 135 -9 248zM362 1317q0 186 132 186q27 0 137 -53q61 -33 94 -33q59 0 66 92h61 q-4 -176 -127 -176q-41 0 -127 47q-86 41 -109 41q-55 0 -63 -104h-64z" />
<glyph unicode="&#xf2;" horiz-adv-x="1214" d="M96 539q0 270 156 434q143 150 352 149q228 1 365 -157q137 -156 137 -406q0 -285 -170 -446q-143 -137 -344 -138q-215 0 -352 154q-143 158 -144 410zM170 545q0 -207 123 -357q125 -154 301 -153q182 0 309 145q129 147 129 371q0 199 -100 344q-119 168 -326 168 q-205 0 -325 -162q-111 -145 -111 -356zM344 1575h135l203 -313h-59z" />
<glyph unicode="&#xf3;" horiz-adv-x="1208" d="M96 539q0 270 156 434q143 150 352 149q228 1 365 -157q137 -156 137 -406q0 -285 -170 -446q-143 -137 -344 -138q-215 0 -352 154q-143 158 -144 410zM170 545q0 -207 123 -357q125 -154 301 -153q182 0 309 145q129 147 129 371q0 199 -100 344q-119 168 -326 168 q-205 0 -325 -162q-111 -145 -111 -356zM541 1262l204 313h134l-279 -313h-59z" />
<glyph unicode="&#xf4;" horiz-adv-x="1208" d="M96 539q0 270 156 434q143 150 352 149q228 1 365 -157q137 -156 137 -406q0 -285 -170 -446q-143 -137 -344 -138q-215 0 -352 154q-143 158 -144 410zM170 545q0 -207 123 -357q125 -154 301 -153q182 0 309 145q129 147 129 371q0 199 -100 344q-119 168 -326 168 q-205 0 -325 -162q-111 -145 -111 -356zM362 1262l205 313h58l215 -313h-92l-152 233h-4l-146 -233h-84z" />
<glyph unicode="&#xf5;" horiz-adv-x="1208" d="M96 539q0 270 156 434q143 150 352 149q228 1 365 -157q137 -156 137 -406q0 -285 -170 -446q-143 -137 -344 -138q-215 0 -352 154q-143 158 -144 410zM170 545q0 -207 123 -357q125 -154 301 -153q182 0 309 145q129 147 129 371q0 199 -100 344q-119 168 -326 168 q-205 0 -325 -162q-111 -145 -111 -356zM358 1317q0 186 131 186q29 0 136 -53q66 -33 96 -33q59 0 65 92h62q-4 -176 -127 -176q-41 0 -127 45q-82 43 -109 43q-55 0 -63 -104h-64z" />
<glyph unicode="&#xf6;" horiz-adv-x="1212" d="M96 539q0 270 156 434q143 150 352 149q228 1 365 -157q137 -156 137 -406q0 -285 -170 -446q-143 -137 -344 -138q-215 0 -352 154q-143 158 -144 410zM170 545q0 -207 123 -357q125 -154 301 -153q182 0 309 145q129 147 129 371q0 199 -100 344q-119 168 -326 168 q-205 0 -325 -162q-111 -145 -111 -356zM342 1411q0 31 23 55q23 23 51 23q74 0 73 -78q0 -78 -77 -78q-70 0 -70 78zM715 1411q0 31 22 55q20 23 51 23q74 0 74 -78t-76 -78q-71 0 -71 78z" />
<glyph unicode="&#xf7;" horiz-adv-x="1368" d="M94 578v71h1182v-71h-1182zM602 211q0 92 86 92q80 0 80 -92q0 -35 -23 -61q-25 -29 -61 -29t-61 31q-20 25 -21 59zM602 1014q0 92 86 92q80 0 80 -92q0 -35 -23 -62q-25 -29 -61 -28q-36 -1 -59 30q-23 27 -23 60z" />
<glyph unicode="&#xf8;" horiz-adv-x="1214" d="M96 541q0 244 148 413q147 168 362 168q174 0 297 -98l84 117l60 -41l-91 -125q150 -156 150 -416q0 -285 -170 -444q-143 -139 -342 -140q-164 0 -295 97l-86 -121l-57 43l90 127q-150 162 -150 420zM170 545q0 -209 119 -363l575 787q-104 94 -258 94q-207 0 -327 -166 q-109 -145 -109 -352zM340 129q115 -94 254 -94q184 0 311 149q127 147 127 369q0 203 -117 356h-4z" />
<glyph unicode="&#xf9;" horiz-adv-x="1210" d="M182 459v639h72v-617q0 -446 315 -446q143 0 254 115q113 115 113 266v682h72v-844q0 -141 8 -254h-68l-8 201h-4q-117 -225 -377 -226q-141 0 -235 82q-141 121 -142 402zM342 1575h135l205 -313h-59z" />
<glyph unicode="&#xfa;" horiz-adv-x="1212" d="M182 459v639h72v-617q0 -446 315 -446q143 0 254 115q113 115 113 266v682h72v-844q0 -141 8 -254h-68l-8 201h-4q-117 -225 -377 -226q-141 0 -235 82q-141 121 -142 402zM541 1262l204 313h134l-279 -313h-59z" />
<glyph unicode="&#xfb;" horiz-adv-x="1208" d="M182 459v639h72v-617q0 -446 315 -446q143 0 254 115q113 115 113 266v682h72v-844q0 -141 8 -254h-68l-8 201h-4q-117 -225 -377 -226q-141 0 -235 82q-141 121 -142 402zM362 1262l205 313h58l213 -313h-90l-152 233h-4l-146 -233h-84z" />
<glyph unicode="&#xfc;" horiz-adv-x="1208" d="M182 459v639h72v-617q0 -446 315 -446q143 0 254 115q113 115 113 266v682h72v-844q0 -141 8 -254h-68l-8 201h-4q-117 -225 -377 -226q-141 0 -235 82q-141 121 -142 402zM340 1411q0 31 22 55q23 23 52 23q74 0 73 -78q0 -78 -77 -78q-70 0 -70 78zM713 1411 q0 31 22 55q20 23 51 23q74 0 74 -78t-76 -78q-71 0 -71 78z" />
<glyph unicode="&#xfd;" horiz-adv-x="983" d="M23 1098h81l306 -756q47 -123 86 -231h4l374 987h80l-340 -834q-162 -410 -268 -553q-90 -125 -274 -217l-27 57q190 74 315 285q86 145 86 199q0 8 -14 47zM430 1262l205 313h133l-279 -313h-59z" />
<glyph unicode="&#xfe;" horiz-adv-x="1251" d="M193 -455v1977h71v-643h4q131 244 412 243q211 0 344 -155q131 -156 131 -398q0 -291 -154 -450q-137 -143 -352 -144q-238 0 -379 218h-6v-648h-71zM264 424q0 -147 111 -264q119 -125 293 -125q184 0 299 145t114 385q0 207 -108 348q-115 150 -303 150 q-164 0 -285 -131t-121 -301v-207z" />
<glyph unicode="&#xff;" horiz-adv-x="983" d="M23 1098h81l306 -756q29 -72 86 -231h6q16 39 45 120l327 867h82l-340 -836q-205 -518 -368 -661q-53 -45 -176 -107l-27 55q180 72 307 275q94 150 94 211q0 14 -14 45zM229 1411q0 31 23 55q23 23 51 23q74 0 74 -78t-78 -78q-70 0 -70 78zM604 1411q0 31 23 55 q20 23 51 23q74 0 74 -78t-76 -78q-72 0 -72 78z" />
<glyph unicode="&#x2c6;" horiz-adv-x="2097" />
<glyph unicode="&#x2dc;" horiz-adv-x="2097" />
<glyph unicode="&#x2000;" horiz-adv-x="989" />
<glyph unicode="&#x2001;" horiz-adv-x="1978" />
<glyph unicode="&#x2002;" horiz-adv-x="989" />
<glyph unicode="&#x2003;" horiz-adv-x="1978" />
<glyph unicode="&#x2004;" horiz-adv-x="659" />
<glyph unicode="&#x2005;" horiz-adv-x="494" />
<glyph unicode="&#x2006;" horiz-adv-x="329" />
<glyph unicode="&#x2007;" horiz-adv-x="329" />
<glyph unicode="&#x2008;" horiz-adv-x="247" />
<glyph unicode="&#x2009;" horiz-adv-x="395" />
<glyph unicode="&#x200a;" horiz-adv-x="109" />
<glyph unicode="&#x2010;" horiz-adv-x="671" d="M70 596v76h536v-76h-536z" />
<glyph unicode="&#x2011;" horiz-adv-x="671" d="M70 596v76h536v-76h-536z" />
<glyph unicode="&#x2012;" horiz-adv-x="671" d="M70 596v76h536v-76h-536z" />
<glyph unicode="&#x2013;" horiz-adv-x="2269" />
<glyph unicode="&#x2014;" horiz-adv-x="4194" />
<glyph unicode="&#x2018;" horiz-adv-x="393" d="M147 1587h103l-25 -487h-53z" />
<glyph unicode="&#x2019;" horiz-adv-x="389" d="M147 1587h103l-25 -487h-53z" />
<glyph unicode="&#x201a;" horiz-adv-x="1140" />
<glyph unicode="&#x201c;" horiz-adv-x="653" d="M147 1587h103l-25 -487h-53zM406 1587h102l-25 -487h-53z" />
<glyph unicode="&#x201d;" horiz-adv-x="653" d="M147 1587h103l-25 -487h-53zM406 1587h102l-25 -487h-53z" />
<glyph unicode="&#x201e;" horiz-adv-x="1863" />
<glyph unicode="&#x2022;" horiz-adv-x="2097" />
<glyph unicode="&#x2026;" horiz-adv-x="2297" d="M309 59q0 88 76 88t76 -88q0 -84 -78 -84q-74 0 -74 84zM1073 59q0 88 76 88t76 -88q0 -84 -78 -84q-74 0 -74 84zM1837 59q0 88 76 88t76 -88q0 -84 -76 -84t-76 84z" />
<glyph unicode="&#x202f;" horiz-adv-x="395" />
<glyph unicode="&#x2039;" horiz-adv-x="1292" />
<glyph unicode="&#x203a;" horiz-adv-x="1292" />
<glyph unicode="&#x205f;" horiz-adv-x="494" />
<glyph unicode="&#x20ac;" horiz-adv-x="2076" />
<glyph unicode="&#x2122;" horiz-adv-x="1359" d="M76 1487v59h497v-59h-215v-565h-65v565h-217zM604 922l53 624h97l161 -436q25 -74 46 -121h4q27 74 39 115l163 442h99l59 -624h-74l-32 448l-7 115h-4l-207 -553h-79l-162 432q-35 92 -47 121h-4q0 -49 -7 -115l-30 -448h-68z" />
<glyph unicode="&#xe000;" horiz-adv-x="1095" d="M0 0v1096h1096v-1096h-1096z" />
</font>
</defs>
</svg>
